<?xml version="1.0" encoding="UTF-8"?>
<svg width="218px" height="65px" viewBox="0 0 218 65" version="1.1" xmlns="http://www.w3.org/2000/svg" xmlns:xlink="http://www.w3.org/1999/xlink">
    <title>AppStore</title>
    <defs>
        <polygon id="path-1" points="0 0 217.609375 0 217.609375 65 0 65"></polygon>
    </defs>
    <g id="Page-1" stroke="none" stroke-width="1" fill="none" fill-rule="evenodd">
        <g id="AppStore">
            <path d="M209.425781,63.242188 L8.191406,63.242188 C4.113281,63.242188 0.808594,59.9375 0.808594,55.859375 L0.808594,8.1875 C0.808594,4.109375 4.113281,0.804688 8.191406,0.804688 L209.425781,0.804688 C213.503906,0.804688 216.808594,4.109375 216.808594,8.1875 L216.808594,55.859375 C216.808594,59.9375 213.503906,63.242188 209.425781,63.242188" id="Path" fill="#000000" fill-rule="nonzero"></path>
            <g id="Clipped">
                <mask id="mask-2" fill="white">
                    <use xlink:href="#path-1"></use>
                </mask>
                <g id="Path"></g>
                <path d="M8.1875,1.613281 C4.5625,1.613281 1.613281,4.5625 1.613281,8.1875 L1.613281,55.859375 C1.613281,59.484375 4.5625,62.433594 8.1875,62.433594 L209.425781,62.433594 C213.050781,62.433594 216,59.484375 216,55.859375 L216,8.1875 C216,4.5625 213.050781,1.613281 209.425781,1.613281 L8.1875,1.613281 Z M209.425781,64.050781 L8.1875,64.050781 C3.671875,64.050781 0,60.375 0,55.859375 L0,8.1875 C0,3.671875 3.671875,-0.00390625 8.1875,-0.00390625 L209.425781,-0.00390625 C213.941406,-0.00390625 217.613281,3.671875 217.613281,8.1875 L217.613281,55.859375 C217.613281,60.375 213.941406,64.050781 209.425781,64.050781" id="Shape" fill="#A7A9AB" fill-rule="nonzero" mask="url(#mask-2)"></path>
            </g>
            <path d="M75.460938,16.761719 L74.632813,14.167969 C74.429688,13.527344 74.257813,12.8125 74.101563,12.203125 L74.070313,12.203125 C73.917969,12.8125 73.757813,13.542969 73.574219,14.167969 L72.761719,16.761719 L75.460938,16.761719 Z M72.449219,18.210938 L71.542969,21.195313 L69.558594,21.195313 L72.933594,10.671875 L75.382813,10.671875 L78.800781,21.195313 L76.742188,21.195313 L75.789063,18.210938" id="Shape" fill="#FFFFFF" fill-rule="nonzero"></path>
            <path d="M81.671875,13.59375 L82.90625,17.445313 C83.125,18.117188 83.277344,18.726563 83.417969,19.351563 L83.464844,19.351563 C83.605469,18.726563 83.777344,18.132813 83.980469,17.445313 L85.199219,13.59375 L87.210938,13.59375 L84.308594,21.195313 L82.421875,21.195313 L79.59375,13.59375" id="Path" fill="#FFFFFF" fill-rule="nonzero"></path>
            <path d="M93.003906,17.476563 C91.644531,17.460938 90.347656,17.742188 90.347656,18.898438 C90.347656,19.648438 90.832031,19.992188 91.441406,19.992188 C92.21875,19.992188 92.769531,19.492188 92.953125,18.945313 C93.003906,18.804688 93.003906,18.664063 93.003906,18.523438 L93.003906,17.476563 Z M94.875,19.367188 C94.875,20.054688 94.90625,20.726563 95,21.191406 L93.265625,21.191406 L93.128906,20.351563 L93.078125,20.351563 C92.628906,20.941406 91.832031,21.363281 90.832031,21.363281 C89.300781,21.363281 88.445313,20.257813 88.445313,19.101563 C88.445313,17.195313 90.144531,16.214844 92.953125,16.230469 L92.953125,16.105469 C92.953125,15.605469 92.753906,14.777344 91.410156,14.777344 C90.660156,14.777344 89.878906,15.011719 89.363281,15.339844 L88.988281,14.089844 C89.550781,13.746094 90.535156,13.421875 91.738281,13.421875 C94.171875,13.421875 94.875,14.964844 94.875,16.636719" id="Shape" fill="#FFFFFF" fill-rule="nonzero"></path>
            <path d="M97.589844,13.59375 L99.507813,13.59375 L99.507813,21.195313 L97.589844,21.195313 L97.589844,13.59375 Z M98.539063,12.5 C97.902344,12.5 97.480469,12.03125 97.480469,11.46875 C97.480469,10.875 97.914063,10.421875 98.558594,10.421875 C99.210938,10.421875 99.617188,10.875 99.632813,11.46875 C99.632813,12.03125 99.210938,12.5 98.558594,12.5" id="Shape" fill="#FFFFFF" fill-rule="nonzero"></path>
            <polygon id="Path" fill="#FFFFFF" fill-rule="nonzero" points="102.269531 21.195313 104.191406 21.195313 104.191406 10.09375 102.269531 10.09375"></polygon>
            <path d="M110.996094,17.476563 C109.636719,17.460938 108.339844,17.742188 108.339844,18.898438 C108.339844,19.648438 108.824219,19.992188 109.433594,19.992188 C110.214844,19.992188 110.761719,19.492188 110.949219,18.945313 C110.996094,18.804688 110.996094,18.664063 110.996094,18.523438 L110.996094,17.476563 Z M112.867188,19.367188 C112.867188,20.054688 112.898438,20.726563 112.992188,21.191406 L111.261719,21.191406 L111.121094,20.351563 L111.074219,20.351563 C110.621094,20.941406 109.824219,21.363281 108.824219,21.363281 C107.296875,21.363281 106.4375,20.257813 106.4375,19.101563 C106.4375,17.195313 108.140625,16.214844 110.949219,16.230469 L110.949219,16.105469 C110.949219,15.605469 110.746094,14.777344 109.402344,14.777344 C108.652344,14.777344 107.871094,15.011719 107.359375,15.339844 L106.984375,14.089844 C107.546875,13.746094 108.527344,13.421875 109.730469,13.421875 C112.164063,13.421875 112.867188,14.964844 112.867188,16.636719" id="Shape" fill="#FFFFFF" fill-rule="nonzero"></path>
            <path d="M117.503906,18.054688 C117.503906,18.210938 117.519531,18.367188 117.550781,18.507813 C117.753906,19.289063 118.425781,19.851563 119.25,19.851563 C120.453125,19.851563 121.1875,18.898438 121.1875,17.355469 C121.1875,16.011719 120.546875,14.917969 119.265625,14.917969 C118.484375,14.917969 117.769531,15.480469 117.566406,16.324219 C117.535156,16.464844 117.503906,16.636719 117.503906,16.824219 L117.503906,18.054688 Z M115.582031,10.09375 L117.503906,10.09375 L117.503906,14.636719 L117.535156,14.636719 C118.003906,13.902344 118.828125,13.421875 119.96875,13.421875 C121.828125,13.421875 123.152344,14.964844 123.136719,17.277344 C123.136719,20.007813 121.40625,21.367188 119.6875,21.367188 C118.703125,21.367188 117.832031,20.992188 117.285156,20.054688 L117.253906,20.054688 L117.160156,21.195313 L115.519531,21.195313 C115.550781,20.679688 115.582031,19.835938 115.582031,19.070313" id="Shape" fill="#FFFFFF" fill-rule="nonzero"></path>
            <polygon id="Path" fill="#FFFFFF" fill-rule="nonzero" points="125.398438 21.195313 127.316406 21.195313 127.316406 10.09375 125.398438 10.09375"></polygon>
            <path d="M134.792969,16.589844 C134.808594,15.886719 134.496094,14.730469 133.21875,14.730469 C132.03125,14.730469 131.53125,15.808594 131.453125,16.589844 L134.792969,16.589844 Z M131.453125,17.929688 C131.5,19.304688 132.578125,19.898438 133.796875,19.898438 C134.683594,19.898438 135.308594,19.757813 135.902344,19.554688 L136.183594,20.863281 C135.527344,21.148438 134.621094,21.347656 133.53125,21.347656 C131.0625,21.347656 129.609375,19.835938 129.609375,17.511719 C129.609375,15.402344 130.890625,13.421875 133.328125,13.421875 C135.792969,13.421875 136.605469,15.449219 136.605469,17.121094 C136.605469,17.480469 136.574219,17.761719 136.542969,17.929688" id="Shape" fill="#FFFFFF" fill-rule="nonzero"></path>
            <path d="M146.140625,19.976563 C147.230469,19.976563 147.996094,18.914063 147.996094,17.371094 C147.996094,16.183594 147.464844,14.808594 146.15625,14.808594 C144.796875,14.808594 144.25,16.136719 144.25,17.402344 C144.25,18.867188 144.984375,19.976563 146.121094,19.976563 L146.140625,19.976563 Z M146.078125,21.367188 C143.9375,21.367188 142.269531,19.898438 142.269531,17.449219 C142.269531,14.949219 143.90625,13.421875 146.203125,13.421875 C148.464844,13.421875 149.980469,15.011719 149.980469,17.324219 C149.980469,20.117188 148.011719,21.367188 146.09375,21.367188" id="Shape" fill="#FFFFFF" fill-rule="nonzero"></path>
            <path d="M152.238281,15.855469 C152.238281,14.980469 152.210938,14.246094 152.179688,13.589844 L153.847656,13.589844 L153.941406,14.730469 L153.988281,14.730469 C154.332031,14.136719 155.160156,13.421875 156.425781,13.421875 C157.75,13.421875 159.125,14.277344 159.125,16.683594 L159.125,21.191406 L157.203125,21.191406 L157.203125,16.902344 C157.203125,15.808594 156.796875,14.980469 155.753906,14.980469 C154.988281,14.980469 154.457031,15.527344 154.253906,16.105469 C154.191406,16.261719 154.160156,16.496094 154.160156,16.714844 L154.160156,21.191406 L152.238281,21.191406" id="Path" fill="#FFFFFF" fill-rule="nonzero"></path>
            <path d="M167.972656,11.640625 L167.972656,13.589844 L169.796875,13.589844 L169.796875,15.027344 L167.972656,15.027344 L167.972656,18.367188 C167.972656,19.304688 168.222656,19.773438 168.953125,19.773438 C169.296875,19.773438 169.484375,19.757813 169.703125,19.695313 L169.734375,21.144531 C169.453125,21.257813 168.9375,21.347656 168.34375,21.347656 C167.628906,21.347656 167.050781,21.113281 166.691406,20.726563 C166.269531,20.289063 166.082031,19.585938 166.082031,18.585938 L166.082031,15.027344 L165.003906,15.027344 L165.003906,13.589844 L166.082031,13.589844 L166.082031,12.171875" id="Path" fill="#FFFFFF" fill-rule="nonzero"></path>
            <path d="M171.933594,10.09375 L173.855469,10.09375 L173.855469,14.621094 L173.886719,14.621094 C174.121094,14.261719 174.449219,13.964844 174.839844,13.761719 C175.230469,13.546875 175.679688,13.421875 176.164063,13.421875 C177.460938,13.421875 178.816406,14.277344 178.816406,16.714844 L178.816406,21.195313 L176.898438,21.195313 L176.898438,16.917969 C176.898438,15.824219 176.492188,14.980469 175.429688,14.980469 C174.683594,14.980469 174.152344,15.480469 173.933594,16.058594 C173.871094,16.230469 173.855469,16.433594 173.855469,16.636719 L173.855469,21.195313 L171.933594,21.195313" id="Path" fill="#FFFFFF" fill-rule="nonzero"></path>
            <path d="M186.246094,16.589844 C186.261719,15.886719 185.949219,14.730469 184.667969,14.730469 C183.480469,14.730469 182.984375,15.808594 182.90625,16.589844 L186.246094,16.589844 Z M182.90625,17.929688 C182.953125,19.304688 184.027344,19.898438 185.246094,19.898438 C186.136719,19.898438 186.761719,19.757813 187.351563,19.554688 L187.636719,20.863281 C186.980469,21.148438 186.074219,21.347656 184.980469,21.347656 C182.515625,21.347656 181.0625,19.835938 181.0625,17.511719 C181.0625,15.402344 182.34375,13.421875 184.777344,13.421875 C187.242188,13.421875 188.054688,15.449219 188.054688,17.121094 C188.054688,17.480469 188.023438,17.761719 187.992188,17.929688" id="Shape" fill="#FFFFFF" fill-rule="nonzero"></path>
            <path d="M48.566406,31.398438 C48.515625,26.191406 52.828125,23.65625 53.027344,23.539063 C50.585938,19.976563 46.800781,19.492188 45.46875,19.453125 C42.292969,19.121094 39.210938,21.359375 37.59375,21.359375 C35.941406,21.359375 33.445313,19.488281 30.761719,19.542969 C27.300781,19.597656 24.066406,21.601563 22.292969,24.707031 C18.636719,31.046875 21.363281,40.359375 24.871094,45.484375 C26.628906,47.992188 28.675781,50.796875 31.359375,50.695313 C33.984375,50.585938 34.964844,49.023438 38.132813,49.023438 C41.273438,49.023438 42.195313,50.695313 44.933594,50.632813 C47.75,50.585938 49.523438,48.113281 51.214844,45.578125 C53.246094,42.703125 54.058594,39.871094 54.089844,39.726563 C54.023438,39.703125 48.621094,37.640625 48.566406,31.398438" id="Path" fill="#FFFFFF" fill-rule="nonzero"></path>
            <path d="M43.394531,16.085938 C44.804688,14.320313 45.777344,11.914063 45.503906,9.476563 C43.460938,9.570313 40.90625,10.890625 39.433594,12.617188 C38.132813,14.140625 36.964844,16.636719 37.269531,18.980469 C39.566406,19.152344 41.921875,17.824219 43.394531,16.085938" id="Path" fill="#FFFFFF" fill-rule="nonzero"></path>
            <path d="M80.246094,41.339844 L78.433594,35.742188 C78.242188,35.171875 77.882813,33.824219 77.351563,31.707031 L77.289063,31.707031 C77.078125,32.617188 76.734375,33.964844 76.269531,35.742188 L74.488281,41.339844 L80.246094,41.339844 Z M86.511719,50.28125 L82.851563,50.28125 L80.847656,43.984375 L73.886719,43.984375 L71.976563,50.28125 L68.414063,50.28125 L75.320313,28.84375 L79.578125,28.84375" id="Shape" fill="#FFFFFF" fill-rule="nonzero"></path>
            <path d="M100.761719,42.488281 C100.761719,40.980469 100.421875,39.742188 99.742188,38.765625 C99,37.75 98.003906,37.238281 96.753906,37.238281 C95.90625,37.238281 95.132813,37.523438 94.449219,38.082031 C93.761719,38.648438 93.308594,39.382813 93.09375,40.296875 C92.988281,40.71875 92.9375,41.066406 92.9375,41.339844 L92.9375,43.917969 C92.9375,45.042969 93.28125,45.992188 93.96875,46.765625 C94.660156,47.542969 95.554688,47.925781 96.65625,47.925781 C97.953125,47.925781 98.960938,47.429688 99.675781,46.429688 C100.402344,45.433594 100.761719,44.121094 100.761719,42.488281 M104.261719,42.359375 C104.261719,44.988281 103.550781,47.070313 102.128906,48.59375 C100.855469,49.953125 99.273438,50.628906 97.390625,50.628906 C95.351563,50.628906 93.890625,49.894531 93,48.433594 L92.9375,48.433594 L92.9375,56.578125 L89.5,56.578125 L89.5,39.910156 C89.5,38.257813 89.460938,36.5625 89.375,34.820313 L92.394531,34.820313 L92.585938,37.273438 L92.652344,37.273438 C93.796875,35.425781 95.535156,34.503906 97.867188,34.503906 C99.6875,34.503906 101.214844,35.226563 102.429688,36.667969 C103.648438,38.113281 104.261719,40.007813 104.261719,42.359375" id="Shape" fill="#FFFFFF" fill-rule="nonzero"></path>
            <path d="M118.539063,42.488281 C118.539063,40.980469 118.199219,39.742188 117.519531,38.765625 C116.777344,37.75 115.78125,37.238281 114.53125,37.238281 C113.683594,37.238281 112.914063,37.523438 112.226563,38.082031 C111.535156,38.648438 111.089844,39.382813 110.878906,40.296875 C110.769531,40.71875 110.71875,41.066406 110.71875,41.339844 L110.71875,43.917969 C110.71875,45.042969 111.058594,45.992188 111.746094,46.765625 C112.4375,47.542969 113.332031,47.925781 114.4375,47.925781 C115.730469,47.925781 116.738281,47.429688 117.457031,46.429688 C118.175781,45.433594 118.539063,44.121094 118.539063,42.488281 M122.035156,42.359375 C122.035156,44.988281 121.328125,47.070313 119.90625,48.59375 C118.632813,49.953125 117.054688,50.628906 115.167969,50.628906 C113.132813,50.628906 111.671875,49.894531 110.777344,48.433594 L110.71875,48.433594 L110.71875,56.578125 L107.28125,56.578125 L107.28125,39.910156 C107.28125,38.257813 107.238281,36.5625 107.15625,34.820313 L110.175781,34.820313 L110.367188,37.273438 L110.433594,37.273438 C111.574219,35.425781 113.3125,34.503906 115.644531,34.503906 C117.46875,34.503906 118.988281,35.226563 120.210938,36.667969 C121.429688,38.113281 122.035156,40.007813 122.035156,42.359375" id="Shape" fill="#FFFFFF" fill-rule="nonzero"></path>
            <path d="M141.917969,44.269531 C141.917969,46.089844 141.285156,47.574219 140.011719,48.722656 C138.613281,49.972656 136.671875,50.597656 134.175781,50.597656 C131.867188,50.597656 130.015625,50.152344 128.613281,49.261719 L129.410156,46.402344 C130.921875,47.3125 132.574219,47.765625 134.378906,47.765625 C135.671875,47.765625 136.679688,47.476563 137.402344,46.894531 C138.121094,46.308594 138.480469,45.527344 138.480469,44.550781 C138.480469,43.683594 138.1875,42.945313 137.59375,42.351563 C137,41.757813 136.011719,41.207031 134.632813,40.695313 C130.878906,39.292969 129.003906,37.242188 129.003906,34.546875 C129.003906,32.785156 129.660156,31.339844 130.976563,30.214844 C132.289063,29.089844 134.039063,28.523438 136.222656,28.523438 C138.175781,28.523438 139.796875,28.867188 141.089844,29.542969 L140.230469,32.34375 C139.023438,31.6875 137.65625,31.355469 136.128906,31.355469 C134.917969,31.355469 133.976563,31.652344 133.300781,32.246094 C132.730469,32.777344 132.441406,33.425781 132.441406,34.1875 C132.441406,35.035156 132.765625,35.734375 133.425781,36.285156 C133.996094,36.792969 135.035156,37.34375 136.542969,37.941406 C138.386719,38.683594 139.742188,39.550781 140.613281,40.546875 C141.480469,41.542969 141.917969,42.785156 141.917969,44.269531" id="Path" fill="#FFFFFF" fill-rule="nonzero"></path>
            <path d="M153.269531,37.398438 L149.484375,37.398438 L149.484375,44.902344 C149.484375,46.8125 150.152344,47.765625 151.492188,47.765625 C152.101563,47.765625 152.613281,47.714844 153.015625,47.609375 L153.109375,50.214844 C152.4375,50.472656 151.542969,50.597656 150.441406,50.597656 C149.085938,50.597656 148.023438,50.183594 147.257813,49.359375 C146.496094,48.53125 146.113281,47.140625 146.113281,45.191406 L146.113281,37.398438 L143.855469,37.398438 L143.855469,34.820313 L146.113281,34.820313 L146.113281,31.992188 L149.484375,30.972656 L149.484375,34.820313 L153.269531,34.820313" id="Path" fill="#FFFFFF" fill-rule="nonzero"></path>
            <path d="M166.789063,42.535156 C166.789063,41.109375 166.480469,39.890625 165.863281,38.867188 C165.148438,37.632813 164.117188,37.015625 162.78125,37.015625 C161.402344,37.015625 160.351563,37.632813 159.632813,38.867188 C159.015625,39.890625 158.714844,41.132813 158.714844,42.601563 C158.714844,44.027344 159.015625,45.246094 159.632813,46.265625 C160.375,47.5 161.414063,48.117188 162.753906,48.117188 C164.0625,48.117188 165.09375,47.492188 165.835938,46.234375 C166.472656,45.195313 166.789063,43.960938 166.789063,42.535156 M170.351563,42.425781 C170.351563,44.800781 169.675781,46.75 168.316406,48.277344 C166.894531,49.847656 165.007813,50.628906 162.65625,50.628906 C160.382813,50.628906 158.578125,49.875 157.230469,48.371094 C155.886719,46.867188 155.214844,44.96875 155.214844,42.679688 C155.214844,40.28125 155.90625,38.320313 157.296875,36.796875 C158.683594,35.265625 160.554688,34.503906 162.90625,34.503906 C165.175781,34.503906 167.003906,35.257813 168.378906,36.761719 C169.695313,38.230469 170.351563,40.113281 170.351563,42.425781" id="Shape" fill="#FFFFFF" fill-rule="nonzero"></path>
            <path d="M181.515625,37.84375 C181.175781,37.78125 180.816406,37.75 180.433594,37.75 C179.226563,37.75 178.289063,38.207031 177.632813,39.117188 C177.0625,39.925781 176.777344,40.941406 176.777344,42.167969 L176.777344,50.28125 L173.34375,50.28125 L173.371094,39.691406 C173.371094,37.90625 173.328125,36.285156 173.246094,34.820313 L176.238281,34.820313 L176.363281,37.78125 L176.453125,37.78125 C176.816406,36.765625 177.390625,35.945313 178.171875,35.332031 C178.9375,34.78125 179.765625,34.503906 180.65625,34.503906 C180.972656,34.503906 181.261719,34.527344 181.515625,34.566406" id="Path" fill="#FFFFFF" fill-rule="nonzero"></path>
            <path d="M193.597656,40.929688 C193.621094,39.914063 193.398438,39.03125 192.933594,38.289063 C192.339844,37.335938 191.421875,36.855469 190.195313,36.855469 C189.074219,36.855469 188.160156,37.324219 187.460938,38.257813 C186.890625,39 186.546875,39.890625 186.449219,40.929688 L193.597656,40.929688 Z M196.871094,41.820313 C196.871094,42.4375 196.832031,42.953125 196.75,43.378906 L186.449219,43.378906 C186.484375,44.90625 186.984375,46.074219 187.941406,46.878906 C188.808594,47.601563 189.933594,47.957031 191.3125,47.957031 C192.835938,47.957031 194.226563,47.714844 195.480469,47.226563 L196.019531,49.613281 C194.554688,50.246094 192.828125,50.570313 190.832031,50.570313 C188.4375,50.570313 186.554688,49.863281 185.1875,48.449219 C183.824219,47.042969 183.136719,45.148438 183.136719,42.773438 C183.136719,40.441406 183.769531,38.5 185.046875,36.953125 C186.378906,35.296875 188.183594,34.472656 190.449219,34.472656 C192.675781,34.472656 194.367188,35.296875 195.511719,36.953125 C196.421875,38.265625 196.871094,39.890625 196.871094,41.820313" id="Shape" fill="#FFFFFF" fill-rule="nonzero"></path>
        </g>
    </g>
</svg>