<svg xmlns="http://www.w3.org/2000/svg" width="255" height="233" viewBox="0 0 255 233">
    <g fill="none" fill-rule="evenodd">
        <g>
            <g>
                <g transform="translate(-605 -180) translate(605 180)">
                    <circle cx="115" cy="115" r="115" fill="#FFF"/>
                    <g>
                        <g fill-rule="nonzero">
                            <path fill="#DB8631" d="M152.35 54.086L5.538 53.315c-5.013-.027-7.094 9.232-3.006 13.378l76.117 77.229 76.578-76.436c4.118-4.111 2.13-13.374-2.877-13.4z" transform="translate(36 38)"/>
                            <g transform="translate(36 38) translate(18.08)">
                                <rect width="119.796" height="112" x="1.342" y=".684" fill="#EAEAEA" rx="9.592" transform="rotate(-.361 61.24 56.684)"/>
                                <rect width="56.671" height="4.857" x="12.707" y="45.512" fill="#9FA3BF" rx="2.177" transform="rotate(-.344 41.043 47.94)"/>
                                <rect width="96.841" height="4.857" x="12.82" y="57.311" fill="#9FA3BF" rx="2.177" transform="rotate(-.361 61.24 59.74)"/>
                                <rect width="63.126" height="4.857" x="12.877" y="70.671" fill="#9FA3BF" rx="2.177" transform="rotate(-.361 44.44 73.1)"/>
                            </g>
                            <path fill="#FFAA40" d="M158.287 59.232l.219 81.609c.009 3.274-2.95 5.937-6.609 5.947l-144.979.387c-3.658.01-6.632-2.636-6.64-5.911L.059 59.625c-.013-4.786 5.99-7.616 10.39-4.898l65.216 40.294c2.329 1.408 5.25 1.398 7.569-.028l64.625-40.596c4.385-2.754 10.415.042 10.428 4.835z" transform="translate(36 38)"/>
                            <path fill="#DB8631" d="M155.693 145.193L84.146 96.915c-1.959-1.212-4.436-1.203-6.386.023L1.759 145.081c-.433.274-1.007.145-1.281-.288-.275-.433-.145-1.007.287-1.281L76.767 95.37c2.553-1.605 5.797-1.617 8.362-.031l71.547 48.278c.352.22.516.646.401 1.044-.114.399-.479.673-.893.673-.174 0-.344-.049-.491-.14z" transform="translate(36 38)"/>
                        </g>
                        <text fill="#333" font-family="Helvetica-Bold, Helvetica" font-size="20.16" font-weight="bold" transform="translate(36 38)">
                            <tspan x="59.04" y="30.94">edvi</tspan>
                        </text>
                    </g>
                </g>
                <g transform="translate(-605 -180) translate(605 180) translate(160 138.5)">
                    <ellipse cx="47.5" cy="47" fill="#FFF" rx="47.5" ry="47"/>
                    <path fill="#12B012" fill-rule="nonzero" d="M48 8.5c-21.504 0-39 17.496-39 39s17.496 39 39 39 39-17.496 39-39-17.496-39-39-39zm21.797 28.737l-24.925 24.73c-1.466 1.465-3.812 1.563-5.376.097L26.301 50.04c-1.564-1.466-1.662-3.91-.293-5.473 1.466-1.564 3.91-1.662 5.473-.196l10.459 9.58 22.286-22.287c1.563-1.563 4.007-1.563 5.571 0 1.564 1.564 1.564 4.008 0 5.572z"/>
                </g>
            </g>
        </g>
    </g>
</svg>
