<svg xmlns="http://www.w3.org/2000/svg" width="89" height="91" viewBox="0 0 89 91">
    <g fill="none" fill-rule="evenodd" opacity=".1">
        <g fill="#000" fill-rule="nonzero">
            <g>
                <path d="M88.804 25.91c-3.465-8.38-9.136-15.654-11.814-24.509-.472-1.423-2.835-2.056-3.465-.474-3.78 8.855-9.451 16.92-12.13 26.249-.472 1.739 1.891 3.478 3.151 1.897 1.89-2.372 4.096-4.27 6.3-6.483-.314 13.599 0 27.198-2.362 40.638-1.26 7.274-2.993 15.497-8.191 21.031-6.3 6.641-14.177.633-17.642-5.534-2.993-5.377-8.191-28.621-18.587-20.557-6.144 4.744-7.719 11.227-9.609 18.343-.472 2.055-1.26 3.953-2.205 5.692-3.623 6.8-8.349-4.27-8.506-6.957-.315-5.377 1.26-10.911 2.52-16.13.473-1.58-1.89-2.213-2.52-.632-2.836 7.432-6.774 20.082 0 26.565 5.985 5.535 11.026 1.898 13.389-4.585 1.575-4.27 7.56-27.988 14.492-16.92 4.568 7.274 5.828 15.971 11.341 22.77 3.938 4.744 11.026 5.851 16.54 3.48 6.615-3.005 9.45-11.86 11.183-18.185 4.253-15.813 4.253-32.89 3.78-49.177 3.781 2.53 8.034 4.901 12.287 6.483 1.733.474 2.678-1.74 2.048-3.004zm-20.477-5.692c2.047-4.427 4.568-8.855 6.773-13.283 2.363 5.535 5.356 10.437 8.19 15.813-3.307-2.056-6.457-4.427-10.08-4.902-.788-.158-1.418.316-1.733.949-1.103.158-2.205.632-3.15 1.423z" transform="translate(-1235 -434) translate(1235 434)"/>
            </g>
        </g>
    </g>
</svg>
