<svg width="307" height="265" xmlns="http://www.w3.org/2000/svg" xmlns:xlink="http://www.w3.org/1999/xlink">
    <defs>
        <path d="M85.775 242.072s-107.443-28.166-81.409-116.18c18.144-61.338 62.69-16.294 76.901-83.743C96.732-31.245 226.22-.379 221.992 74.065c-4.229 74.444 147.913 97.507 47.506 160.25-100.407 62.742-183.723 7.757-183.723 7.757z" id="a"/>
    </defs>
    <g fill="none" fill-rule="evenodd">
        <path d="M224.512 74.065C228.74-.379 99.252-31.245 83.788 42.15 69.575 109.599 25.03 64.555 6.886 125.892c-26.034 88.014 81.409 116.18 81.409 116.18s5.822 3.84 16.239 8.334H240.97a211.733 211.733 0 0 0 31.048-16.092c100.407-62.742-51.734-85.805-47.506-160.249z" fill="#ECECF5" fill-rule="nonzero"/>
        <g transform="translate(2.52)">
            <mask id="b" fill="#fff">
                <use xlink:href="#a"/>
            </mask>
            <use fill="#FFF" xlink:href="#a"/>
            <g mask="url(#b)" stroke="#F2F5FF" stroke-width="4.32">
                <g transform="translate(-40.32 -29.88)">
                    <circle cx="53.546" cy="129.712" r="53.419"/>
                    <circle cx="73.113" cy="142.573" r="55.443"/>
                    <circle cx="49.607" cy="123.695" r="43.159"/>
                    <circle cx="218.664" cy="73.405" r="73.139"/>
                    <circle cx="250.804" cy="67.48" r="45.888"/>
                    <circle cx="240.423" cy="66.836" r="61.091"/>
                    <circle cx="266.863" cy="211.568" r="40.805"/>
                    <circle cx="258.166" cy="211.838" r="63.114"/>
                </g>
            </g>
        </g>
        <g fill-rule="nonzero">
            <path d="M33.865 240.789c-.26 3.204-.888 6.444-2.052 9.116-.072.163-.144.324-.22.481h-4.025l-.155-.48h-9.497c-2.92-4.309-5.037-11.02-4.831-19.419.468-19.09-24.75-51.614-6.366-60.336 13.644-6.47 29.59 13.542 25.164 29.513-1.994 7.196-2.37 12.875-2.029 17.22.412 5.3 1.886 8.62 2.79 10.303.679 1.263 1.283 4.743 1.363 8.876a45.724 45.724 0 0 1-.142 4.726z" fill="#4AC6BD"/>
            <path d="M28.944 250.386h-1.377l-.154-.48c-1.01-3.144-2.101-6.415-3.217-9.776-5.768-17.342-11.73-35.277-11.06-45.978a.662.662 0 0 1 .692-.612c.36.022.634.332.612.692-.64 10.276 5.328 28.442 10.722 44.657l.275.828c1.085 3.269 2.144 6.454 3.137 9.52l.216.67c.052.158.103.321.154.48z" fill="#FFF"/>
            <path d="M65.404 217.052c-10.359 10.132-23.94 11.016-27.396 32.853a20.87 20.87 0 0 0-.074.481h-8.649c0-.003-.003-.003-.003-.006-.097-.149-.197-.309-.306-.475a28.023 28.023 0 0 1-.4-.67 27.106 27.106 0 0 1-3.412-10.347c-.476-3.935-.212-8.66 1.588-14.056a71.686 71.686 0 0 1 3.103-7.949c3.586-7.596 5.73-6.749 8.916-20.805 4.007-17.676 6.6-18.147 12.728-16.97 15.522 2.985 24.749 27.34 13.905 37.944z" fill="#50A5A0"/>
            <path d="M53.735 191.535c-6.687 8.055-12.663 26.737-17.932 43.221-.656 2.047-1.3 4.064-1.938 6.034a435.162 435.162 0 0 1-3.034 9.116c-.055.16-.108.324-.166.48H29.28l.002-.005c.055-.158.108-.318.163-.475 1.492-4.28 3-8.956 4.563-13.842.183-.564.363-1.133.547-1.706 5.567-17.408 11.323-35.409 18.172-43.66a.659.659 0 0 1 1.157.36.651.651 0 0 1-.15.477z" fill="#FFF"/>
            <path d="M38.01 249.905a20.87 20.87 0 0 0-.075.481H27.567l-.155-.48H38.01z" fill="#FFF"/>
            <path d="M131.106 62.085 26.99 231.705c-5.089 8.29.877 18.951 10.604 18.951h208.231c9.728 0 15.693-10.66 10.604-18.95L152.313 62.085a12.442 12.442 0 0 0-21.207 0z" fill="#B1B1DB"/>
            <g transform="translate(125.28 98.28)" fill="#FFF">
                <circle cx="15.501" cy="125.219" r="13.863"/>
                <path d="M4.745 98.807H27.45l6.142-87.993s-16.21-24.313-33.51.393l4.662 87.6z"/>
            </g>
            <g>
                <path d="M257.332 245.232a16.74 16.74 0 0 1-1.172 5.206c-.04.093-.082.185-.125.275h-2.299l-.088-.275h-5.423c-1.668-2.46-2.877-6.293-2.76-11.088.268-10.902-14.134-29.476-3.636-34.456 7.792-3.696 16.899 7.732 14.371 16.853-1.139 4.11-1.353 7.353-1.158 9.834a14.58 14.58 0 0 0 1.593 5.884c.388.72.733 2.709.778 5.07.02.9-.007 1.8-.08 2.697z" fill="#4AC6BD"/>
                <path d="M254.523 250.713h-.787l-.088-.275c-.576-1.794-1.2-3.663-1.836-5.582-3.294-9.903-6.698-20.146-6.316-26.258a.373.373 0 1 1 .746.046c-.366 5.869 3.044 16.244 6.123 25.504l.157.472c.62 1.867 1.224 3.686 1.791 5.436l.123.383c.027.09.057.184.087.274z" fill="#FFF"/>
                <path d="M275.343 231.677c-5.915 5.786-13.67 6.291-15.644 18.761-.014.09-.03.18-.042.275h-4.94v-.003c-.056-.085-.113-.177-.175-.272-.072-.12-.15-.247-.229-.382a15.477 15.477 0 0 1-1.948-5.909c-.302-2.71.008-5.453.907-8.028a40.868 40.868 0 0 1 1.772-4.54c2.048-4.338 3.272-3.854 5.091-11.88 2.289-10.094 3.77-10.362 7.27-9.69 8.862 1.703 14.13 15.612 7.938 21.668z" fill="#50A5A0"/>
                <path d="M268.68 217.104c-3.819 4.6-7.232 15.27-10.241 24.682-.374 1.17-.742 2.322-1.107 3.446-.585 1.813-1.16 3.56-1.732 5.206-.031.092-.062.185-.095.275h-.792v-.003l.093-.272c.852-2.443 1.713-5.114 2.606-7.905.104-.321.207-.648.312-.974 3.179-9.941 6.466-20.22 10.378-24.933a.377.377 0 0 1 .662.205.372.372 0 0 1-.084.273z" fill="#FFF"/>
                <path d="M259.7 250.438c-.015.09-.03.18-.043.275h-5.92l-.089-.275h6.051z" fill="#FFF"/>
            </g>
            <g>
                <path d="M40.97 245.232c.11 1.787.505 3.544 1.172 5.206.04.093.081.185.126.275h2.297l.089-.275h5.422c1.667-2.46 2.877-6.293 2.759-11.088-.268-10.902 14.133-29.475 3.636-34.455-7.791-3.696-16.897 7.733-14.37 16.853 1.139 4.11 1.353 7.352 1.158 9.833a14.58 14.58 0 0 1-1.593 5.884c-.387.72-.732 2.709-.778 5.069-.02.9.008 1.8.082 2.698z" fill="#4AC6BD"/>
                <path d="M43.78 250.713h.785l.089-.275c.576-1.794 1.2-3.663 1.836-5.58 3.293-9.903 6.697-20.145 6.315-26.256a.373.373 0 1 0-.746.046c.367 5.868-3.043 16.242-6.122 25.501l-.157.473c-.62 1.866-1.224 3.685-1.792 5.436l-.122.382c-.028.09-.057.183-.087.273z" fill="#FFF"/>
                <path d="M22.96 231.678c5.915 5.786 13.67 6.29 15.643 18.76.015.09.03.18.042.275h4.94s.002 0 .002-.003c.055-.085.112-.177.174-.272.074-.119.15-.247.23-.382a15.48 15.48 0 0 0 1.948-5.909 18.242 18.242 0 0 0-.908-8.028 40.944 40.944 0 0 0-1.772-4.539c-2.047-4.338-3.272-3.854-5.09-11.88-2.29-10.094-3.77-10.362-7.27-9.69-8.863 1.704-14.131 15.612-7.94 21.668z" fill="#50A5A0"/>
                <path d="M29.623 217.106c3.818 4.6 7.23 15.268 10.24 24.68.375 1.17.742 2.322 1.107 3.446.585 1.813 1.16 3.56 1.732 5.206.031.092.062.185.095.275h.792v-.003a33.97 33.97 0 0 1-.093-.272c-.852-2.443-1.713-5.114-2.605-7.904-.105-.322-.208-.648-.313-.974-3.179-9.941-6.466-20.22-10.377-24.933a.376.376 0 0 0-.578.48z" fill="#FFF"/>
                <path d="M38.603 250.438c.015.09.03.18.042.275h5.92l.089-.275h-6.051z" fill="#FFF"/>
            </g>
        </g>
        <path d="M35.82 78.26 20.7 102.888a8.265 8.265 0 0 0 7.043 12.588H57.98a8.265 8.265 0 0 0 7.044-12.588l-15.118-24.63a8.265 8.265 0 0 0-14.085.002z" fill="#EA6868" fill-rule="nonzero"/>
        <g transform="translate(39.96 83.52)" fill="#FFF" fill-rule="nonzero">
            <circle cx="2.964" cy="24.198" r="2.65"/>
            <path d="M.908 19.15h4.34L6.424 2.327S3.324-2.319.017 2.404l.891 16.745z"/>
        </g>
        <path d="m255.444 143.724-9.893 16.116a8.265 8.265 0 0 0 7.043 12.588h19.786a8.264 8.264 0 0 0 7.044-12.588l-9.893-16.117a8.265 8.265 0 0 0-14.087 0z" fill="#EA6868" fill-rule="nonzero"/>
        <g transform="translate(259.92 146.16)" fill="#FFF" fill-rule="nonzero">
            <circle cx="2.619" cy="19.867" r="2.187"/>
            <path d="M.922 15.7h3.582l.969-13.88S2.917-2.015.187 1.882L.922 15.7z"/>
        </g>
        <path d="m190.964 41.93-9.893 16.117a8.265 8.265 0 0 0 7.043 12.588H207.9a8.264 8.264 0 0 0 7.043-12.588l-9.892-16.117a8.264 8.264 0 0 0-14.087 0z" fill="#EA6868" fill-rule="nonzero"/>
        <g transform="translate(195.48 44.28)" fill="#FFF" fill-rule="nonzero">
            <circle cx="2.579" cy="19.953" r="2.187"/>
            <path d="M.882 15.787h3.582l.968-13.88S2.876-1.93.147 1.968l.735 13.819z"/>
        </g>
    </g>
</svg>
