<svg xmlns="http://www.w3.org/2000/svg" xmlns:xlink="http://www.w3.org/1999/xlink" width="373" height="271" viewBox="0 0 373 271">
    <defs>
        <linearGradient id="lqhqnoxx8c" x1="45.104%" x2="59.359%" y1="61.773%" y2="31.649%">
            <stop offset="0%" stop-color="#5ED1CA"/>
            <stop offset="99.3%" stop-color="#D7EEC2"/>
        </linearGradient>
        <linearGradient id="6800hiu25d" x1="0%" x2="100%" y1="49.999%" y2="49.999%">
            <stop offset="0%" stop-color="#5ED1CA"/>
            <stop offset="88.7%" stop-color="#D7EEC2"/>
        </linearGradient>
        <path id="76mlm1kzsa" d="M7.27 268.814l358.249-2.117s23.417-146.802-45.385-154.534C251.33 104.43 265.82 22.197 189.386 3.129 112.95-15.94 90.399 65.169 51.85 125.339 13.3 185.51-12.67 174.744 7.27 268.814z"/>
    </defs>
    <g fill="none" fill-rule="evenodd">
        <g>
            <g>
                <path fill="#FFEAEA" fill-rule="nonzero" d="M9.43 268.814l358.249-2.117s23.417-146.802-45.385-154.534C253.49 104.43 267.98 22.197 191.546 3.129 115.11-15.94 92.559 65.169 54.01 125.339 15.46 185.51-10.51 174.744 9.43 268.814z" transform="translate(-534 -199) translate(534 199)"/>
                <g transform="translate(-534 -199) translate(534 199) translate(2.16)">
                    <mask id="zlyn4q2vnb" fill="#fff">
                        <use xlink:href="#76mlm1kzsa"/>
                    </mask>
                    <use fill="#FFF" xlink:href="#76mlm1kzsa"/>
                    <g stroke="#F2F5FF" stroke-width="5.184" mask="url(#zlyn4q2vnb)">
                        <g transform="translate(-54 -100.224)">
                            <circle cx="82.121" cy="283.815" r="50.47"/>
                            <circle cx="50.868" cy="261.703" r="50.47"/>
                            <circle cx="212.096" cy="163.437" r="79.813"/>
                            <ellipse cx="208.326" cy="147.795" rx="64.348" ry="68.214" transform="rotate(-18.967 208.326 147.795)"/>
                            <ellipse cx="232.508" cy="85.605" rx="64.348" ry="68.214" transform="rotate(-18.967 232.508 85.605)"/>
                            <ellipse cx="380.61" cy="262.047" rx="64.348" ry="68.214" transform="rotate(-18.967 380.61 262.047)"/>
                            <ellipse cx="421.561" cy="256.296" rx="64.348" ry="68.214" transform="rotate(-18.967 421.561 256.296)"/>
                        </g>
                    </g>
                </g>
                <g fill-rule="nonzero" transform="translate(-534 -199) translate(534 199) translate(0 71.712)">
                    <path fill="#4AC6BD" d="M6.396 57.605c12.657-6.004 27.45 12.56 23.345 27.378-4.106 14.818-.82 22.69.708 25.53 1.528 2.843 2.653 17.864-2.61 24.127-5.265 6.263-15.973-3.355-15.538-21.067.435-17.712-22.958-47.878-5.905-55.968z"/>
                    <path fill="#FFF" d="M29.133 141.73c.056 0 .11-.008.164-.023.323-.09.511-.425.422-.748-1.573-5.634-3.703-12.04-5.958-18.823-5.065-15.234-10.806-32.5-10.2-42.193.018-.219-.084-.43-.266-.553-.183-.123-.417-.137-.613-.038s-.324.296-.333.515c-.62 9.929 4.91 26.564 10.26 42.652 2.25 6.768 4.375 13.161 5.94 18.766.073.263.312.444.584.444z"/>
                    <path fill="#50A5A0" d="M47.936 65.913c14.399 2.77 22.956 25.361 12.899 35.2-10.057 9.838-23.394 10.275-25.8 33.45l-6.48-.896s-8.82-9.598-3.574-25.34c5.247-15.74 7.434-10.275 11.15-26.673 3.717-16.397 6.119-16.834 11.805-15.74z"/>
                    <path fill="#FFF" d="M31.1 139.98h.044c.334-.024.585-.314.561-.647-.7-9.817 4.891-49.137 13.126-53.196.301-.148.425-.512.276-.813-.148-.3-.512-.424-.813-.276-9.406 4.635-14.443 45.362-13.799 54.368.023.318.287.565.606.565z"/>
                    <path fill="#C7C7E3" d="M23.4 198.497h15.402l5.748-62.912c.084-.91-.22-1.815-.837-2.49-.617-.677-1.49-1.062-2.405-1.062H20.894c-.915 0-1.788.385-2.405 1.061-.616.676-.92 1.58-.837 2.491l5.749 62.912zM83.996 99.244H91.407V197.003H83.996zM126.799 99.244H134.21V197.003H126.799z"/>
                    <path fill="#E7E6F7" d="M184.959 99.244H245.96800000000002V194.757H184.959z"/>
                    <path fill="#C7C7E3" d="M247.765 196.554h-64.603V97.447h64.603v99.107zm-61.009-3.594h57.413v-91.919h-57.413v91.92z"/>
                    <path fill="#C7C7E3" d="M213.621 99.244H217.30700000000002V194.757H213.621z"/>
                    <circle cx="225.371" cy="145.077" r="2.692" fill="#C7C7E3"/>
                    <circle cx="206.811" cy="145.077" r="2.692" fill="#C7C7E3"/>
                    <path fill="#C7C7E3" d="M67.587 93.245H264.142V108.537H67.587z"/>
                    <path fill="#E7E6F7" d="M60.176 91.481H271.552V101.71499999999999H60.176z"/>
                    <g transform="translate(87.696)">
                        <rect width="129.836" height="84.168" x="10.165" y=".423" fill="#C7C7E3" rx="13.601"/>
                        <rect width="121.871" height="76.734" x="13.882" y="4.141" fill="#ECECF5" rx="9.712"/>
                        <path fill="#C7C7E3" d="M54.772 82.998H96.989V89.37H54.772z"/>
                        <path fill="#C7C7E3" d="M.102 86.184h151.027c.014 0 .026.012.026.026v1.572c0 1.904-1.544 3.447-3.447 3.447H3.523c-1.904 0-3.447-1.543-3.447-3.447V86.21c0-.007.002-.013.007-.018.005-.005.012-.008.019-.008z"/>
                        <g fill="#5F6386">
                            <path d="M-0.777 8.565H25.439V15.372H-0.777z" transform="translate(30.24 20.304) rotate(47.249 12.33 11.968)"/>
                            <path d="M-0.778 8.566H25.438000000000002V15.373000000000001H-0.778z" transform="translate(30.24 20.304) rotate(137.249 12.33 11.97)"/>
                        </g>
                        <g fill="#5F6386">
                            <path d="M8.547 -0.807H15.354000000000001V25.409000000000002H8.547z" transform="translate(94.608 19.44) rotate(-42.751 11.95 12.3)"/>
                            <path d="M-1.157 8.897H25.059V15.704H-1.157z" transform="translate(94.608 19.44) rotate(-42.751 11.95 12.3)"/>
                        </g>
                        <path fill="#5F6386" d="M45.744 53.26H103.626V61.757H45.744z"/>
                    </g>
                    <g>
                        <path fill="url(#lqhqnoxx8c)" d="M10.282 35.182C9.255 28.203 4.329 17.324 2.07 13.527-.187 9.73-2.445-3.51 7.716 1.467c10.16 4.978 8.005 28.276 6.566 33.715h-4z" transform="translate(229.824 48.384)"/>
                        <path fill="url(#6800hiu25d)" d="M26.499 2.956C20.325.709 13.772 9.73 13.259 35.183h4.516S38.917 7.473 26.5 2.956z" transform="translate(229.824 48.384)"/>
                        <path fill="#B0B0D6" d="M13.26 35.467c-.087 0-.17-.039-.224-.107-.054-.067-.074-.156-.055-.24 1.08-4.789.224-12.09-2.29-19.527C8.259 8.39 4.858 2.849 1.816 1.131c-.133-.08-.178-.25-.102-.385s.246-.184.383-.111c3.158 1.783 6.659 7.445 9.136 14.774 2.546 7.535 3.408 14.95 2.306 19.837-.03.13-.145.222-.279.221zM15.522 35.467c-.018 0-.035-.001-.052-.005-.155-.028-.257-.176-.229-.331 1.531-8.349 10.188-29.506 10.276-29.718.062-.14.225-.206.368-.148.143.059.213.22.159.364-.086.213-8.722 21.314-10.242 29.604-.025.135-.143.234-.28.234z" transform="translate(229.824 48.384)"/>
                        <path fill="#EEEDFF" d="M19.36 42.56H7.158l-5.436-9.496c-.174-.305-.266-.65-.266-1 0-.534.212-1.046.59-1.424.378-.377.89-.59 1.424-.59h19.578c.534 0 1.047.213 1.424.59.378.378.59.89.59 1.424 0 .35-.092.695-.266 1L19.36 42.56z" transform="translate(229.824 48.384)"/>
                    </g>
                </g>
            </g>
        </g>
    </g>
</svg>
