<svg xmlns="http://www.w3.org/2000/svg" xmlns:xlink="http://www.w3.org/1999/xlink" width="190" height="200" viewBox="0 0 190 200">
    <defs>
        <ellipse id="gm3rczdbva" cx="95" cy="94.697" rx="95" ry="94.568"/>
    </defs>
    <g fill="none" fill-rule="evenodd">
        <g>
            <g transform="translate(-85.000000, -1546.000000) translate(85.000000, 1547.000000)">
                <g transform="translate(0.000000, 8.507463)">
                    <mask id="wyq07t96vb" fill="#fff">
                        <use xlink:href="#gm3rczdbva"/>
                    </mask>
                    <use fill="#EBECFA" xlink:href="#gm3rczdbva"/>
                    <g mask="url(#wyq07t96vb)">
                        <g>
                            <g transform="translate(-13.818182, -11.227273) translate(0.000000, 0.128901)">
                                <g fill-rule="nonzero">
                                    <g>
                                        <g>
                                            <g>
                                                <path fill="#FFAA40" d="M9.967 59.269s3.498-8.704 2.701-14.465c-.797-5.761-.706-6.977 2.402-10.413 3.109-3.437 4.94-6.153 3.055-10.977-1.886-4.823-1.142-6.602 1.966-10.038C23.2 9.94 24.183 4.921 19.962 1.35 15.742-2.22 8.27 2.32 7.04 7.93c-1.23 5.613 1.496 10.092-3.602 15.621-5.099 5.53-1.344 9.88-.367 13.212.977 3.33-3.912 6.025-2.875 8.545 1.037 2.52 7.64 20.728 9.772 13.96z" transform="translate(0.000000, 96.527851) translate(27.334478, 13.289008)"/>
                                                <path fill="#30354F" d="M7.958 59.389c.824-1.486.933-3.171.918-4.837-.018-1.896-.19-3.788-.512-5.657-.655-3.817-2.51-7.782-1.498-11.693.787-3.042 2.911-5.495 4.122-8.355.644-1.495.93-3.119.836-4.744-.112-1.996-.506-3.946-.154-5.944.752-4.264 3.631-7.669 6.398-10.829.185-.211-.124-.522-.31-.31-2.34 2.673-4.707 5.449-5.924 8.84-.618 1.716-.862 3.545-.715 5.363.145 1.897.506 3.782.062 5.67-.74 3.143-2.964 5.659-4.192 8.6-.648 1.52-.932 3.17-.83 4.82.117 1.85.614 3.645 1.067 5.433.588 2.24.968 4.529 1.137 6.838.142 2.167.304 4.62-.785 6.584-.137.247.242.467.379.221z" transform="translate(0.000000, 96.527851) translate(27.334478, 13.289008)"/>
                                            </g>
                                            <path fill="#5F6386" d="M25.745 74.198s-5.998-10.434-6.013-17.896c-.016-7.462-.347-8.99-4.91-12.802-4.562-3.813-7.374-6.937-5.84-13.401 1.535-6.465.274-8.591-4.289-12.403C.131 13.883-2.013 7.682 2.712 2.394c4.725-5.288 15.027-.851 17.592 6.06 2.566 6.911-.1 13.086 7.364 19.203 7.464 6.118 3.47 12.314 2.823 16.72-.646 4.406 6.045 6.958 5.177 10.345-.867 3.387-6.007 27.694-9.923 19.476z" transform="translate(0.000000, 96.527851)"/>
                                            <path fill="#30354F" d="M28.695 73.663c-1.467-1.884-1.783-4.414-2.03-6.713-.285-2.64-.334-5.3-.149-7.948.178-2.527.614-5.035.671-7.57.052-2.304-.274-4.577-1.271-6.671-1.701-3.57-4.755-6.248-6.692-9.67-.496-.859-.89-1.772-1.173-2.723-.344-1.189-.455-2.423-.51-3.655-.059-1.294-.062-2.594-.222-3.881-.14-1.134-.412-2.247-.808-3.318-1.655-4.49-5.104-7.948-8.629-11.046-.455-.4-.913-.798-1.372-1.193-.213-.184-.525.125-.31.31 3.624 3.127 7.34 6.42 9.388 10.843.499 1.067.873 2.187 1.116 3.34.254 1.227.31 2.48.353 3.73.044 1.27.08 2.546.298 3.8.178.993.482 1.958.905 2.872 1.643 3.595 4.697 6.28 6.67 9.67 1.135 1.949 1.758 4.152 1.814 6.406.084 2.54-.328 5.062-.568 7.584-.253 2.635-.273 5.287-.062 7.925.185 2.296.405 4.768 1.425 6.869.234.478.517.93.846 1.349.173.222.481-.09.31-.31z" transform="translate(0.000000, 96.527851)"/>
                                        </g>
                                        <g>
                                            <g>
                                                <path fill="#9FA3BF" d="M6.21 84.226s-2.906-12.944-.485-20.808c2.422-7.863 2.573-9.58-.987-15.083s-5.5-9.71-1.772-16.018c3.729-6.307 3.095-8.958-.464-14.461-3.56-5.503-3.791-12.734 2.913-16.761 6.704-4.028 16.104 4.004 16.547 12.119.443 8.114-4.381 13.748 1.48 22.625 5.862 8.877-.37 14.1-2.49 18.529s4.093 9.299 2.073 12.583C21.005 70.235 7.649 94.158 6.21 84.226z" transform="translate(0.000000, 96.527851) translate(171.754071, 3.212727) translate(18.856404, 0.000000)"/>
                                                <path fill="#30354F" d="M9.49 84.68c-.958-2.547-.447-5.37.069-7.957.534-2.676 1.288-5.304 2.254-7.857 1.771-4.676 4.657-9.292 4.293-14.478-.327-4.656-2.906-8.728-3.949-13.21-.274-1.13-.41-2.29-.406-3.453.018-1.337.29-2.649.622-3.94.334-1.294.728-2.574.994-3.886.26-1.278.37-2.582.324-3.886-.194-5.362-2.741-10.227-5.482-14.708-.352-.576-.708-1.15-1.067-1.723-.15-.239-.529-.019-.379.221 2.84 4.55 5.75 9.335 6.38 14.772.156 1.297.16 2.607.014 3.905-.16 1.355-.525 2.674-.884 3.987-.344 1.26-.687 2.524-.854 3.822-.144 1.143-.135 2.299.025 3.44.628 4.616 3.261 8.666 4.051 13.244.43 2.494.091 4.965-.683 7.357-.796 2.463-1.951 4.787-2.93 7.177-1.027 2.503-1.846 5.085-2.45 7.72-.569 2.483-1.161 5.168-.823 7.723.082.63.235 1.25.458 1.846.098.262.522.149.423-.117z" transform="translate(0.000000, 96.527851) translate(171.754071, 3.212727) translate(18.856404, 0.000000)"/>
                                            </g>
                                            <g>
                                                <path fill="#FFAA40" d="M29.567 59.733s-1.178-9.967-4.882-14.972c-3.705-5.004-4.243-6.192-3.086-11.012 1.158-4.82 1.486-8.31-2.76-11.875-4.245-3.567-4.46-5.618-3.302-10.437 1.158-4.82-.493-10.039-6.29-11.232C3.45-.99-1.24 7.1.482 13.003c1.723 5.902 6.581 8.714 4.628 16.519-1.953 7.805 3.807 9.97 6.433 12.6 2.626 2.628-.585 7.662 1.682 9.5 2.268 1.836 17.81 15.56 16.342 8.111z" transform="translate(0.000000, 96.527851) translate(171.754071, 3.212727) translate(0.000000, 24.387521)"/>
                                                <path fill="#E08716" d="M27.725 60.868c.043-1.981-.918-3.799-1.882-5.469-.99-1.715-2.115-3.35-3.362-4.89-1.173-1.45-2.489-2.77-3.73-4.161-1.181-1.326-2.307-2.756-2.99-4.41-1.48-3.595-.478-7.547-.853-11.296-.081-.913-.27-1.814-.562-2.683-.319-.87-.74-1.698-1.252-2.47-1.037-1.61-2.24-3.098-2.91-4.913-1.46-3.945-.855-8.236-.002-12.242.11-.517.225-1.033.34-1.55.062-.274-.36-.391-.422-.116-.897 4.015-1.76 8.198-.847 12.293.209.947.522 1.869.934 2.747.42.848.909 1.66 1.46 2.43.533.775 1.082 1.541 1.547 2.36.477.835.828 1.736 1.04 2.673.842 3.73-.25 7.608.615 11.34.83 3.582 3.61 6.113 5.98 8.739 1.337 1.48 2.554 3.065 3.638 4.739.55.849 1.067 1.72 1.544 2.612.477.893.904 1.82 1.128 2.809.109.478.159.967.148 1.457-.006.282.432.282.439 0z" transform="translate(0.000000, 96.527851) translate(171.754071, 3.212727) translate(0.000000, 24.387521)"/>
                                            </g>
                                        </g>
                                    </g>
                                </g>
                                <g fill-rule="nonzero">
                                    <g>
                                        <g transform="translate(33.473772, 69.365702) translate(68.555455, 0.000000)">
                                            <path fill="#EB8F90" d="M14.537 76.053s-1.676-1.139-3.355-1.15c-1.678-.01-2.815.189-4.49-.79-1.677-.98-2.515 1.034-1.021 1.817 1.494.784 4.052 1.682 2.457 3.175-1.595 1.493-7.105.867-5.801 4.006 0 0-2.542.328-2.295 1.416.246 1.088 2.55.805 2.55.805s-1.386 2.725 4.36.968c0 0 .067 1.43 1.222 1.234 1.847-.315 5.374-2.61 7.556-5.14 3.546-4.11-1.183-6.34-1.183-6.34z"/>
                                            <path fill="#D16B70" d="M8.872 81.166c-4.969 2.244-6.5 2.08-6.562 2.072l.033-.255-.016.128.016-.128c.014.002 1.553.148 6.422-2.051l.107.234zM9.356 83.101c-2.522 1.407-6.705 2.346-6.746 2.356l-.056-.252c.041-.009 4.187-.94 6.676-2.328l.126.224zM10.485 84.532c-1.506.857-3.464 1.871-3.484 1.881l-.118-.228c.02-.01 1.973-1.021 3.474-1.876l.128.223z"/>
                                            <path fill="#FFAA40" d="M14.074 75.619s28.533-23.586 34.41-15.234c6.627 9.418-32.266 21.259-32.266 21.259s-3-.906-2.144-6.025z"/>
                                            <path fill="#FFAA40" d="M52.026 31.433s-3.968 7.352-7.704 15.365c-4.141 8.884-7.88 18.634-3.075 21.248 10.579 5.756 21.54-31.879 21.54-31.879.799-6.123-7.022-8.688-10.761-4.734z"/>
                                            <path fill="#5F6386" d="M38.132 140.871c-4.663-1.33-7.504-6.145-6.46-10.968 4.426-20.424 9.596-40.484 14.201-55.463h20.574c-5.328 17.04-12.302 41.838-17.036 59.87-1.315 5.009-6.384 7.958-11.28 6.561z"/>
                                            <path fill="#5F6386" d="M42.866 123.576c-5.043-1.44-10.234 1.75-11.341 6.972-3.737 17.625-8.828 40.396-11.121 51.725l14.889 4.25c2.881-12.832 9.77-35.765 13.913-51.623 1.282-4.909-1.545-9.955-6.34-11.324zM72.76 141.198c-4.843 0-8.85-3.856-9.117-8.788-1.132-20.885-1.629-42.279-1.15-57.97h19.98c-.63 17.874-.786 38.673-.584 57.339.056 5.185-4.047 9.419-9.13 9.419z"/>
                                            <path fill="#5F6386" d="M72.752 123.24c-5.237 0-9.393 4.499-9.08 9.832 1.054 18 2.558 40.236 3.341 51.777h15.46c-.613-13.149-.427-36.035-.626-52.445-.061-5.08-4.116-9.163-9.095-9.163z"/>
                                            <path fill="#FFAA40" d="M45.855 74.44s.465-41.37 10.632-47.26c5.829-3.375 17.893-2.459 24.045 2.206 6.208 4.707 1.823 45.053 1.823 45.053h-36.5z"/>
                                            <path fill="#E08716" d="M45.98 67.886l-.512-.053c.01-.085.93-8.588 4.538-15.849l.46.229C46.9 59.392 45.99 67.802 45.98 67.886z"/>
                                            <path fill="#FFAA40" d="M70.756 34.962s1.743 8.287 4.08 16.926c2.591 9.58 6.033 19.557 11.27 18.375 11.53-2.6-4.336-38.808-4.336-38.808-3.312-5.237-10.759-2.015-11.014 3.507z"/>
                                            <path fill="#FFAA40" d="M72.727 49.11c5.969.029 10.504 3.373 15.695.78l-4.598-17.094c-1.723-3.769-5.933-5.632-9.809-4.342l-6.557 2.182 5.27 18.474z"/>
                                            <path fill="#D16B70" d="M48.32 51.857c-4.464-1.86-5.288-2.983-5.32-3.03l.21-.148-.105.073.104-.074c.008.01.847 1.124 5.21 2.941l-.099.238zM47.367 53.421c-2.44-.772-5.582-2.947-5.614-2.969l.147-.21c.031.021 3.143 2.174 5.545 2.935l-.078.244zM47.129 55.088c-1.466-.449-3.308-1.098-3.327-1.105l.086-.242c.018.006 1.855.654 3.316 1.101l-.075.246z"/>
                                            <path fill="#E08716" d="M38.646 59.386L38.856 58.915 43.607 61.005 43.396 61.476z"/>
                                            <path fill="#FFC57D" d="M73.284 40.101L73.284 40.101 73.287 52.091 73.287 52.091z" transform="translate(73.285411, 46.095970) rotate(-14.989000) translate(-73.285411, -46.095970)"/>
                                            <path fill="#E08716" d="M65.35 34.81c-.6-.001-1.196-.062-1.783-.182-5.117-1.023-6.238-7.633-6.283-7.915l.508-.081c.01.065 1.11 6.539 5.876 7.492 4.395.878 8.061-1.666 10.897-7.563l.464.223c-2.565 5.335-5.816 8.027-9.68 8.027z"/>
                                            <path fill="#5F6386" d="M53.812 96.803l14.905.6-1.765-13.205s-5.688-.2-7.06-.2c-1.373 0-6.08 12.805-6.08 12.805z"/>
                                            <path fill="#30354F" d="M64.136 90.448L58.228 88.785 60.422 74.954 60.93 75.034 58.808 88.414 64.276 89.953z"/>
                                            <path fill="#30354F" d="M79.108 74.29L79.108 74.29 79.113 89.708 79.113 89.708z" transform="translate(79.110928, 81.998920) rotate(-20.848000) translate(-79.110928, -81.998920)"/>
                                            <path fill="#30354F" d="M36.486 82.595L55.056 82.603 55.056 82.603 36.486 82.595z" transform="translate(45.770634, 82.599075) rotate(-59.554000) translate(-45.770634, -82.599075)"/>
                                            <path fill="#EB8F90" d="M65.057 32.62c-4.024 0-5.858-4.696-4.777-5.776.324-.342.581-.74.76-1.175h.002c.273-.652.457-1.338.547-2.04l.003-.002 7.438-6.629c-.401 4.22 1.407 7.184 2.062 9.294.653 2.11-1.459 6.328-6.035 6.328z"/>
                                            <path fill="#E56542" d="M67.725 21.989c-2.133 4.076-6.559 3.671-6.683 3.68.273-.653.457-1.338.547-2.04l.003-.002c.2-.116 8.132-5.459 6.133-1.638z"/>
                                            <path fill="#8E3332" d="M76.388 9.415s-.32 3.852-5.927 7.82c-5.878 4.161.813-8.627.813-8.627l5.114.807z"/>
                                            <path fill="#EB8F90" d="M61.083 7.1s-.793 3.32-1.822 7.046c-1.471 5.326-1.597 9.633 3.834 9.633 9.121 0 8.514-15.121 8.514-15.121L61.083 7.1z"/>
                                            <path fill="#EB8F90" d="M72.474 12.702c1.437.587.44 4.238-2.69 4.597-2.413.276.478-5.501 2.69-4.597z"/>
                                            <circle cx="65.767" cy="13.867" r="1" fill="#8E3332"/>
                                            <circle cx="61.264" cy="12.773" r="1" fill="#8E3332"/>
                                            <path fill="#8E3332" d="M62.138 17.99c-.283.01-.549-.138-.687-.386-.122-.253-.049-.61.39-.836.291-.147.461-.458.429-.782l.509-.074c.065.542-.215 1.067-.702 1.314-.117.06-.175.128-.162.155.034.069.21.145.427.047l.211.469c-.13.06-.271.091-.415.092z"/>
                                            <path fill="#FFF" d="M60.543 19.335l3.078.466s-.513 2.003-1.912 1.77c-1.4-.232-1.166-2.236-1.166-2.236z"/>
                                            <path fill="#8E3332" d="M67.693 12.777c-.274-.634-.865-1.073-1.551-1.154l.026-.513c.88.087 1.644.645 1.995 1.456l-.47.211zM62.68 10.955c-.855-.606-2.05-.335-2.063-.332l-.118-.5c.058-.014 1.43-.33 2.478.413l-.298.419z"/>
                                            <path fill="#8E3332" d="M66.169 16.702c-1.454 0-2.633-1.178-2.633-2.63 0-1.453 1.179-2.63 2.633-2.63s2.633 1.177 2.633 2.63c-.002 1.451-1.18 2.628-2.633 2.63zm0-5.004c-.961 0-1.827.579-2.195 1.465-.368.887-.164 1.908.515 2.587.68.679 1.701.882 2.589.514.888-.367 1.466-1.233 1.466-2.193-.001-1.31-1.064-2.371-2.375-2.373zM60.424 15.44c-1.065 0-2.025-.642-2.433-1.625-.407-.983-.182-2.114.571-2.866.753-.752 1.886-.977 2.87-.57.983.407 1.625 1.366 1.625 2.43-.002 1.452-1.18 2.629-2.633 2.63zm0-5.004c-.961 0-1.827.578-2.195 1.465-.368.887-.164 1.907.515 2.586.68.679 1.701.882 2.589.515.888-.368 1.466-1.233 1.466-2.193-.001-1.31-1.064-2.372-2.375-2.373z"/>
                                            <path fill="#8E3332" d="M63.217 13.012L63.217 13.012 63.217 13.917 63.217 13.917z" transform="translate(63.217381, 13.464448) rotate(-74.050000) translate(-63.217381, -13.464448)"/>
                                            <path fill="#8E3332" d="M60.721 9.156s5.304 2.51 10.888-.497l4.78.756s-1.33-3.916-4.686-5.44C68.347 2.453 59.653 2.91 60.72 9.157z"/>
                                            <ellipse cx="77.955" cy="6.413" fill="#8E3332" rx="6.405" ry="6.399"/>
                                            <path fill="#FFAA40" d="M54.998 52.327s36.424 4.413 34.437 14.639c-2.241 11.53-37.3-8.808-37.3-8.808s-1.398-2.852 2.863-5.831z"/>
                                            <path fill="#E08716" d="M60.881 56.95L60.881 56.95 60.885 68.812 60.885 68.812z" transform="translate(60.883329, 62.881134) rotate(-65.568000) translate(-60.883329, -62.881134)"/>
                                            <g>
                                                <path fill="#A8ADC1" d="M.445 17.296S3.713 6.638 1.02.109c0 0 9.9 9.601 10.38 15.362.48 5.761-3.556 7.874-3.556 7.874l-7.4-6.05z" transform="translate(15.786757, 27.454215)"/>
                                                <path fill="#C7C7E3" d="M1.31 17.296S4.577 6.638 1.886.109c0 0 9.9 9.601 10.38 15.362.48 5.761-3.556 7.874-3.556 7.874l-7.4-6.05z" transform="translate(15.786757, 27.454215)"/>
                                                <path fill="#D3D3EA" d="M3.713 17.296S6.98 6.638 4.289.109c0 0 9.9 9.601 10.38 15.362.48 5.761-3.556 7.874-3.556 7.874l-7.4-6.05z" transform="translate(15.786757, 27.454215)"/>
                                                <path fill="#C7C7E3" d="M2.27 15.76s12.495-8.066 25.085-7.01l8.65 22.275S19.666 33.714 10.44 39.86l-8.17-24.1z" transform="translate(15.786757, 27.454215)"/>
                                                <path fill="#A8ADC1" d="M1.694 17.392s12.494-8.066 25.084-7.01l8.65 22.276S19.09 35.346 9.863 41.49l-8.169-24.1z" transform="translate(15.786757, 27.454215)"/>
                                                <path fill="#9FA3BF" d="M5.44 15.799c.61 0 1.105.495 1.105 1.105l.008 24.802c0 .61-.495 1.104-1.105 1.104s-1.105-.495-1.106-1.105l-.007-24.801c0-.61.494-1.105 1.104-1.105z" transform="translate(15.786757, 27.454215) translate(5.443844, 29.304671) rotate(-18.784000) translate(-5.443844, -29.304671)"/>
                                            </g>
                                            <path fill="#EB8F90" d="M55.058 52.329s-.28-1.843-1.292-2.965c-1.01-1.122-1.827-1.747-2.212-3.488-.384-1.741-2.192-1.006-1.79.489.4 1.494 1.37 3.768-.56 3.668-1.93-.1-4.865-4.16-6.1-1.28 0 0-1.752-1.477-2.305-.616-.552.86 1.028 2.209 1.028 2.209s-2.599.828 2.018 3.515c0 0-.882.962-.055 1.602 1.322 1.024 4.94 1.893 7.895 1.718 4.802-.283 3.373-4.852 3.373-4.852z"/>
                                        </g>
                                        <g transform="translate(33.473772, 69.365702) translate(0.000000, 6.279421)">
                                            <path fill="#FD8B66" d="M71.603 24.7S48.59 51.38 56.33 57.09c8.726 6.435 20.91-30.26 20.91-30.26s-.78-2.86-5.637-2.13z"/>
                                            <path fill="#FD8B66" d="M34.724 33.003s7.113 3.315 14.424 7.26c8.106 4.371 16.399 9.623 14.272 14.295-4.682 10.286-34.09-11.936-34.09-11.936-4.047-4.17.366-10.5 5.394-9.619zM70.199 26.379s-1.174-1.798-1.15-3.57c.025-1.774.261-2.969-.743-4.764-1.005-1.794 1.153-2.63 1.954-1.031.8 1.597 1.7 4.32 3.32 2.673 1.622-1.647 1.075-7.481 4.383-6.026 0 0 .404-2.675 1.554-2.389 1.15.287.8 2.714.8 2.714s2.926-1.396.935 4.63c0 0 1.519.105 1.285 1.32-.374 1.942-2.889 5.61-5.624 7.85-4.447 3.643-6.714-1.407-6.714-1.407z"/>
                                            <path fill="#80C2C1" d="M47.072 37.72c-1.25 4.917-3.643 9.829-7.178 14.736L24.785 40.648l5.805-10.05 16.482 7.122z"/>
                                            <path fill="#E26847" d="M75.785 20.54l-.307-.148c2.434-5.07 2.317-6.698 2.315-6.714l.34-.035c.006.067.148 1.697-2.348 6.896zM77.83 21.102l-.294-.173c1.527-2.59 2.604-6.94 2.615-6.983l.33.08c-.01.045-1.099 4.443-2.651 7.076zM79.326 22.33l-.293-.176c.941-1.562 2.058-3.6 2.07-3.62l.298.163c-.011.02-1.131 2.064-2.075 3.632z"/>
                                            <path fill="#5F6386" d="M49.197 138.26c4.39-1.254 7.064-5.785 6.081-10.325-4.166-19.227-9.033-38.11-13.368-52.212H22.542c5.016 16.04 11.58 39.386 16.037 56.36 1.239 4.715 6.01 7.491 10.618 6.176z"/>
                                            <path fill="#5F6386" d="M44.74 121.978c4.748-1.355 9.634 1.648 10.677 6.564 3.518 16.59 8.31 38.027 10.468 48.692l-14.016 4c-2.712-12.079-9.198-33.668-13.097-48.596-1.207-4.621 1.454-9.371 5.969-10.66zM16.6 138.566c4.558 0 8.33-3.629 8.581-8.272 1.066-19.66 1.534-39.8 1.082-54.573H7.455c.594 16.827.74 36.407.55 53.978-.052 4.882 3.81 8.867 8.595 8.867z"/>
                                            <path fill="#5F6386" d="M16.607 121.662c4.93 0 8.842 4.235 8.548 9.255-.993 16.945-2.409 37.877-3.146 48.742H7.455c.578-12.378.402-33.924.59-49.37.057-4.783 3.874-8.627 8.562-8.627z"/>
                                            <path fill="#80C2C1" d="M41.927 75.722s-.438-38.944-10.01-44.488c-5.486-3.178-16.843-2.315-22.634 2.076-5.845 4.431-1.717 42.412-1.717 42.412h34.36z"/>
                                            <path fill="#FD8B66" d="M33.32 54.906S-.97 59.06.901 68.686c2.11 10.855 35.113-8.291 35.113-8.291s1.316-2.685-2.696-5.49z"/>
                                            <path fill="#FD8B66" d="M18.485 38.56s-1.64 7.8-3.84 15.933c-2.44 9.018-5.68 18.41-10.61 17.298-10.854-2.449 4.082-36.534 4.082-36.534 3.118-4.93 10.128-1.896 10.368 3.302zM31.193 55.198s.33-2.16 1.515-3.475c1.185-1.314 2.142-2.048 2.593-4.088.451-2.04 2.57-1.179 2.1.573-.47 1.752-1.608 4.417.654 4.3 2.263-.118 5.705-4.877 7.152-1.501 0 0 2.054-1.73 2.702-.722.647 1.01-1.205 2.59-1.205 2.59s3.047.971-2.366 4.12c0 0 1.034 1.128.065 1.879-1.55 1.2-5.792 2.219-9.255 2.014-5.63-.333-3.955-5.69-3.955-5.69z"/>
                                            <path fill="#80C2C1" d="M16.63 51.878C11.01 51.905 5.864 50.34.978 47.9l5.205-11.38c1.623-3.548 5.586-5.302 9.234-4.088l6.173 2.055-4.96 17.39z"/>
                                            <path fill="#E26847" d="M39.1 54.664l-.132-.315c5.105-2.127 6.09-3.429 6.1-3.442l.277.197c-.038.055-1.008 1.377-6.246 3.56zM40.215 56.497l-.103-.324c2.813-.891 6.458-3.413 6.495-3.438l.194.28c-.037.025-3.724 2.576-6.586 3.482zM40.495 58.451l-.1-.325c1.711-.524 3.864-1.284 3.886-1.291l.113.321c-.021.007-2.18.77-3.9 1.295z"/>
                                            <path fill="#FD8B66" d="M23.653 35.868c3.982 0 5.797-4.745 4.727-5.836-.32-.347-.575-.749-.751-1.187h-.003c-.27-.66-.452-1.353-.54-2.061l-.004-.003-7.36-6.698c.397 4.264-1.392 7.259-2.041 9.391-.646 2.132 1.444 6.394 5.972 6.394z"/>
                                            <path fill="#D16B70" d="M21.013 25.126c2.111 4.118 6.49 3.71 6.613 3.719-.27-.66-.452-1.353-.54-2.061l-.004-.003c-.199-.116-8.047-5.516-6.069-1.655z"/>
                                            <path fill="#8E3332" d="M12.441 12.42s.316 3.892 5.864 7.903c5.817 4.204-.803-8.718-.803-8.718l-5.06.815z"/>
                                            <path fill="#FD8B66" d="M27.585 10.081s.786 3.355 1.804 7.12c1.456 5.382 1.58 9.734-3.794 9.734-9.026 0-8.425-15.28-8.425-15.28l10.415-1.574z"/>
                                            <path fill="#8E3332" d="M20.072 13.381s13.534-.31 11.668-9.647c-1.866-9.338-7.174 2.236-9.927 2.236-3.229 0-12.023.48-8.795 8.32.838 2.036 2.177-.59 7.054-.909z"/>
                                            <path fill="#3B9E9D" d="M39.638 51.75c-.009-.079-.867-7.983-4.214-14.72l.61-.304c3.404 6.851 4.273 14.873 4.282 14.954l-.678.07z"/>
                                            <path fill="#E26847" d="M55.191 41.363L55.191 41.363 55.194 46.233 55.194 46.233z" transform="translate(55.192453, 43.798092) rotate(-57.671000) translate(-55.192453, -43.798092)"/>
                                            <path fill="#E26847" d="M9.161 59.791L13.444 59.793 13.444 59.793 9.161 59.791z" transform="translate(11.302540, 59.792137) rotate(-19.390000) translate(-11.302540, -59.792137)"/>
                                            <path fill="#3B9E9D" d="M10.462 49.034L21.749 49.037 21.749 49.051 10.462 49.049z" transform="translate(16.105380, 49.042661) rotate(-75.000000) translate(-16.105380, -49.042661)"/>
                                            <path fill="#3B9E9D" d="M23.57 38.516c-3.675 0-6.763-2.553-9.196-7.612l.614-.295c2.648 5.505 6.059 7.883 10.15 7.065 4.425-.885 5.444-6.911 5.454-6.972l.673.108c-.043.267-1.11 6.555-5.993 7.532-.56.114-1.13.172-1.701.174zM16.14 49.272c-5.002-.283-13.09-4.474-13.432-4.652l.315-.604c.082.043 8.301 4.301 13.155 4.576l-.039.68zM39.602 48.195l-.546-.409c2.342-3.124 5.185-11.13 5.214-11.21l.643.226c-.118.333-2.907 8.186-5.31 11.393z"/>
                                            <path fill="#5F6386" d="M34.437 96.775l-14.032.565 1.662-12.432s5.354-.188 6.646-.188c1.293 0 5.724 12.055 5.724 12.055z"/>
                                            <path fill="#30354F" d="M24.744 90.887L24.559 90.231 29.622 88.806 27.638 76.297 28.311 76.191 30.39 89.298z"/>
                                            <path fill="#30354F" d="M3.363 82.828L17.877 82.833 17.877 82.847 3.363 82.843z" transform="translate(10.620044, 82.837730) rotate(-69.149000) translate(-10.620044, -82.837730)"/>
                                            <path fill="#30354F" d="M41.997 74.659L42.011 74.659 42.018 92.14 42.004 92.14z" transform="translate(42.007558, 83.399571) rotate(-30.437000) translate(-42.007558, -83.399571)"/>
                                            <ellipse cx="18.143" cy="21.574" fill="#FD8B66" rx="2.723" ry="2.778"/>
                                            <path fill="#FFF" d="M28.62 21.527l-2.861.376s.278 2.59 1.846 2.355c1.569-.236 1.016-2.731 1.016-2.731z"/>
                                            <circle cx="24.043" cy="15.805" r="1" fill="#8E3332"/>
                                            <circle cx="27.283" cy="15.075" r="1" fill="#8E3332"/>
                                            <path fill="#8E3332" d="M26.819 19.844c-.298-.003-.59-.07-.86-.196l.286-.62c.629.29 1.176.049 1.313-.23.117-.236-.064-.509-.486-.73-1.031-.545-1.621-1.667-1.486-2.825l.675.095c-.007.058-.177 1.444 1.128 2.127.93.488 1.002 1.186.781 1.635-.21.427-.727.744-1.351.744zM22.592 14.947l-.624-.275c.3-.716.967-1.21 1.74-1.29l.036.68-.018-.34.02.34c-.516.066-.957.403-1.154.885zM26.182 13.507l-.4-.551c.904-.654 2.083-.378 2.132-.365l-.16.662c-.01-.003-.926-.212-1.572.254z"/>
                                            <path fill="#5F6386" d="M69.71 9.79l5.298.002c1.95.004 3.53 1.584 3.534 3.534l.007 15.696c.004 1.951-1.577 3.534-3.528 3.534-.001 0-.002 0-.003-.003l-5.298-.002c-1.95-.004-3.53-1.584-3.534-3.534L66.18 13.32c-.004-1.951 1.577-3.534 3.528-3.534.001 0 .002 0 .003.003z" transform="translate(72.363957, 21.171499) rotate(-34.036000) translate(-72.363957, -21.171499)"/>
                                        </g>
                                    </g>
                                </g>
                                <path fill="#494E6D" fill-rule="nonzero" d="M132.72 50.984s1.883-2.344 4.63.409c2.747 2.752 2.341 4.628.228 4.86-2.114.231-7.947-2.794-4.857-5.27zM29.53 89.034s1.34-1.67 3.299.292c1.958 1.962 1.669 3.3.162 3.464-1.507.165-5.664-1.991-3.462-3.756z"/>
                                <path fill="#FFAA40" fill-rule="nonzero" d="M120.548 6.431s-2.205-2.168.901-4.69c3.107-2.523 4.987-1.914 5.004.273.017 2.186-3.69 7.835-5.905 4.417zM202.801 92.02s.802-2.987 4.53-1.531c3.728 1.455 4.124 3.39 2.23 4.483-1.895 1.093-8.644.658-6.76-2.953zM83.327 91.72s-2.75-1.419-.53-4.747c2.218-3.33 4.194-3.303 4.86-1.22.664 2.082-1.201 8.576-4.33 5.967zM108.535 134.533s-2.75-1.419-.53-4.748c2.218-3.328 4.195-3.302 4.86-1.22.664 2.083-1.201 8.577-4.33 5.968z"/>
                                <path fill="#494E6D" fill-rule="nonzero" d="M64.295 51.573s1.342-1.67 3.3.292c1.958 1.962 1.67 3.299.162 3.464-1.506.165-5.664-1.992-3.462-3.756zM136.139 154.197s1.341-1.67 3.3.292c1.957 1.963 1.668 3.3.162 3.465-1.507.165-5.665-1.992-3.462-3.757z"/>
                                <ellipse cx="139.268" cy="84.343" stroke="#494E6D" stroke-width=".54" rx="4.421" ry="4.416"/>
                            </g>
                            <path fill="#FFC57D" fill-rule="nonzero" d="M179.453 127.083c-9.738-3.138-22.147-4.612-22.271-4.627l.07-.554c.124.014 12.592 1.496 22.384 4.652l-.183.53z" transform="translate(-13.818182, -11.227273)"/>
                        </g>
                    </g>
                </g>
                <g fill-rule="nonzero" transform="translate(64.772727, 1.727273)">
                    <path fill="#FFAA40" d="M49.918 31.928c.354 5.294-2.609 11.071-6.005 14.47-1.193 1.194-3.886 4.589-4.77 7.235-2.709 8.121-5.313 14.824-8.83 14.824-3.608 0-6.536-6.883-8.48-14.294-1.273-4.859-4.72-7.406-6.004-8.823-3.018-3.33-4.681-8.646-4.681-13.456 0-10.403 8.58-18.838 19.165-18.838 10.585 0 18.913 8.501 19.605 18.882z"/>
                    <path fill="#FFF" d="M37.245 38.307c.307 0 .556.248.556.555l-.006 21.404c0 .307-.25.556-.556.556-.307 0-.556-.249-.556-.556l.006-21.403c0-.308.25-.556.556-.556z" transform="translate(37.241955, 49.564147) rotate(-160.675000) translate(-37.241955, -49.564147)"/>
                    <path fill="#FFF" d="M24.343 38.133c.307 0 .556.249.556.556l.004 21.402c0 .307-.248.556-.555.556-.308 0-.556-.25-.557-.556l-.004-21.403c0-.307.248-.555.555-.555z" transform="translate(24.345058, 49.389630) rotate(-13.450000) translate(-24.345058, -49.389630)"/>
                    <path fill="#FFF" d="M23.7 43.915c1.705-1.58 2.732-3.507 3.485-5.684.825-2.386 1.436-4.708 1.009-7.246-.132-.785-.283-1.882-1.187-2.144-.86-.25-1.487.502-1.73 1.227-.618 1.84-.463 4.037.17 5.847 1.163 3.313 5.44 7.518 9.018 4.56.76-.627 1.125-1.494 1.415-2.41.357-1.132.662-2.349.6-3.545-.04-.81-.197-1.738-.907-2.24-.764-.54-1.786-.184-2.218.606-.53.974-.337 2.468-.262 3.53.078 1.27.31 2.524.69 3.737.348 1.071.8 2.29 1.583 3.127.875.933 2.017.89 3.1 1.404.99.47 1.86-1.003.864-1.475-.571-.24-1.16-.435-1.763-.583-.82-.24-1.18-.734-1.55-1.48-.641-1.332-1.038-2.768-1.171-4.24-.07-.705-.097-1.413-.082-2.12.005-.243.094-.909-.016-.959-.04-.019.029.876.028 1.029-.006 1.242-.396 3.52-1.44 4.336-2.441 1.907-5.313-1.389-6.139-3.46-.49-1.23-.677-2.562-.542-3.88.034-.307.087-.61.16-.91.054-.134.091-.275.11-.419l-.302-.053c-.284-.145-.37-.106-.259.116-.077.26.21 1.015.238 1.322.038.406.051.814.04 1.222-.05 1.831-.715 3.612-1.343 5.313-.58 1.627-1.544 3.09-2.81 4.265-.808.75.403 1.956 1.21 1.208v-.001z"/>
                    <path fill="#FFAA40" d="M8.85 26.017c-2.341.748-4.838.87-7.242.353-3.886-.883-.353-5.118 7.242-.353zM10.27 8.213c-2.186-3.329 3.3-3.93 5.46 4.767-2.207-1.085-4.09-2.728-5.46-4.767M29.8 1.77c.888-3.881 5.123-.347.345 7.235-.746-2.34-.865-4.835-.345-7.235M51.338 8.677c2.89-2.74 4.457 2.546-3.725 6.215.676-2.362 1.96-4.505 3.725-6.215M58.274 26.557c3.898-.831 2.474 4.495-6.422 3.361 1.81-1.662 4.024-2.821 6.422-3.36"/>
                    <path fill="#5F6386" d="M23.423 59.104H37.2v5.912c0 .96-.382 1.88-1.06 2.558-.68.678-1.6 1.06-2.56 1.06h-5.627c-2.502 0-4.53-2.027-4.53-4.526v-5.004z"/>
                    <rect width="12.718" height="1" x="23.953" y="63.692" fill="#FFF" rx=".435"/>
                    <rect width="12.718" height="1" x="23.953" y="61.927" fill="#FFF" rx=".435"/>
                </g>
                <circle cx="62.614" cy="5.614" r="5.614" stroke="#494E6D" stroke-width=".702"/>
                <circle cx="155.023" cy="5.614" r="5.614" stroke="#494E6D" stroke-width=".702"/>
            </g>
        </g>
    </g>
</svg>
