<?xml version="1.0" encoding="UTF-8"?>
<svg width="449px" height="247px" viewBox="0 0 449 247" version="1.1" xmlns="http://www.w3.org/2000/svg" xmlns:xlink="http://www.w3.org/1999/xlink">
    <title>1EBA5737-12ED-4281-8F7C-7704D3E12C5B</title>
    <defs>
        <linearGradient x1="157.394441%" y1="49.9999225%" x2="-11.7865118%" y2="49.9999225%" id="linearGradient-1">
            <stop stop-color="#FFFFFF" offset="0%"></stop>
            <stop stop-color="#F0E6F4" offset="100%"></stop>
        </linearGradient>
        <linearGradient x1="49.9999869%" y1="0%" x2="49.9999869%" y2="100.000232%" id="linearGradient-2">
            <stop stop-color="#C9B2F7" offset="1.34%"></stop>
            <stop stop-color="#A193E5" offset="100%"></stop>
        </linearGradient>
        <linearGradient x1="99.9999318%" y1="50.0000775%" x2="-6.82062175e-05%" y2="50.0000775%" id="linearGradient-3">
            <stop stop-color="#FFFFFF" offset="0%"></stop>
            <stop stop-color="#F0E6F4" offset="100%"></stop>
        </linearGradient>
        <linearGradient x1="50%" y1="100.000232%" x2="50%" y2="0%" id="linearGradient-4">
            <stop stop-color="#A193E5" offset="1.34%"></stop>
            <stop stop-color="#856ECE" offset="100%"></stop>
        </linearGradient>
        <linearGradient x1="49.3007643%" y1="0.693464063%" x2="50.9313547%" y2="99.1834808%" id="linearGradient-5">
            <stop stop-color="#F5C6C6" offset="1.34%"></stop>
            <stop stop-color="#EFB1B1" offset="100%"></stop>
        </linearGradient>
        <linearGradient x1="52.0042739%" y1="-1.31112209%" x2="48.167829%" y2="101.556555%" id="linearGradient-6">
            <stop stop-color="#FFADAD" offset="1.34%"></stop>
            <stop stop-color="#ED8888" offset="100%"></stop>
        </linearGradient>
        <linearGradient x1="48.9916401%" y1="-0.70603887%" x2="51.1847003%" y2="100.842673%" id="linearGradient-7">
            <stop stop-color="#FFADAD" offset="1.34%"></stop>
            <stop stop-color="#ED8888" offset="100%"></stop>
        </linearGradient>
        <linearGradient x1="50%" y1="0.000619142333%" x2="50%" y2="100%" id="linearGradient-8">
            <stop stop-color="#8CA0F2" offset="1.34%"></stop>
            <stop stop-color="#7D7DE2" offset="100%"></stop>
        </linearGradient>
        <linearGradient x1="50.0012475%" y1="0%" x2="50.0012475%" y2="99.9999921%" id="linearGradient-9">
            <stop stop-color="#5B4A77" offset="0%"></stop>
            <stop stop-color="#393150" offset="100%"></stop>
        </linearGradient>
        <linearGradient x1="50.000064%" y1="0.00148750197%" x2="50.000064%" y2="100%" id="linearGradient-10">
            <stop stop-color="#5B4A77" offset="0%"></stop>
            <stop stop-color="#393150" offset="100%"></stop>
        </linearGradient>
        <linearGradient x1="50%" y1="0.0031779965%" x2="50%" y2="99.9999935%" id="linearGradient-11">
            <stop stop-color="#FF8C8C" offset="0%"></stop>
            <stop stop-color="#E26A71" offset="100%"></stop>
        </linearGradient>
        <linearGradient x1="50%" y1="7.02829185e-13%" x2="50%" y2="100.001236%" id="linearGradient-12">
            <stop stop-color="#FFFFFF" offset="0%"></stop>
            <stop stop-color="#F0E6F4" offset="100%"></stop>
        </linearGradient>
        <linearGradient x1="50%" y1="0%" x2="50%" y2="100%" id="linearGradient-13">
            <stop stop-color="#FF8C8C" offset="0%"></stop>
            <stop stop-color="#E26A71" offset="100%"></stop>
        </linearGradient>
        <linearGradient x1="50.0011394%" y1="0%" x2="50.0011394%" y2="99.9990551%" id="linearGradient-14">
            <stop stop-color="#FFFFFF" offset="0%"></stop>
            <stop stop-color="#F0E6F4" offset="100%"></stop>
        </linearGradient>
        <linearGradient x1="50.0001672%" y1="0%" x2="50.0001672%" y2="100.000047%" id="linearGradient-15">
            <stop stop-color="#FFC260" offset="0%"></stop>
            <stop stop-color="#EDA54F" offset="100%"></stop>
        </linearGradient>
        <linearGradient x1="49.9995893%" y1="0.00189843379%" x2="49.9995893%" y2="99.9985762%" id="linearGradient-16">
            <stop stop-color="#FFD99C" offset="0%"></stop>
            <stop stop-color="#EFB681" offset="100%"></stop>
        </linearGradient>
        <linearGradient x1="49.9998192%" y1="2.68270015e-05%" x2="49.9998192%" y2="100.000143%" id="linearGradient-17">
            <stop stop-color="#FFFFFF" offset="0%"></stop>
            <stop stop-color="#F0E6F4" offset="100%"></stop>
        </linearGradient>
        <linearGradient x1="50.0000649%" y1="0%" x2="50.0000649%" y2="100%" id="linearGradient-18">
            <stop stop-color="#FFCCB9" offset="0%"></stop>
            <stop stop-color="#F5968F" offset="100%"></stop>
        </linearGradient>
        <linearGradient x1="49.9996731%" y1="0%" x2="49.9996731%" y2="100%" id="linearGradient-19">
            <stop stop-color="#FFC260" offset="0%"></stop>
            <stop stop-color="#EDA54F" offset="100%"></stop>
        </linearGradient>
        <linearGradient x1="6.59057157%" y1="47.7284022%" x2="94.6321879%" y2="51.9608559%" id="linearGradient-20">
            <stop stop-color="#5B4A77" offset="0%"></stop>
            <stop stop-color="#393150" offset="100%"></stop>
        </linearGradient>
        <linearGradient x1="50%" y1="9.15028796e-13%" x2="50%" y2="100%" id="linearGradient-21">
            <stop stop-color="#5B4A77" offset="0%"></stop>
            <stop stop-color="#393150" offset="100%"></stop>
        </linearGradient>
        <linearGradient x1="49.9999419%" y1="-5.61423163e-06%" x2="49.9999419%" y2="100%" id="linearGradient-22">
            <stop stop-color="#5B4A77" offset="0%"></stop>
            <stop stop-color="#393150" offset="100%"></stop>
        </linearGradient>
        <linearGradient x1="49.9997831%" y1="-0.000441704252%" x2="49.9997831%" y2="99.9996342%" id="linearGradient-23">
            <stop stop-color="#FFCCB9" offset="0%"></stop>
            <stop stop-color="#F5968F" offset="100%"></stop>
        </linearGradient>
        <linearGradient x1="49.998036%" y1="-37.476922%" x2="49.998036%" y2="151.35856%" id="linearGradient-24">
            <stop stop-color="#FFCCB9" offset="0%"></stop>
            <stop stop-color="#F5968F" offset="100%"></stop>
        </linearGradient>
        <linearGradient x1="59.3093138%" y1="6.32485593%" x2="41.1996143%" y2="93.5519116%" id="linearGradient-25">
            <stop stop-color="#5B4A77" offset="0%"></stop>
            <stop stop-color="#393150" offset="100%"></stop>
        </linearGradient>
        <linearGradient x1="49.9996%" y1="3.09784171e-05%" x2="49.9996%" y2="100.000005%" id="linearGradient-26">
            <stop stop-color="#FFC260" offset="0%"></stop>
            <stop stop-color="#EDA54F" offset="100%"></stop>
        </linearGradient>
        <linearGradient x1="50.0002216%" y1="0.000145917558%" x2="50.0002216%" y2="100%" id="linearGradient-27">
            <stop stop-color="#FFD99C" offset="0%"></stop>
            <stop stop-color="#EFB681" offset="100%"></stop>
        </linearGradient>
        <linearGradient x1="49.9999403%" y1="1.72342498e-05%" x2="49.9999403%" y2="99.9997807%" id="linearGradient-28">
            <stop stop-color="#FFD99C" offset="0%"></stop>
            <stop stop-color="#EFB681" offset="100%"></stop>
        </linearGradient>
        <linearGradient x1="50%" y1="-0.00259563893%" x2="50%" y2="99.9969898%" id="linearGradient-29">
            <stop stop-color="#FFCCB9" offset="0%"></stop>
            <stop stop-color="#F5968F" offset="100%"></stop>
        </linearGradient>
        <linearGradient x1="49.9999355%" y1="6.8057103e-13%" x2="49.9999355%" y2="100.00015%" id="linearGradient-30">
            <stop stop-color="#5B4A77" offset="0%"></stop>
            <stop stop-color="#393150" offset="100%"></stop>
        </linearGradient>
        <linearGradient x1="50.0002523%" y1="0%" x2="50.0002523%" y2="100.000703%" id="linearGradient-31">
            <stop stop-color="#FFCCB9" offset="0%"></stop>
            <stop stop-color="#F5968F" offset="100%"></stop>
        </linearGradient>
        <linearGradient x1="50.0001328%" y1="-0.00122597407%" x2="50.0001328%" y2="99.9999461%" id="linearGradient-32">
            <stop stop-color="#5B4A77" offset="0%"></stop>
            <stop stop-color="#393150" offset="100%"></stop>
        </linearGradient>
        <linearGradient x1="50.000058%" y1="-7.69931573e-05%" x2="50.000058%" y2="100%" id="linearGradient-33">
            <stop stop-color="#5B4A77" offset="0%"></stop>
            <stop stop-color="#393150" offset="100%"></stop>
        </linearGradient>
        <linearGradient x1="49.9999682%" y1="-0.000111098881%" x2="49.9999682%" y2="99.9997895%" id="linearGradient-34">
            <stop stop-color="#5B4A77" offset="0%"></stop>
            <stop stop-color="#393150" offset="100%"></stop>
        </linearGradient>
    </defs>
    <g id="Visuals" stroke="none" stroke-width="1" fill="none" fill-rule="evenodd">
        <g id="01" transform="translate(-93.000000, -265.000000)">
            <g id="Group-6" transform="translate(93.000000, 265.000000)">
                <path d="M21.5610115,245.7 L431.620075,245.7 C454.349452,226.613175 455.646159,193.483271 423.322158,156.031897 C397.948789,126.633632 430.50328,87.1714991 373.747391,61.6850502 C337.724383,45.5087953 296.239836,82.4208601 275.086817,62.5847146 C253.933798,42.7485691 208.315335,16.0641164 174.127694,45.4418401 C139.940052,74.8195638 100.142071,72.6817421 73.7985556,82.7624342 C47.4550402,92.8431264 37.6321754,105.901588 36.8254573,130.84056 C35.930006,158.521515 14.4189731,170.972293 3.1099018,196.925815 C-4.40903228,214.181178 1.6927643,242.574822 21.5610115,245.7 Z" id="Background" fill="#FFFFFF" fill-rule="nonzero"></path>
                <g id="Group-8" transform="translate(79.200000, 0.000000)">
                    <g id="Books" transform="translate(14.400000, 145.800000)" fill-rule="nonzero">
                        <g id="Book_2" transform="translate(12.920511, 0.000000)">
                            <rect id="Rectangle" fill="url(#linearGradient-1)" x="131.525929" y="6.44405625" width="86.1059275" height="37.6947325"></rect>
                            <path d="M220.074244,9.45959279 C222.353387,9.45959279 224.200997,7.62192822 224.200997,5.35505409 L224.200997,0.211807212 L12.6249838,0.211807212 C5.78758879,0.211807212 0.244784957,5.72477477 0.244784957,12.5253649 L0.244784957,38.1578344 C0.244784957,44.9584245 5.78758879,50.4713921 12.6249838,50.4713921 L224.200997,50.4713921 L224.200997,45.3280868 C224.200997,43.061226 222.353373,41.2235803 220.074244,41.2235481 L140.503746,41.2235481 C138.224627,41.2235481 136.377026,39.3859191 136.376994,37.1190678 L136.376994,13.5641315 C136.377026,11.2972707 138.224617,9.45962505 140.503746,9.45959279 L220.074244,9.45959279 Z" id="Path" fill="url(#linearGradient-2)"></path>
                            <g id="Group" transform="translate(89.268986, 0.000000)" fill="#F5DAC6">
                                <path d="M8.57833846,4.31903293 L8.57833846,46.3659187 C8.57833846,48.2130108 10.3803387,49.7726502 12.847569,50.2980793 L12.847569,50.4704575 L6.15956004,50.4704575 C2.82160472,50.4704575 0.112525906,48.6316601 0.112525906,46.3659187 L0.112525906,4.31903293 C0.112525906,2.05329159 2.82160472,0.214494231 6.15956004,0.214494231 L12.847569,0.214494231 L12.847569,0.395108654 C10.3803387,0.912301442 8.57833846,2.47199928 8.57833846,4.31903293 Z" id="Path"></path>
                                <path d="M25.0853486,4.31903293 L25.0853486,46.3659187 C25.0853486,48.2130108 26.8873488,49.7726502 29.3545204,50.2980793 L29.3545204,50.4704575 L22.6665702,50.4704575 C19.3286148,50.4704575 16.619536,48.6316601 16.619536,46.3659187 L16.619536,4.31903293 C16.619536,2.05329159 19.3286148,0.214494231 22.6665702,0.214494231 L29.3545204,0.214494231 L29.3545204,0.395108654 C26.8873488,0.912301442 25.0853486,2.47199928 25.0853486,4.31903293 Z" id="Path"></path>
                            </g>
                        </g>
                        <g id="Book_1" transform="translate(0.000000, 49.651442)">
                            <rect id="Rectangle" fill="url(#linearGradient-3)" transform="translate(49.861075, 25.200297) rotate(-180.000000) translate(-49.861075, -25.200297) " x="6.80811097" y="6.35293125" width="86.1059275" height="37.6947325"></rect>
                            <path d="M4.36578199,9.36846779 C2.08665293,9.36843553 0.239029456,7.53078985 0.239029456,5.26392909 L0.239029456,0.120682212 L211.815101,0.120682212 C215.098534,0.120682212 218.247486,1.41799974 220.569224,3.72723976 C222.890961,6.03647977 224.1953,9.16848136 224.1953,12.4342399 L224.1953,38.066651 C224.1953,41.3324095 222.890961,44.4644111 220.569224,46.7736511 C218.247486,49.0828911 215.098534,50.3802087 211.815101,50.3802087 L0.239029456,50.3802087 L0.239029456,45.2369618 C0.239029456,42.970101 2.08665293,41.1324553 4.36578199,41.1324231 L83.9363388,41.1324231 C85.0308264,41.1324386 86.0804911,40.7000023 86.8544107,39.9302486 C87.6283303,39.160495 88.0631069,38.1164805 88.0630913,37.0278844 L88.0630913,13.4730065 C88.0630913,11.2061324 86.2154813,9.36846779 83.9363388,9.36846779 L4.36578199,9.36846779 Z" id="Path" fill="url(#linearGradient-4)"></path>
                            <g id="Group" transform="translate(105.713273, 0.000000)" fill="#F5C6C6">
                                <path d="M20.8794286,4.22790793 L20.8794286,46.2747937 C20.8794286,48.1218274 19.0774284,49.6815252 16.6102568,50.2068959 L16.6102568,50.3793325 L23.2980308,50.3793325 C26.6359274,50.3793325 29.3450062,48.5405351 29.3450062,46.2747937 L29.3450062,4.22790793 C29.3450062,1.96216659 26.6359274,0.123369231 23.2980308,0.123369231 L16.6102568,0.123369231 L16.6102568,0.303983654 C19.0774284,0.821118029 20.8794286,2.38081587 20.8794286,4.22790793 Z" id="Path"></path>
                                <path d="M4.37241843,4.22790793 L4.37241843,46.2747937 C4.37241843,48.1218274 2.57041823,49.6815252 0.10324663,50.2068959 L0.10324663,50.3793325 L6.79125558,50.3793325 C10.1291522,50.3793325 12.838231,48.5405351 12.838231,46.2747937 L12.838231,4.22790793 C12.838231,1.96216659 10.1291522,0.123369231 6.79125558,0.123369231 L0.10324663,0.123369231 L0.10324663,0.303983654 C2.57041823,0.821118029 4.37241843,2.38081587 4.37241843,4.22790793 Z" id="Path"></path>
                            </g>
                        </g>
                    </g>
                    <g id="plant_2" transform="translate(236.700000, 135.900000)" fill-rule="nonzero">
                        <g id="Group">
                            <g transform="translate(19.556284, 0.000000)" id="Path">
                                <path d="M2.43529076,74.6857848 C2.43529076,74.6857848 13.4989327,59.8442706 19.0193755,32.492273 C26.3622862,-3.88919777 18.3023117,-13.2148972 4.98821553,22.903696 C-3.99760083,47.280464 2.43529076,74.6857848 2.43529076,74.6857848 Z" fill="url(#linearGradient-5)"></path>
                                <path d="M2.45935091,75.0953738 C2.34121471,75.1020545 2.22576569,75.0589308 2.14179994,74.976759 C2.0578342,74.8945871 2.01326751,74.7811139 2.01921599,74.6646424 C4.12400554,33.6153868 14.9074593,15.1888443 15.0167967,15.006915 C15.0912382,14.8780879 15.2303751,14.7988246 15.3808017,14.7995444 C15.5312284,14.800274 15.6695724,14.8808741 15.7427324,15.0104123 C15.8158923,15.1399505 15.8125011,15.2983 15.7338604,15.4246806 C15.6260046,15.6040985 4.94430278,33.8869082 2.85083217,74.7067519 C2.84003415,74.9157457 2.67132844,75.0832192 2.45935091,75.0953738 L2.45935091,75.0953738 Z" fill="#FFFFFF"></path>
                            </g>
                            <g transform="translate(23.111972, 18.689362)" id="Path">
                                <path d="M0.905870797,55.0271461 C0.905870797,55.0271461 12.3094365,45.5512893 21.7875379,25.3450522 C34.3945855,-1.53159319 29.9114555,-10.2549112 12.7205333,15.316516 C1.1185602,32.5747398 0.905870797,55.0271461 0.905870797,55.0271461 Z" fill="url(#linearGradient-6)"></path>
                                <path d="M0.87493631,55.4548404 C0.843855437,55.4526182 0.813113909,55.4470563 0.78325882,55.4382536 C0.6724344,55.4063867 0.579067104,55.3323032 0.523822576,55.2324008 C0.468578048,55.1324983 0.456012484,55.0150161 0.488907109,54.9059572 C9.92522915,23.4164853 21.809998,11.0891576 21.928758,10.968436 C22.0965589,10.8015347 22.3694112,10.7988503 22.5405595,10.962417 C22.7117078,11.1259837 22.7173699,11.3948446 22.5532553,11.565269 C22.4363324,11.6846473 10.6907095,23.8908447 1.32330858,55.1483933 C1.26563779,55.3417952 1.07894153,55.4693957 0.87493631,55.4548404 L0.87493631,55.4548404 Z" fill="#5B4A77"></path>
                            </g>
                            <g transform="translate(0.000000, 19.273404)" id="Path">
                                <path d="M20.9182907,55.4720113 C20.9182907,55.4720113 11.2275592,45.1432187 4.65409937,24.8494337 C-4.08933758,-2.14372819 1.21568975,-9.90442723 14.4686874,16.3839705 C23.4131985,34.1261904 20.9182907,55.4720113 20.9182907,55.4720113 Z" fill="url(#linearGradient-7)"></path>
                                <path d="M20.9412841,55.8816587 C20.7292268,55.8931242 20.542424,55.7453955 20.5078458,55.5388841 C15.3664393,24.7628786 5.6797376,11.8018647 5.5820747,11.6748354 C5.44349924,11.4938805 5.48000764,11.2364749 5.66361848,11.0999039 C5.84722932,10.963333 6.10841291,10.9993133 6.24698836,11.1802682 C6.34559945,11.3087576 16.1505871,24.4022323 21.3294467,55.4049048 C21.3487565,55.5199873 21.3174649,55.6377309 21.2433926,55.728709 C21.1693202,55.8196871 21.0594657,55.8753036 20.9412841,55.8816587 L20.9412841,55.8816587 Z" fill="#5B4A77"></path>
                            </g>
                        </g>
                        <path d="M15.5194524,109.454305 L28.103151,109.454305 C28.9381503,109.454305 29.6441077,108.844974 29.7542348,108.029241 L34.6606102,71.721944 L8.96199325,71.721944 L13.8683687,108.029183 C13.9784687,108.844939 14.6844334,109.454305 15.5194524,109.454305 L15.5194524,109.454305 Z" id="Path" fill="url(#linearGradient-8)"></path>
                    </g>
                    <g id="Bag" transform="translate(178.200000, 86.400000)" fill-rule="nonzero">
                        <path d="M56.5353946,52.4920959 C56.5260432,56.5448646 53.2726572,59.8240716 49.2654025,59.8197915 L44.8212331,59.8197915 L44.8212331,53.2399932 L47.1541751,53.2399932 C50.1607948,53.2399932 50.9658179,50.7725409 50.9740599,47.7317656 C50.9740599,45.3058138 50.8918741,41.8247303 50.6372502,36.8648188 C50.4764603,33.6296377 50.0782501,30.4110073 49.4459072,27.2355 L49.4459072,27.2271644 C48.1972797,21.0375468 46.2749743,16.7009126 44.8209993,14.6654329 L44.8209993,6.76471412 C46.4797384,8.80826649 47.9352931,11.0121837 49.1665574,13.3445082 C53.2901494,20.9425154 55.6551392,29.3878523 56.0833729,38.0443341 C56.4286584,44.641095 56.5353946,49.2686471 56.5353946,52.4920959 Z" id="Path" fill="url(#linearGradient-9)"></path>
                        <path d="M49.4459072,27.2274009 C48.1972797,21.0377832 46.2749743,16.7011491 44.8209993,14.6656694 L44.8209993,6.76471412 C46.4797384,8.80826649 47.9352931,11.0121837 49.1665574,13.3445082 C49.7911342,17.8642297 50.1361274,23.0318215 49.4459072,27.2274009 Z" id="Path" fill="#393150" opacity="0.5"></path>
                        <path d="M44.8212346,6.76471412 L44.8212346,59.8197874 L0.157824444,59.8197874 L0.157824444,14.0922874 C0.156752347,8.93615251 3.04315982,4.22422207 7.60855546,1.92930441 C9.46473121,0.989316345 11.5130259,0.502734095 13.5888857,0.508648235 L38.6355554,0.508648235 C38.7617477,0.50570769 38.8879938,0.511257286 39.0134579,0.525260294 C42.2772128,0.722428665 44.8235227,3.45799997 44.8212346,6.76471412 L44.8212346,6.76471412 Z" id="Path" fill="url(#linearGradient-10)"></path>
                        <g id="Group" transform="translate(7.598969, 0.000000)">
                            <path d="M31.4144905,0.525378529 L31.4144905,20.2735694 C31.4156376,21.8163288 30.8101715,23.2962345 29.7315291,24.3871304 C28.6528867,25.4780264 27.1896039,26.0903706 25.6641736,26.0892105 L5.7598432,26.0892105 C4.23442301,26.0903549 2.7711553,25.4780037 1.69252553,24.3871095 C0.613895755,23.2962153 0.0084376379,21.8163185 0.00958476006,20.2735694 L0.00958476006,1.92936353 C1.86576214,0.989375462 3.91405685,0.502793213 5.9899166,0.508707353 L31.0365863,0.508707353 C31.1627799,0.505786434 31.289026,0.51135578 31.4144905,0.525378529 Z" id="Path" fill="url(#linearGradient-11)"></path>
                            <ellipse id="Oval" fill="url(#linearGradient-12)" cx="14.6384787" cy="19.6672588" rx="2.36380546" ry="2.39065853"></ellipse>
                        </g>
                        <g id="Group" transform="translate(0.000000, 34.288235)">
                            <path d="M11.1731149,2.23245971 L33.8060013,2.23245971 C39.8895781,2.23245971 44.8212915,7.22019787 44.8212915,13.3728847 L44.8212915,25.5315521 L0.157824742,25.5315521 L0.157824742,13.3728847 C0.157824742,7.22019787 5.08953815,2.23245971 11.1731149,2.23245971 L11.1731149,2.23245971 Z" id="Path" fill="url(#linearGradient-13)"></path>
                            <rect id="Rectangle" fill="url(#linearGradient-14)" x="35.7665938" y="0.553932353" width="2.56500278" height="6.25647971"></rect>
                            <rect id="Rectangle" fill="url(#linearGradient-14)" x="9.4794801" y="0.553932353" width="2.56500278" height="6.25647971"></rect>
                        </g>
                    </g>
                    <g id="Person_1">
                        <path d="M102.984469,50.2804315 C102.984469,50.2804315 107.18209,77.3195303 106.177742,84.3819977 C105.173395,91.4444651 104.692408,109.837321 106.006674,111.824648 C107.32094,113.811974 120.439672,110.613936 120.439672,110.613936 L115.81978,41.0113608 L102.984469,50.2804315 Z" id="Path" fill="url(#linearGradient-15)" fill-rule="nonzero"></path>
                        <polygon id="Path" fill="url(#linearGradient-16)" fill-rule="nonzero" points="112.905609 37.9272404 101.607869 46.7123781 102.984702 50.2806074 115.81978 41.0111849"></polygon>
                        <path d="M108.789115,41.5681124 C108.789115,41.5681124 105.848855,43.0162765 106.013328,50.0786852 C106.177801,57.141094 108.584954,91.0408553 107.682571,97.9015178 C106.780187,104.76218 106.177859,123.023588 106.177859,123.023588 C106.177859,123.023588 129.411095,121.776525 135.638129,121.838907 C141.865164,121.90129 139.204239,98.9103663 136.350184,83.1711684 C133.496129,67.4319705 115.01615,36.4879295 108.789115,41.5681124 Z" id="Path" fill="url(#linearGradient-17)" fill-rule="nonzero"></path>
                        <path d="M115.81978,78.3116106 C115.81978,78.3116106 115.903184,97.2914714 111.425469,101.920378 C109.940368,103.455667 108.404664,104.706423 106.980088,106.040434 C106.481358,113.831909 106.177859,123.023588 106.177859,123.023588 C106.177859,123.023588 115.379123,122.529805 123.752945,122.179314 L115.81978,78.3116106 Z" id="Path" fill="#393150" fill-rule="nonzero" opacity="0.2"></path>
                        <path d="M99.8977703,109.581225 C97.3836226,109.749994 94.8842912,110.095072 92.4180444,110.613936 C90.2977946,111.153972 88.2304609,111.885367 86.2412618,112.799198 C85.3378927,113.871523 84.0233645,114.507578 82.6255415,114.54872 C80.3657017,114.54872 82.6255415,116.364789 82.6255415,116.364789 L101.607869,116.364789 L99.8977703,109.581225 Z" id="Path" fill="url(#linearGradient-18)" fill-rule="nonzero"></path>
                        <path d="M99.8977703,109.581166 C99.8977703,109.581166 99.4236703,109.611888 98.682433,109.679137 C98.0537136,111.849106 97.7754178,114.106305 97.8581422,116.364789 L101.607869,116.364789 L99.8977703,109.581166 Z" id="Path" fill="#393150" fill-rule="nonzero" opacity="0.2"></path>
                        <path d="M103.678197,108.174219 L100.402687,108.174219 C100.402687,108.174219 99.0468066,111.067967 99.6494266,113.640716 C99.9285784,115.059616 100.599947,116.370838 101.586624,117.424176 L106.013328,117.413916 L103.678197,108.174219 Z" id="Path" fill="url(#linearGradient-19)" fill-rule="nonzero"></path>
                        <g id="Laptop-2" transform="translate(54.863230, 86.186281)" fill-rule="nonzero">
                            <path d="M-7.99316283,14.6800864 L25.731308,14.7358693 L25.7373283,18.3642466 L-4.7120745,18.3138804 C-6.52084461,18.3108885 -7.98956789,16.8466876 -7.99255976,15.043496 L-7.99316283,14.6800275 L-7.99316283,14.6800864 Z" id="Path" fill="url(#linearGradient-20)" transform="translate(8.872083, 16.522137) rotate(66.496500) translate(-8.872083, -16.522137) "></path>
                            <path d="M13.1487901,30.1785074 L43.1189383,30.1785074 C45.1213898,30.1785074 46.7446974,31.8091851 46.7446974,33.8207279 L46.7446974,33.8207279 L15.94092,33.8207279 C14.3988692,33.8207279 13.1487901,32.5649733 13.1487901,31.0159215 L13.1487901,30.1785074 L13.1487901,30.1785074 Z" id="Path" fill="url(#linearGradient-21)"></path>
                        </g>
                        <g id="Head-2" transform="translate(84.629450, 0.000000)" fill-rule="nonzero">
                            <path d="M33.7879286,28.868945 C33.7879286,28.868945 38.4215953,26.0664251 37.8189752,18.1967382 C37.2163552,10.3270513 30.3832566,0.843335692 23.0532373,0.439725924 C15.723218,0.0361161559 9.8977352,10.7307197 5.67939485,11.5378806 C1.4610545,12.3450415 -1.35115295,14.5586804 1.86284011,16.37768 C5.07683317,18.1966796 3.8715347,24.0484935 2.6662946,26.2681127 C1.4610545,28.4877319 9.96281233,28.4396552 13.9151244,23.4431375 C17.8674364,18.4466198 33.7879286,28.868945 33.7879286,28.868945 Z" id="Path" fill="url(#linearGradient-22)"></path>
                            <path d="M32.9980148,24.6539668 L35.0034993,37.5681895 C35.0034993,37.5681895 30.5875346,48.4645393 26.9718727,50.4823536 C23.3562108,52.5001679 22.7502639,49.8769976 23.0532373,47.4555735 C23.1373308,46.1339087 23.8477063,44.9330671 24.9631197,44.2270471 L21.548409,32.927029 L32.9980148,24.6539668 Z" id="Path" fill="url(#linearGradient-23)"></path>
                            <path d="M23.3971831,39.0449651 L24.4383588,42.4903056 C25.4364667,42.2460291 26.3501699,41.7349861 27.0825914,41.0113608 C30.9893202,37.5512454 33.5552852,28.2412509 33.5552852,28.2412509 L23.3971831,39.0449651 Z" id="Path" fill="#393150" opacity="0.2"></path>
                            <path d="M13.8150282,21.3173265 C12.2216878,22.5725364 11.5623083,24.6837632 12.156291,26.6283362 C12.7080166,28.4336163 14.4579785,31.8614851 14.2388174,33.183184 C13.815962,35.7335943 16.8228756,34.4337059 18.9372111,36.5589892 C21.0515465,38.6842726 21.0837057,42.6578119 26.3694861,37.7697013 C31.6552665,32.8815906 35.205968,28.4947676 34.9948029,23.6066569 C34.7836379,18.7185463 29.7090226,20.4187612 29.2861671,23.6066569 C28.8633117,26.7945526 27.3954869,16.1681946 23.0550466,16.3807288 C20.367799,16.512412 16.4271016,19.2504388 13.8150282,21.3173265 Z" id="Path" fill="url(#linearGradient-24)"></path>
                            <ellipse id="Oval" fill="url(#linearGradient-25)" transform="translate(17.985690, 25.577626) rotate(-21.807600) translate(-17.985690, -25.577626) " cx="17.9856905" cy="25.5776256" rx="1" ry="1.94606699"></ellipse>
                            <path d="M23.4055877,35.9623105 C23.1944315,35.9620344 23.0180033,35.800729 22.9979089,35.5895767 C22.9778146,35.3784244 23.1206241,35.1864622 23.3279037,35.1460032 C23.5081352,35.1090076 25.0356676,34.7307847 24.7088228,32.6379238 C24.6760242,32.4142433 24.8287255,32.2057745 25.0510705,32.1706848 C25.2734155,32.1355952 25.482396,32.2869849 25.5194562,32.5099929 C25.9768054,35.4429062 23.5081352,35.9502326 23.4832717,35.9550403 C23.4576515,35.9598358 23.4316487,35.9622693 23.4055877,35.9623105 L23.4055877,35.9623105 Z" id="Path" fill="#F46060"></path>
                            <path d="M14.6310312,23.0598138 C14.4742594,23.0598443 14.3312055,22.9700339 14.262529,22.8284652 C14.1938526,22.6868965 14.2115875,22.518376 14.3082136,22.3943619 C15.3674351,21.109327 17.1370596,20.6684257 18.6712995,21.3073007 C18.8073683,21.3619293 18.9040888,21.4853295 18.9250273,21.6310178 C18.9459658,21.7767061 18.8879413,21.922549 18.772811,22.0136087 C18.6576807,22.1046685 18.5029357,22.127111 18.3668669,22.0724825 C17.1702763,21.5705761 15.7878411,21.9073371 14.9530316,22.9040922 C14.8748616,23.0024939 14.7563553,23.0598138 14.6310312,23.0598138 Z" id="Path" fill="#000000"></path>
                        </g>
                        <path d="M82.6254831,116.364789 C82.6254831,116.364789 85.1866038,114.481472 86.9944639,114.330323 C88.2400079,114.159358 89.4274738,113.694254 90.4594854,112.973153 C90.4594854,112.973153 87.2955113,112.343114 82.6254831,116.364789 Z" id="Path" fill="#393150" fill-rule="nonzero" opacity="0.2"></path>
                        <g id="Group" transform="translate(102.722643, 37.523279)" fill-rule="nonzero">
                            <path d="M58.4410127,77.0417408 C58.2448372,79.0884734 56.9191528,80.8502943 55.0124694,81.5982395 C49.7793928,83.6663584 38.0911319,87.4482945 25.7549012,85.8003776 C11.3844704,83.8890356 11.4911035,81.8288904 11.5321342,79.1016515 C11.5508213,78.6453278 11.5371683,78.1882467 11.4912786,77.7338694 C11.0893762,74.2981442 15.305382,61.1889177 11.4912786,39.1893711 C9.66223187,28.6757587 8.98963202,22.2159504 8.78453693,18.3433721 L8.78453693,18.3351639 C8.55487011,14.116492 8.88299891,12.963003 8.88299891,12.963003 L16.9129913,0.0428319283 C16.9129913,0.0428319283 18.4632278,-0.0307221846 21.0305351,1.53476074 C24.311473,3.53697944 29.2738521,8.22527862 34.7939685,19.2167851 C42.2334224,34.0067027 45.5389904,45.3443028 49.6647053,53.7404296 C50.8756785,56.3050399 52.3549483,58.7328885 54.0775183,60.9829501 C58.5392996,66.6599876 58.7935965,73.2021713 58.4410127,77.0417408 Z" id="Path" fill="url(#linearGradient-26)"></path>
                            <path d="M58.4410127,77.0417408 C58.2448372,79.0884734 56.9191528,80.8502943 55.0124694,81.5982395 C49.7793928,83.6663584 38.0911319,87.4482945 25.7549012,85.8003776 C11.3844704,83.8890356 11.4911035,81.8288904 11.5321342,79.1016515 C13.1398019,77.3713594 16.3960513,75.6575422 22.8348933,74.9489386 C35.5238245,73.5482063 45.4649834,61.4937943 49.6645302,53.7404296 C50.8755034,56.3050399 52.3547732,58.7328885 54.0773432,60.9829501 C58.5392996,66.6599876 58.7935965,73.2021713 58.4410127,77.0417408 Z" id="Path" fill="#393150" opacity="0.2"></path>
                            <path d="M21.0302433,1.53476074 L8.7842451,18.3351639 C8.55457828,14.116492 8.88270709,12.963003 8.88270709,12.963003 L16.9126995,0.0433862912 C16.9126995,0.0433862912 18.4629359,-0.0307221846 21.0302433,1.53476074 Z" id="Path" fill="url(#linearGradient-27)"></path>
                            <path d="M23.8030542,14.955665 C23.8030542,14.955665 17.4157486,15.5821278 21.7847294,31.3213258 C26.1537102,47.0605237 32.6318319,67.6426871 32.6318319,67.6426871 C32.6318319,67.6426871 3.55554584,67.9453358 1.59704527,69.7614039 C-0.3614553,71.5774719 -0.210814879,77.9336809 2.35030574,79.598366 C4.91142637,81.263051 46.943956,80.960461 49.2037958,78.8416856 C51.4636356,76.7229102 43.6295749,47.6660556 38.3566932,34.0455745 C33.0838116,20.4250933 29.3772751,14.2620706 23.8030542,14.955665 Z" id="Path" fill="url(#linearGradient-28)"></path>
                        </g>
                        <g id="Leg-2" transform="translate(0.000000, 119.605451)">
                            <path d="M54.4531563,80.903707 L52.3439569,88.1679793 C52.3439569,88.1679793 56.497512,95.0552012 59.4246988,90.8218718 C62.5051524,86.3669205 62.9475018,83.4320138 62.9475018,83.4320138 L54.4531563,80.903707 Z" id="Path" fill="url(#linearGradient-29)" fill-rule="nonzero"></path>
                            <path d="M59.5753975,89.6473932 C59.5753975,89.6473932 61.5840921,89.0756322 59.5753975,94.9273876 C57.566703,100.779143 55.9596772,103.805923 56.16057,106.227288 C56.3614629,108.648654 49.1300222,107.84161 44.9116819,106.227288 C40.6933415,104.612967 32.323664,106.227288 28.9758397,105.621991 C25.6280154,105.016694 25.2262298,98.8281083 30.6497519,98.6938453 C36.0732739,98.5595823 52.3440737,88.1676275 52.3440737,88.1676275 L59.5753975,89.6473932 Z" id="Path" fill="url(#linearGradient-30)" fill-rule="nonzero"></path>
                            <g id="Group" transform="translate(38.520991, 93.221896)" stroke="#FFFFFF" stroke-linecap="round" stroke-linejoin="round" stroke-width="0.9">
                                <line x1="7.64618327" y1="0.0239797204" x2="9.60468385" y2="1.99137213" id="Path"></line>
                                <line x1="4.03046297" y1="1.99137213" x2="6.29030275" y2="4.73971779" id="Path"></line>
                                <line x1="0.113461828" y1="3.61613011" x2="1.61998277" y2="6.01973064" id="Path"></line>
                            </g>
                            <path d="M33.7244857,60.1740302 L29.3394545,66.3266167 C29.3394545,66.3266167 30.8812864,71.9668346 35.6749319,70.128663 C40.4685774,68.2904913 40.9059657,65.385486 40.9059657,65.385486 L33.7244857,60.1740302 Z" id="Path" fill="url(#linearGradient-31)" fill-rule="nonzero"></path>
                            <path d="M35.6749319,70.128663 C35.6749319,70.128663 37.7585673,70.2576492 33.9341916,75.1106991 C30.109816,79.9637489 27.5953875,82.2852672 26.9866391,84.6368629 C26.3778907,86.9884585 19.8206841,83.8210833 16.3725885,80.8945607 C12.9244929,77.9680381 4.49493274,76.7066696 1.53558678,75.0216985 C-1.42375918,73.3367274 0.237429382,67.3638423 5.39935892,69.041426 C10.5612885,70.7190097 29.3396296,66.3268513 29.3396296,66.3268513 L35.6749319,70.128663 Z" id="Path" fill="url(#linearGradient-32)" fill-rule="nonzero"></path>
                            <g id="Group" transform="translate(14.007633, 68.597244)" stroke="#FFFFFF" stroke-linecap="round" stroke-linejoin="round" stroke-width="0.9">
                                <line x1="8.11392149" y1="0.580086439" x2="9.62079262" y2="2.91462068" id="Path"></line>
                                <line x1="4.16919691" y1="1.74647411" x2="5.8085569" y2="4.90786898" id="Path"></line>
                                <line x1="0.000933842209" y1="2.51464598" x2="0.975223092" y2="5.18108536" id="Path"></line>
                            </g>
                            <path d="M68.7555334,5.48648967 C68.7555334,5.48648967 62.2871586,2.71733032 50.837436,26.5252058 C39.3877134,50.3330813 33.6628521,60.3213677 33.6628521,60.3213677 L40.5929535,65.7695719 C40.5929535,65.7695719 65.6015397,39.0331804 68.0120199,32.7778153 C70.4225001,26.5224502 77.6343884,8.76520342 68.7555334,5.48648967 Z" id="Path" fill="url(#linearGradient-33)" fill-rule="nonzero"></path>
                            <path d="M52.8335821,52.2608398 C59.5531604,44.6308914 66.7719942,35.9957296 68.0120199,32.7780498 C70.2298951,27.0223306 76.5026883,11.5375874 70.5751249,6.54505654 C67.9740825,9.53314077 64.6029122,15.418843 61.0158491,27.0000512 C57.5655356,38.1393056 54.8228411,46.4485425 52.8335821,52.2608398 Z" id="Path" fill="#393150" fill-rule="nonzero" opacity="0.3"></path>
                            <path d="M146.308152,2.9021911 C146.308152,2.9021911 142.152554,26.5199291 133.697722,26.5225675 C125.24289,26.5252058 81.6211358,23.3949435 81.6211358,23.3949435 C83.3020122,29.8427605 82.7531128,36.6728783 80.0643625,42.7663363 C75.5447413,52.7546813 64.3962996,83.8630625 64.3962996,83.8630625 L54.4531563,80.903707 C54.4531563,80.903707 66.2041597,7.83421569 69.81988,2.9021911 C73.4356003,-2.0298335 125.561447,1.60224401 125.561447,1.60224401 L146.308152,2.9021911 Z" id="Path" fill="url(#linearGradient-34)" fill-rule="nonzero"></path>
                            <path d="M111.197261,0.811147755 C114.565455,2.55164159 120.965426,3.18877514 128.477544,3.71820515 C140.131019,4.53943729 131.889512,14.095737 125.561563,18.7116279 C119.233615,23.3275189 81.8285655,19.1568651 78.8592392,13.0867712 C75.8899128,7.01667726 73.5065723,13.7933228 75.2435772,18.3334636 C76.9805821,22.8736045 81.6212526,23.3948263 81.6212526,23.3948263 C81.6212526,23.3948263 125.243357,26.5252058 133.697839,26.5225106 C142.152321,26.5198119 146.308152,2.9021911 146.308152,2.9021911 L125.561447,1.60218538 C125.561447,1.60218538 119.415072,1.1738337 111.197261,0.811147755 Z" id="Path" fill="#393150" fill-rule="nonzero" opacity="0.3"></path>
                            <ellipse id="Oval" stroke="#FFFFFF" stroke-width="0.9" cx="51.5401523" cy="101.713473" rx="1.69194699" ry="1.69962864"></ellipse>
                        </g>
                    </g>
                </g>
            </g>
        </g>
    </g>
</svg>