<svg xmlns="http://www.w3.org/2000/svg" xmlns:xlink="http://www.w3.org/1999/xlink" width="307" height="263" viewBox="0 0 307 263">
    <defs>
        <linearGradient id="8160dr7xec" x1=".789%" x2="99.207%" y1="50%" y2="50%">
            <stop offset="0%" stop-color="#638EE4"/>
            <stop offset="100%" stop-color="#6480E4"/>
        </linearGradient>
        <linearGradient id="ryqr8tv3bd" x1=".789%" x2="99.207%" y1="49.943%" y2="50.034%">
            <stop offset="0%" stop-color="#638EE4"/>
            <stop offset="100%" stop-color="#6480E4"/>
        </linearGradient>
        <path id="ybsy13a8aa" d="M0 0H305.142V261.512H0z"/>
    </defs>
    <g fill="none" fill-rule="evenodd">
        <g>
            <g>
                <g transform="translate(-320 -182) translate(290 115) translate(30.092 67.062)">
                    <path fill="#EBEDFC" fill-rule="nonzero" d="M283.95 144.726c-.28.53-.572 1.057-.874 1.58l-.024.042-10.402 18.016-.94 1.627-10.808 18.722-.896 1.555-7.363 12.75c-3.827 6.632-9.102 12.313-15.432 16.62-.602.413-1.214.808-1.834 1.193-8.055 4.997-17.346 7.643-26.825 7.643h-60.865c-12.565 0-24.687-4.645-34.032-13.045-.511-.458-1.013-.928-1.505-1.41-3.344-3.256-6.222-6.958-8.555-11L95.45 184.91l-.949-1.645-12.493-21.634-1.098-1.904-7.749-13.423c-1.058-1.83-2-3.726-2.82-5.674-.32-.758-.62-1.519-.898-2.288-5.185-14.16-3.823-29.89 3.718-42.948l3.78-6.547 1.004-1.738 10.32-17.876.938-1.625 11.847-20.518.927-1.612 1.617-2.799c8.486-14.694 23.735-24.195 40.665-25.337 1.028-.071 2.064-.11 3.106-.114.106-.002.214-.002.32-.002h60.866c11.838 0 23.306 4.124 32.43 11.666.533.44 1.056.89 1.57 1.352 4 3.586 7.406 7.784 10.091 12.437l11.892 20.6.912 1.577 11.267 19.516 1.025 1.773 5.338 9.247c1.706 2.953 3.11 6.07 4.193 9.305.204.607.395 1.218.575 1.834 3.736 12.751 2.338 26.458-3.895 38.192z"/>
                    <path fill="#FFF" fill-rule="nonzero" d="M265.447 64.86c-7.218 2.652-14.582 4.89-22.056 6.701-14.105 3.432-28.568 5.176-43.084 5.195-10.336 0-20.651-.902-30.83-2.696-27.212-4.794-50.04-15.183-68.426-26.968l.928-1.613c18.22 11.693 40.848 22 67.822 26.752 31.6 5.568 63.332 2.555 94.735-8.95l.91 1.578zM260.902 184.713l-.896 1.555c-19.623-9.7-42.862-17.096-69.63-19.041-38.94-2.828-71.805 7.076-94.925 17.684l-.949-1.645c6.615-3.052 13.39-5.747 20.293-8.076 24.785-8.361 50.259-11.66 75.714-9.813 20.195 1.471 40.018 6.2 58.702 14.003 3.936 1.64 7.833 3.418 11.69 5.333zM237.211 215.638c-.602.413-1.214.808-1.834 1.193-9.644-4.457-19.708-7.942-30.043-10.403-36.557-8.674-68.747-2.88-91.679 5.001-.511-.458-1.013-.928-1.505-1.41 6.473-2.257 13.072-4.137 19.762-5.631 24.931-5.556 49.78-5.478 73.852.233 10.834 2.58 21.372 6.271 31.447 11.017zM242.551 30.244c-9.114 3.18-18.581 5.24-28.193 6.136-3.193.286-6.376.429-9.548.429-8.957.008-17.876-1.151-26.533-3.448-12.002-3.188-23.544-8.642-34.017-16.018 1.028-.071 2.064-.11 3.106-.114 9.745 6.541 20.37 11.412 31.389 14.34 23.51 6.25 45.104 3.083 62.227-2.676.533.44 1.056.89 1.57 1.351zM226.629 143.133c12.376 7.347 27.973 14.526 46.02 21.231l-.94 1.627c-18.03-6.713-33.626-13.903-46.027-21.262-19.71-11.696-29.37-22.707-27.94-31.84.664-4.242 3.778-8.189 9.254-11.73 5.059-3.267 12.151-6.209 21.082-8.737 13.082-3.702 29.664-6.438 48.635-8.046l1.025 1.773c-46.047 3.792-76.122 13.985-78.163 27.027-1.285 8.202 8.325 18.842 27.054 29.957z"/>
                    <path fill="#FFF" fill-rule="nonzero" d="M269.457 134.144c3.906 3.8 8.838 7.383 14.493 10.582-.28.53-.572 1.057-.874 1.58l-.024.042c-17.112-9.67-25.908-21.848-23.531-29.611 2.057-6.716 12.975-11.2 27.748-12.037.204.607.396 1.218.575 1.834-14.1.72-24.716 4.765-26.547 10.744-1.32 4.309 1.73 10.614 8.16 16.866zM173.073 127.216c-.89 5.974-6.347 12.017-15.774 17.479-8.632 4.998-20.046 9.275-33.014 12.368-12.827 3.058-25.89 4.649-37.779 4.649-1.518 0-3.017-.027-4.497-.08l-1.097-1.904c1.788.08 3.6.119 5.435.117 12.34 0 25.53-1.73 37.509-4.588 12.61-3.007 24.157-7.327 32.513-12.17 8.923-5.167 14.064-10.751 14.87-16.147 1.286-8.606-8.011-19.363-26.886-31.111-14.346-8.931-33.499-17.998-56.087-26.594l.938-1.625c22.58 8.606 41.744 17.69 56.13 26.645 9.432 5.87 16.587 11.569 21.267 16.933 5.022 5.758 7.2 11.149 6.472 16.028z"/>
                    <path fill="#FFF" fill-rule="nonzero" d="M101.265 135.41c-4.49 4.615-11.375 7.217-19.018 7.217-.352 0-.707-.005-1.065-.016-3.69-.133-7.341-.8-10.84-1.98-.32-.757-.62-1.518-.898-2.287 3.773 1.446 7.758 2.261 11.796 2.412 7.545.236 14.359-2.184 18.695-6.639 7.65-7.863 7.415-21.388 2.766-29.918-4.473-8.21-13.868-13.455-25.76-15.35l1.005-1.739c.18.03.36.064.538.096 12.244 2.268 21.422 7.987 25.845 16.108 4.972 9.12 5.184 23.618-3.064 32.097z"/>
                    <mask id="p6wp4z0h7b" fill="#fff">
                        <use xlink:href="#ybsy13a8aa"/>
                    </mask>
                    <path fill="#FFAA40" fill-rule="nonzero" d="M119.022 102.845s7.537 16.797 11.076 31.616c1.057 4.414 1.758 8.655 1.802 12.223.058 5.54-1.47 9.452-5.736 9.882-.65.067-1.306.023-1.94-.13-.003-.004-.006-.007-.01-.004-.546-.134-1.072-.338-1.567-.608-.012-.005-.025-.011-.036-.019-1.024-.59-1.94-1.353-2.706-2.253-1.948-2.193-3.653-5.429-5.128-9.196-5.852-14.924-8.17-38.176-8.17-38.176 4.686-5.61 12.415-3.335 12.415-3.335z" mask="url(#p6wp4z0h7b)"/>
                    <path fill="#FFAA40" fill-rule="nonzero" d="M169.082 130.709s-17.092 16.729-31.736 23.398c-4.891 2.23-9.505 3.337-13.122 2.328-.003-.003-.006-.006-.01-.003-.54-.152-1.065-.355-1.567-.608-.012-.005-.025-.011-.036-.019-1.055-.546-1.978-1.315-2.706-2.253-.23-.288-.444-.59-.637-.903-1.717-2.748-.67-6.087 1.986-9.607 2.12-2.81 5.262-5.736 8.844-8.581 11.93-9.457 28.722-17.961 28.722-17.961 7.378-2.09 15.667 7.457 10.262 14.209zM225.485 166.38c-.01.001-.018.004-.026.009-.418.124-.825.233-1.224.31-1.551.316-2.986.26-4.25-.244-.458-.185-.891-.428-1.289-.722-2.715-2.005-2.87-5.003-1.403-8.495 1.317-3.155 3.955-6.708 7.217-10.304 10.587-11.67 27.744-23.753 27.744-23.753s7.803 1.985 8.972 9.206c0 0-14.67 19.918-27.6 29.486-2.858 2.12-5.632 3.726-8.141 4.507z" mask="url(#p6wp4z0h7b)"/>
                    <path fill="#FFAA40" fill-rule="nonzero" d="M225.485 166.38c-.01.001-.018.004-.026.009-.4.134-.808.238-1.224.31-1.418.221-2.867.138-4.25-.244-2.821-.719-5.83-2.436-8.855-4.742-12.743-9.719-25.75-29.893-25.75-29.893-3.94-7.7 5.891-15.195 12.7-11.667 0 0 17.082 14.041 26.43 26.781 3.16 4.308 5.44 8.468 5.87 11.886.268 2.095-.157 3.907-1.49 5.306-.936 1.016-2.105 1.79-3.405 2.254z" mask="url(#p6wp4z0h7b)"/>
                    <path fill="#494E6D" fill-rule="nonzero" d="M157.17 274.538c-6.855.003-12.52-5.349-12.904-12.193-1.602-28.977-2.306-58.661-1.627-80.433h28.281c-.893 24.8-1.113 53.659-.827 79.557.039 3.453-1.306 6.777-3.734 9.232-2.427 2.455-5.737 3.837-9.19 3.837z" mask="url(#p6wp4z0h7b)"/>
                    <path fill="#494E6D" fill-rule="nonzero" d="M157.159 249.623c-3.548 0-6.94 1.463-9.372 4.045-2.433 2.582-3.693 6.054-3.482 9.596 1.494 24.974 3.623 61.475 4.73 77.488h21.885c-.868-18.244-.605-55.647-.886-78.416-.088-7.048-5.827-12.715-12.875-12.713zM202.935 265.555c-6.692 1.486-13.38-2.513-15.236-9.112-7.834-27.944-14.943-56.773-18.991-78.176l27.612-6.12c4.493 24.407 10.522 52.63 16.404 77.853.785 3.362.192 6.9-1.647 9.821-1.84 2.923-4.771 4.987-8.142 5.734z" mask="url(#p6wp4z0h7b)"/>
                    <path fill="#494E6D" fill-rule="nonzero" d="M190.666 242.922c-2.623 2.388-4.145 5.754-4.205 9.301-.06 3.548 1.347 6.962 3.888 9.438 17.921 17.459 44.074 43.01 55.676 54.102l16.18-14.737c-12.928-12.903-37.92-40.732-53.46-57.376-4.81-5.151-12.87-5.476-18.079-.728z" mask="url(#p6wp4z0h7b)"/>
                    <path fill="#FFAA40" fill-rule="nonzero" d="M142.639 181.912s.724-57.4 16.55-65.571c9.075-4.684 27.854-3.412 37.431 3.06 9.665 6.531 2.839 62.51 2.839 62.51h-56.82z" mask="url(#p6wp4z0h7b)"/>
                    <path fill="#FD8B66" fill-rule="nonzero" d="M251.1 125.818s.05-3.222 1.546-5.387c1.496-2.165 2.773-3.436 3.028-6.509.255-3.073 3.585-2.255 3.244.4-.342 2.656-1.494 6.783 1.851 6.14 3.345-.643 7.5-8.305 10.344-3.679 0 0 2.707-2.953 3.877-1.615 1.17 1.338-1.266 4.03-1.266 4.03s4.735.784-2.683 6.508c0 0 1.77 1.431.48 2.729-2.064 2.074-8.173 4.443-13.372 4.865-8.451.686-7.05-7.482-7.05-7.482z" mask="url(#p6wp4z0h7b)"/>
                    <path fill="#E56542" fill-rule="nonzero" d="M262.729 123.338l-.188-.322c7.2-4.186 8.396-6.3 8.407-6.32l.33.175c-.046.087-1.213 2.202-8.55 6.467zM264.77 125.78l-.16-.338c4.018-1.89 8.94-6.337 8.989-6.381l.25.276c-.05.045-5.011 4.53-9.08 6.443zM265.585 128.575l-.155-.34c2.443-1.122 5.495-2.68 5.526-2.695l.17.333c-.031.015-3.09 1.577-5.541 2.702z" mask="url(#p6wp4z0h7b)"/>
                    <path fill="#FD8B66" fill-rule="nonzero" d="M118.572 104.094s.701-3.024-.133-5.517c-.835-2.494-1.68-4.084-1.197-7.032.484-2.949-2.678-3.237-2.988-.65-.309 2.586-.236 6.803-3.073 5.147-2.837-1.655-4.772-10.12-8.381-6.7 0 0-1.732-3.61-3.086-2.73-1.354.88.197 4.162.197 4.162s-4.408-.763.888 6.922c0 0-1.91.777-1.059 2.395 1.361 2.588 6.266 6.729 10.809 8.764 7.384 3.306 8.023-4.761 8.023-4.761z" mask="url(#p6wp4z0h7b)"/>
                    <path fill="#E56542" fill-rule="nonzero" d="M108.747 98.11c-5.558-6.293-6.109-8.633-6.13-8.729l.365-.08c.005.024.582 2.375 6.046 8.563l-.28.247zM106.36 99.745c-3.187-3.069-6.577-8.819-6.61-8.877l.321-.189c.034.057 3.398 5.764 6.548 8.798l-.259.268zM104.986 102.096c-1.927-1.824-4.296-4.246-4.32-4.27l.267-.262c.024.025 2.388 2.442 4.31 4.261l-.257.271z" mask="url(#p6wp4z0h7b)"/>
                    <path fill="#251138" fill-rule="nonzero" d="M145.637 150.647l-.761-.228c.097-.327 2.404-8.003 3.205-9.605l.711.356c-.77 1.541-3.13 9.398-3.155 9.477z" mask="url(#p6wp4z0h7b)"/>
                    <path fill="#251138" fill-rule="nonzero" d="M130.485 134.592L131.281 134.592 131.281 142.649 130.485 142.649z" mask="url(#p6wp4z0h7b)" transform="rotate(-10.534 130.883 138.62)"/>
                    <path fill="#251138" fill-rule="nonzero" d="M224.668 146.89L225.463 146.89 225.463 154.024 224.668 154.024z" mask="url(#p6wp4z0h7b)" transform="rotate(-8.97 225.065 150.457)"/>
                    <path fill="#494E6D" fill-rule="nonzero" d="M156.932 210.741L181.362 209.631 173.589 185.201 161.929 183.535z" mask="url(#p6wp4z0h7b)"/>
                    <path fill="#251138" fill-rule="nonzero" d="M171.89 198.922L164.815 198.333 166.809 182.098 167.598 182.195 165.705 197.609 171.956 198.13zM142.759 206.967L142.232 206.372 145.217 203.729 146.306 181.865 147.1 181.905 145.994 204.103zM202.895 206.678L198.056 205.129 192.451 182.149 193.223 181.96 198.723 204.508 203.137 205.921zM176.065 127.397c-.621 0-1.275-.034-1.96-.1-9.712-.952-8.88-13.989-8.871-14.12l.793.057c-.01.124-.785 12.395 8.156 13.271 9.319.915 11.936-4.777 14.389-12.312l.756.246c-2.305 7.08-4.938 12.958-13.263 12.958z" mask="url(#p6wp4z0h7b)"/>
                    <path fill="#251138" fill-rule="nonzero" d="M200.894 146.27L201.689 146.27 201.689 152.899 200.894 152.899z" mask="url(#p6wp4z0h7b)" transform="rotate(-6.591 201.292 149.585)"/>
                    <path fill="#FD8B66" fill-rule="nonzero" d="M175.37 124.111c-5.805 0-8.451-6.78-6.892-8.34.467-.492.838-1.068 1.096-1.696h.004c.393-.942.658-1.932.788-2.944l.004-.004 10.73-9.572c-.579 6.094 2.029 10.373 2.975 13.42.942 3.046-2.105 9.136-8.706 9.136z" mask="url(#p6wp4z0h7b)"/>
                    <path fill="#000" fill-rule="nonzero" d="M179.217 108.762c-3.077 5.886-9.46 5.3-9.64 5.314.394-.942.659-1.933.79-2.945l.003-.004c.29-.167 11.731-7.882 8.847-2.365z" mask="url(#p6wp4z0h7b)" opacity=".19"/>
                    <path fill="#251138" fill-rule="nonzero" d="M191.714 90.606s-.462 5.562-8.55 11.292c-8.479 6.008 1.173-12.456 1.173-12.456l7.377 1.164z" mask="url(#p6wp4z0h7b)"/>
                    <path fill="#FD8B66" fill-rule="nonzero" d="M169.637 87.265s-1.145 4.793-2.63 10.173c-2.121 7.69-2.302 13.909 5.532 13.909 13.157 0 12.28-21.833 12.28-21.833l-15.182-2.25z" mask="url(#p6wp4z0h7b)"/>
                    <path fill="#251138" fill-rule="nonzero" d="M180.589 91.98s-19.73-.442-17.01-13.786c2.72-13.343 10.459 3.195 14.471 3.195 4.707 0 17.527.686 12.821 11.889-1.22 2.91-3.172-.844-10.282-1.299z" mask="url(#p6wp4z0h7b)"/>
                    <circle cx="183.401" cy="103.686" r="3.97" fill="#FD8B66" fill-rule="nonzero" mask="url(#p6wp4z0h7b)"/>
                    <path fill="#251138" fill-rule="nonzero" d="M184.276 95.948s-2.153 5.248-4.845 6.863c-2.691 1.615-7.132-2.691-13.591-1.48 0 0-.539 7.132 1.748 11.034 0 0 6.863 1.346 10.9-3.095 2.57-2.877 4.868-5.985 6.863-9.286l-1.075-4.036z" mask="url(#p6wp4z0h7b)"/>
                    <path fill="#FFF" fill-rule="nonzero" d="M168.127 103.619l4.172.538s-.404 3.7-2.691 3.364c-2.288-.336-1.48-3.902-1.48-3.902z" mask="url(#p6wp4z0h7b)"/>
                    <circle cx="174.801" cy="95.443" r="1" fill="#8E3332" fill-rule="nonzero" mask="url(#p6wp4z0h7b)"/>
                    <circle cx="170.077" cy="94.4" r="1" fill="#8E3332" fill-rule="nonzero" mask="url(#p6wp4z0h7b)"/>
                    <path fill="#9FA3BF" fill-rule="nonzero" d="M264.548 263.867c-9.477-14.11-19.344-29.716-17.418-31.253.7-.557 2.714.921 4.244 2.044 11.253 8.256 13.99 23.051 14.734 28.415l-1.56.794z" mask="url(#p6wp4z0h7b)"/>
                    <path fill="#30354F" fill-rule="nonzero" d="M264.84 260.781c-.074 0-.14-.043-.17-.11-3.565-8.172-8.238-15.814-13.886-22.712-.059-.08-.045-.19.032-.253.076-.062.188-.054.253.02 5.67 6.924 10.36 14.595 13.94 22.798.024.057.018.122-.016.174-.034.052-.092.083-.154.083z" mask="url(#p6wp4z0h7b)"/>
                    <path fill="#9FA3BF" fill-rule="nonzero" d="M268.473 264.068c9.121-14.344 18.594-30.191 16.63-31.68-.712-.54-2.69.99-4.191 2.15-11.043 8.536-13.409 23.394-14.018 28.775l1.58.755z" mask="url(#p6wp4z0h7b)"/>
                    <path fill="#30354F" fill-rule="nonzero" d="M268.1 260.99c-.024 0-.047-.004-.07-.013-.093-.039-.139-.146-.1-.24 3.372-8.29 7.869-16.076 13.363-23.14.062-.08.178-.095.259-.033.08.063.095.178.032.259-5.473 7.038-9.952 14.794-13.312 23.053-.029.07-.097.114-.172.114z" mask="url(#p6wp4z0h7b)"/>
                    <path fill="#5F6386" fill-rule="nonzero" d="M264.751 263.681c-2.093-26.472-3.572-55.277.228-55.893 1.378-.224 2.99 3.333 4.212 6.033 8.996 19.862 1.389 42.1-1.708 49.974l-2.732-.114z" mask="url(#p6wp4z0h7b)"/>
                    <path fill="#30354F" fill-rule="nonzero" d="M266.46 262.727c-.055 0-.106-.024-.141-.065-.035-.04-.05-.095-.042-.149 2.374-14.901 2.565-30.069.568-45.026-.013-.1.058-.193.159-.207.1-.013.193.058.207.159 2.001 14.992 1.81 30.195-.57 45.132-.014.09-.091.156-.182.156z" mask="url(#p6wp4z0h7b)"/>
                    <path fill="#9FA3BF" fill-rule="nonzero" d="M93.13 263.033c-11.352-16.901-23.17-35.593-20.863-37.434.837-.668 3.25 1.104 5.083 2.447 13.479 9.89 16.756 27.61 17.648 34.035l-1.869.952z" mask="url(#p6wp4z0h7b)"/>
                    <path fill="#30354F" fill-rule="nonzero" d="M93.478 259.336c-.088 0-.167-.052-.202-.132-4.27-9.788-9.867-18.941-16.632-27.204-.05-.06-.065-.145-.038-.219.028-.074.094-.128.172-.14.079-.013.158.017.208.08 6.79 8.293 12.407 17.481 16.694 27.306.03.068.024.146-.017.209-.041.062-.11.1-.185.1z" mask="url(#p6wp4z0h7b)"/>
                    <path fill="#9FA3BF" fill-rule="nonzero" d="M97.831 263.273c10.925-17.18 22.271-36.162 19.918-37.944-.853-.647-3.222 1.185-5.02 2.574-13.226 10.224-16.06 28.02-16.79 34.466l1.892.904z" mask="url(#p6wp4z0h7b)"/>
                    <path fill="#30354F" fill-rule="nonzero" d="M97.384 259.587c-.073 0-.142-.037-.183-.098-.04-.06-.049-.138-.021-.206 4.04-9.929 9.425-19.255 16.006-27.716.048-.063.126-.096.205-.086.08.01.146.063.176.137.03.074.017.158-.033.22-6.555 8.43-11.92 17.72-15.945 27.61-.034.084-.115.139-.205.139z" mask="url(#p6wp4z0h7b)"/>
                    <path fill="#5F6386" fill-rule="nonzero" d="M93.373 262.81c-2.507-31.707-4.278-66.208.272-66.947 1.651-.267 3.58 3.993 5.045 7.227 10.775 23.79 1.663 50.426-2.045 59.856l-3.272-.136z" mask="url(#p6wp4z0h7b)"/>
                    <path fill="#30354F" fill-rule="nonzero" d="M95.419 261.667c-.012 0-.024-.001-.035-.003-.058-.01-.11-.04-.144-.088-.035-.048-.049-.107-.04-.165 1.597-10.043 2.371-20.2 2.316-30.369-.048-7.88-.594-15.749-1.635-23.56-.015-.12.07-.23.19-.246.12-.016.23.068.248.188 1.043 7.83 1.59 15.717 1.638 23.616.056 10.193-.72 20.373-2.32 30.44-.018.107-.11.187-.218.187z" mask="url(#p6wp4z0h7b)"/>
                    <rect width="313.1" height="1.921" x="25.116" y="261.511" fill="url(#8160dr7xec)" mask="url(#p6wp4z0h7b)" opacity=".5" rx=".955"/>
                    <path fill="#494E6D" fill-rule="nonzero" d="M95.342 184.276H29.977c-3.608 0-6.533-2.925-6.533-6.533v-33.028c0-1.732.688-3.394 1.913-4.62 1.225-1.225 2.887-1.913 4.62-1.913h65.365c1.732 0 3.394.689 4.62 1.914 1.224 1.225 1.913 2.887 1.913 4.62v33.027c0 3.608-2.926 6.533-6.533 6.533z" mask="url(#p6wp4z0h7b)"/>
                    <path fill="#494E6D" fill-rule="nonzero" d="M98.13 162.278L111.333 175.481 98.918 175.481z" mask="url(#p6wp4z0h7b)"/>
                    <rect width="56.754" height="3.801" x="34.677" y="149.272" fill="#FFF" fill-rule="nonzero" mask="url(#p6wp4z0h7b)" rx="1.901"/>
                    <rect width="37.245" height="3.801" x="34.677" y="159.046" fill="#FFF" fill-rule="nonzero" mask="url(#p6wp4z0h7b)" rx="1.901"/>
                    <rect width="49.462" height="3.801" x="34.677" y="169.907" fill="#FFF" fill-rule="nonzero" mask="url(#p6wp4z0h7b)" rx="1.901"/>
                    <circle cx="24.429" cy="139.152" r="10.094" fill="#FFAA40" fill-rule="nonzero" mask="url(#p6wp4z0h7b)"/>
                    <path fill="#FFF" fill-rule="nonzero" d="M22.587 141.037c-.001-.218.014-.435.046-.65.03-.208.09-.41.178-.6.093-.2.221-.384.378-.54.19-.186.41-.341.648-.459l.533-.273c.225-.116.441-.247.648-.392.206-.144.39-.316.548-.51.15-.182.233-.41.232-.645.012-.3-.127-.586-.37-.762-.246-.181-.544-.277-.85-.273-.188-.004-.375.034-.548.111-.154.07-.3.16-.432.266-.126.1-.237.218-.332.348l-.247.34-1.59-1.065c.26-.595.708-1.088 1.274-1.406.6-.34 1.279-.513 1.968-.503.397 0 .791.056 1.173.163.38.103.736.28 1.05.518.316.246.574.56.756.917.206.423.307.89.293 1.361.018.496-.108.987-.363 1.413-.275.412-.643.754-1.073.999-.211.135-.43.259-.656.37-.21.101-.413.215-.61.34-.17.105-.322.24-.446.399-.116.153-.175.34-.17.532l-2.038.001zm.046 3.625v-2.22h2.023v2.22h-2.023z" mask="url(#p6wp4z0h7b)"/>
                    <path fill="#494E6D" fill-rule="nonzero" d="M238.533 97.87h70.364c3.884 0 7.033-3.148 7.033-7.032V55.283c0-1.865-.741-3.653-2.06-4.972-1.319-1.319-3.108-2.06-4.973-2.06h-70.364c-1.865 0-3.654.741-4.973 2.06-1.318 1.319-2.06 3.107-2.06 4.972v35.555c0 1.865.742 3.654 2.06 4.973 1.32 1.319 3.108 2.06 4.973 2.06z" mask="url(#p6wp4z0h7b)"/>
                    <path fill="#494E6D" fill-rule="nonzero" d="M235.531 74.19L221.318 88.403 234.682 88.403z" mask="url(#p6wp4z0h7b)"/>
                    <rect width="61.095" height="4.092" x="242.744" y="60.189" fill="#FFF" fill-rule="nonzero" mask="url(#p6wp4z0h7b)" rx="2.046" transform="rotate(-180 273.291 62.235)"/>
                    <rect width="40.094" height="4.092" x="263.745" y="70.711" fill="#FFF" fill-rule="nonzero" mask="url(#p6wp4z0h7b)" rx="2.046" transform="rotate(180 283.792 72.757)"/>
                    <rect width="53.246" height="4.092" x="250.593" y="82.402" fill="#FFF" fill-rule="nonzero" mask="url(#p6wp4z0h7b)" rx="2.046" transform="rotate(180 277.216 84.448)"/>
                    <circle cx="314.871" cy="49.294" r="10.866" fill="#FFAA40" fill-rule="nonzero" mask="url(#p6wp4z0h7b)"/>
                    <circle cx="126.175" cy="59.365" r="20.142" fill="#FFAA40" fill-rule="nonzero" mask="url(#p6wp4z0h7b)"/>
                    <path fill="#FFF" fill-rule="nonzero" d="M121.83 63.127c-.002-.434.03-.869.092-1.299.061-.413.18-.815.354-1.195.186-.401.442-.766.755-1.078.38-.372.817-.68 1.294-.915.267-.138.62-.32 1.063-.546.449-.231.88-.492 1.294-.783.41-.286.779-.629 1.093-1.018.3-.361.464-.816.462-1.285.025-.598-.253-1.17-.74-1.52-.489-.363-1.084-.555-1.693-.546-.377-.007-.75.068-1.094.221-.308.141-.598.32-.863.532-.25.2-.473.434-.662.693l-.493.68-3.173-2.125c.52-1.186 1.413-2.17 2.542-2.805 1.196-.679 2.552-1.025 3.927-1.004.792.002 1.58.11 2.342.325.758.206 1.47.557 2.095 1.033.632.492 1.147 1.117 1.51 1.83.411.845.612 1.777.585 2.717 0 1.122-.242 2.061-.724 2.82-.55.82-1.283 1.502-2.142 1.991-.422.27-.86.517-1.31.739-.417.203-.823.43-1.216.68-.342.21-.645.48-.894.796-.23.306-.349.68-.339 1.063h-4.066zm.092 7.234v-4.43h4.035v4.43h-4.035z" mask="url(#p6wp4z0h7b)"/>
                    <circle cx="262.661" cy="186.311" r="9.541" fill="#FFAA40" fill-rule="nonzero" mask="url(#p6wp4z0h7b)"/>
                    <circle cx="188.985" cy="10.601" r="9.541" stroke="#494E6D" mask="url(#p6wp4z0h7b)"/>
                    <circle cx="125.115" cy="204.067" r="7.023" stroke="#494E6D" mask="url(#p6wp4z0h7b)"/>
                    <circle cx="77.676" cy="87.987" r="7.156" fill="#494E6D" fill-rule="nonzero" mask="url(#p6wp4z0h7b)"/>
                    <circle cx="291.151" cy="131.584" r="5.963" fill="#494E6D" fill-rule="nonzero" mask="url(#p6wp4z0h7b)"/>
                    <circle cx="196.141" cy="61.485" r="7.156" fill="#FFAA40" fill-rule="nonzero" mask="url(#p6wp4z0h7b)"/>
                    <path fill="url(#ryqr8tv3bd)" d="M215.206 254.308c-22.156-3.146-26.637-10.391-47.704-10.866-28.588-.644-29.513 12.491-56.185 11.926-30.136-.638-42.6-17.343-59.895-6.89-7.096 4.289-15.892 14.285-15.636 14.576.07.08.876-.512 1.59-1.06h281.19c-8.382-5.612-22.263-13.252-40.284-15.107-25.749-2.649-34.4 11.493-63.076 7.421z" mask="url(#p6wp4z0h7b)" opacity=".5"/>
                    <path fill="#30354F" fill-rule="nonzero" d="M170.656 101.307c.416-.004.827-.096 1.205-.27l-.308-.68c-1.003.452-1.87.054-2.086-.394-.19-.394.096-.835.765-1.18 2.46-1.263 2.108-3.897 2.104-3.924l-.739.107c.012.086.272 2.137-1.706 3.153-1.267.651-1.383 1.575-1.097 2.168.284.587.994 1.02 1.862 1.02zM176.938 94.378l.681-.307c-.427-.987-1.357-1.666-2.428-1.772l-.04.746c.792.09 1.474.6 1.787 1.333zM171.666 92.274l.432-.609c-1.269-.9-2.93-.519-3-.502l.172.726c.013-.003 1.406-.318 2.396.385z" mask="url(#p6wp4z0h7b)"/>
                </g>
            </g>
        </g>
    </g>
</svg>
