<svg xmlns="http://www.w3.org/2000/svg" xmlns:xlink="http://www.w3.org/1999/xlink" width="180" height="180" viewBox="0 0 180 180">
    <defs>
        <ellipse id="dmn6uw6gxa" cx="90" cy="89.591" rx="90" ry="89.591"/>
    </defs>
    <g fill="none" fill-rule="evenodd">
        <g>
            <g transform="translate(-90.000000, -747.000000) translate(90.000000, 747.000000)">
                <mask id="2ckb631t3b" fill="#fff">
                    <use xlink:href="#dmn6uw6gxa"/>
                </mask>
                <use fill="#EFF3FE" fill-opacity=".5" xlink:href="#dmn6uw6gxa"/>
                <g mask="url(#2ckb631t3b)">
                    <g fill-rule="nonzero">
                        <g>
                            <path fill="#30354F" d="M141.486 139.177c-3.422-.686-5.712-3.925-5.218-7.38 2.105-14.624 4.765-29.032 7.286-39.832l14.785-1.104c-2.933 12.29-6.639 30.132-9.092 43.088-.327 1.727-1.331 3.252-2.789 4.234-1.458.982-3.248 1.34-4.972.994z" transform="translate(3.176408, 15.136495) translate(0.234303, 0.000000)"/>
                            <path fill="#30354F" d="M137.258 127.82c-1.473 1.044-2.45 2.651-2.7 4.44-.571 4.107-1.515 10.686-2.83 19.739 3.423-1.618 8.259-5.35 14.508-11.198 1.279-1.197.881-4.42 1.258-6.424.663-3.527-1.633-6.932-5.152-7.637-1.771-.356-3.61.034-5.084 1.08zM158.874 127.923c-1.959-17.839-3.084-30.122-3.376-36.85L169.856 90c.135 3.505.416 9.03.841 16.574l-11.823 21.349z" transform="translate(3.176408, 15.136495) translate(0.234303, 0.000000)"/>
                            <path fill="#30354F" d="M150.435 107.293l10.744-.378-1.964-9.207s-4.097.164-5.084.238c-.988.074-3.696 9.347-3.696 9.347z" transform="translate(3.176408, 15.136495) translate(0.234303, 0.000000)"/>
                            <g transform="translate(3.176408, 15.136495) translate(0.234303, 0.000000) translate(0.237204, 0.408960)">
                                <g transform="translate(0.442993, 0.000000)">
                                    <path fill="#5F6386" d="M126.83 13.118v126.728c0 7.173-5.813 12.989-12.984 12.989h-58.66c-7.171 0-12.984-5.816-12.984-12.99V13.119c0-3.445 1.367-6.749 3.802-9.185C48.44 1.497 51.742.13 55.185.13h58.66c7.172 0 12.986 5.816 12.986 12.99z"/>
                                    <path fill="#EBEDFC" d="M111.09 147.862H57.941c-7.17 0-12.984-5.815-12.984-12.99V18.093c0-3.446 1.368-6.75 3.803-9.186 2.435-2.436 5.738-3.804 9.181-3.804h53.148c7.17 0 12.984 5.815 12.984 12.99v116.78c0 7.174-5.813 12.99-12.984 12.99z"/>
                                    <path fill="#5F6386" d="M70.912 3.52h27.054v1.416c0 1.332-.529 2.61-1.47 3.552-.942.941-2.219 1.47-3.55 1.47H75.932c-2.772 0-5.02-2.248-5.02-5.022V3.52z"/>
                                    <ellipse cx="84.553" cy="4.738" fill="#2A2E42" rx="2.901" ry="2.902"/>
                                    <path fill="#F8F9FF" d="M52.993 34.887H117.55799999999999V53.983000000000004H52.993zM52.993 61.425H117.55799999999999V80.521H52.993zM52.993 89.93H117.55799999999999V109.02600000000001H52.993zM52.993 118.434H117.55799999999999V137.53H52.993z"/>
                                    <rect width="15.72" height="14.322" x="55.239" y="37.274" fill="#EBEDFC" rx="2.751"/>
                                    <ellipse cx="63.099" cy="44.435" fill="#FFAA40" rx="5.334" ry="5.336"/>
                                    <rect width="29.335" height="1.123" x="76.714" y="46.963" fill="#EBEDFC" rx=".497"/>
                                    <rect width="21.756" height="1.123" x="76.854" y="43.171" fill="#EBEDFC" rx=".497"/>
                                    <rect width="29.335" height="1.123" x="76.854" y="39.099" fill="#EBEDFC" rx=".497"/>
                                    <rect width="15.72" height="14.322" x="55.098" y="63.812" fill="#EBEDFC" rx="2.751"/>
                                    <ellipse cx="62.959" cy="70.974" fill="#FFAA40" rx="5.334" ry="5.336"/>
                                    <rect width="29.335" height="1.123" x="76.573" y="73.501" fill="#EBEDFC" rx=".497"/>
                                    <rect width="21.756" height="1.123" x="76.714" y="69.71" fill="#EBEDFC" rx=".497"/>
                                    <rect width="29.335" height="1.123" x="76.714" y="65.638" fill="#EBEDFC" rx=".497"/>
                                    <rect width="15.72" height="14.322" x="55.239" y="92.317" fill="#EBEDFC" rx="2.751"/>
                                    <ellipse cx="63.099" cy="99.478" fill="#FFAA40" rx="5.334" ry="5.336"/>
                                    <rect width="29.335" height="1.123" x="76.714" y="102.005" fill="#EBEDFC" rx=".497"/>
                                    <rect width="21.756" height="1.123" x="76.854" y="98.214" fill="#EBEDFC" rx=".497"/>
                                    <rect width="29.335" height="1.123" x="76.854" y="94.142" fill="#EBEDFC" rx=".497"/>
                                    <rect width="15.72" height="14.322" x="55.239" y="120.821" fill="#EBEDFC" rx="2.751"/>
                                    <ellipse cx="63.099" cy="127.982" fill="#FFAA40" rx="5.334" ry="5.336"/>
                                    <rect width="29.335" height="1.123" x="76.714" y="130.51" fill="#EBEDFC" rx=".497"/>
                                    <rect width="21.756" height="1.123" x="76.854" y="126.718" fill="#EBEDFC" rx=".497"/>
                                    <rect width="29.335" height="1.123" x="76.854" y="122.646" fill="#EBEDFC" rx=".497"/>
                                    <path fill="#FFF" d="M42.138 13.118v126.728c0 7.173 5.813 12.989 12.984 12.989h42.934c-5.062-.86-9.471-2.561-13.313-4.973-24.981-15.693-25.895-61.495-25.895-102.023 0-17.687 6.788-29.265 15.23-36.827 1.575-1.41 3.24-2.716 4.984-3.91.81-.558 1.626-1.085 2.445-1.581 2.084-1.267 4.247-2.4 6.474-3.393H55.123c-7.171 0-12.984 5.816-12.984 12.99h-.001z" opacity=".23"/>
                                    <path fill="#FD8B66" d="M145.744 57.588s-5.648 3.11-11.421 6.738c-6.4 4.023-12.902 8.766-10.873 12.401 4.468 8.005 27.308-11.717 27.308-11.717 3.076-3.61-.933-8.441-5.014-7.422z"/>
                                    <path fill="#FFAA40" d="M135.877 62.15c1.324 3.886 3.587 7.699 6.788 11.438l11.71-10.447-5.377-7.746-13.121 6.755z"/>
                                    <g fill="#FD8B66">
                                        <path d="M11.088 7.326s25.994 12.092 22.688 18.27C30.048 32.565 7.93 10.413 7.93 10.413s-.513-2.217 3.158-3.086z" transform="translate(96.006713, 51.618684)"/>
                                        <path d="M12.693 8.1s.157-1.588-.517-2.818-1.282-1.997-1.243-3.535c.04-1.538-1.781-1.508-1.75-.166.031 1.343.41 3.498-1.335 2.809-1.745-.69-3.523-4.917-5.3-2.962 0 0-1.274-1.753-1.973-1.226-.7.526.445 2.12.445 2.12s-2.566-.144 1.06 3.496c0 0-1.025.505-.412 1.286.982 1.25 4.1 3.096 6.846 3.884 4.462 1.28 4.18-2.888 4.18-2.888z" transform="translate(96.006713, 51.618684)"/>
                                        <path d="M6.613 5.623l.173-.218c-3.613-2.873-4.105-4.02-4.11-4.03l-.257.105c.02.048.523 1.225 4.194 4.143zM5.389 6.596l.156-.231c-2.03-1.375-4.396-4.106-4.42-4.134l-.21.182c.023.028 2.413 2.786 4.474 4.183zM4.796 7.877l.154-.232c-1.237-.824-2.774-1.93-2.79-1.94l-.162.225c.015.012 1.556 1.12 2.798 1.947z" transform="translate(96.006713, 51.618684)"/>
                                    </g>
                                    <path fill="#FFAA40" d="M142.395 92.469s-1.985-31.423 5.55-36.48c4.32-2.9 13.708-2.902 18.734.282 5.072 3.213 3.965 34.086 3.965 34.086l-28.25 2.112z"/>
                                    <path fill="#FD8B66" d="M163.067 58.814s-4.163 4.925-8.257 10.38c-4.539 6.047-8.914 12.803-5.719 15.472 7.035 5.876 21.311-20.715 21.311-20.715 1.583-4.471-3.89-7.549-7.335-5.137z"/>
                                    <path fill="#FFAA40" d="M155.483 66.605c2.813 3.681 6.406 6.269 10.43 8.253l4.656-9.02c1.451-2.813.577-6.266-2.038-8.048l-4.424-3.015-8.624 11.83z"/>
                                    <path fill="#FD8B66" d="M155.019 59.217c-3.274.245-5.052-3.47-4.238-4.414.242-.298.428-.638.546-1.003h.003c.182-.548.29-1.118.32-1.695l.002-.003 5.649-5.852c-.07 3.463 1.58 5.767 2.242 7.446.66 1.679-.802 5.242-4.524 5.52z"/>
                                    <path fill="#231F20" d="M5.271 1.174C3.784 4.624.16 4.564.06 4.578.241 4.03.35 3.46.38 2.883l.003-.002c.156-.106 6.283-4.941 4.89-1.707z" opacity=".14" transform="translate(151.270490, 49.221095)"/>
                                    <path fill="#FD8B66" d="M152.884 52.134c-3.163.237-4.143-1.498-4.125-4.128.013-.743.08-1.483.197-2.216.062-.412.137-.836.223-1.27.61-3.098 1.055-5.85 1.055-5.85l8.657.628s1.414 12.281-6.007 12.836z"/>
                                    <path fill="#E08716" d="M155.246 61.35c3.02-.226 5.404-2.474 7.1-6.702l-.517-.207c-1.846 4.602-4.513 6.728-7.924 6.32-3.693-.442-4.893-5.235-4.905-5.284l-.54.131c.05.213 1.306 5.219 5.379 5.706.467.057.938.069 1.407.035zM167.135 72.107l.237-.503c-.069-.033-6.935-3.294-9.558-6.328l-.42.364c2.7 3.123 9.455 6.332 9.74 6.467z"/>
                                    <path fill="#30354F" d="M157.437 103.642L157.544 103.095 153.297 102.258 154.174 92.056 153.619 92.008 152.699 102.708z"/>
                                    <path fill="#30354F" d="M168.562 90.4L168.562 90.4 168.56 102.163 168.56 102.163z" transform="translate(168.561263, 96.281708) rotate(-25.513000) translate(-168.561263, -96.281708)"/>
                                    <path fill="#30354F" d="M135.688 98.663L149.893 98.661 149.893 98.661 135.688 98.663z" transform="translate(142.790801, 98.662345) rotate(-63.310000) translate(-142.790801, -98.662345)"/>
                                    <ellipse cx="158.688" cy="47.355" fill="#FD8B66" rx="2.245" ry="2.246"/>
                                    <path fill="#FFF" d="M150.07 47.96l2.376.128s-.071 2.105-1.376 2.012c-1.304-.093-1-2.14-1-2.14z"/>
                                    <circle cx="153.49" cy="43.067" r="1" fill="#8E3332"/>
                                    <circle cx="150.782" cy="42.677" r="1" fill="#8E3332"/>
                                    <path fill="#8E3332" d="M151.449 46.497c.244-.02.48-.092.694-.211l-.266-.49c-.51.278-.976.113-1.103-.108-.154-.265.236-.532.359-.606.812-.494 1.232-1.441 1.051-2.375l-.543.121.272-.06-.272.06c.13.7-.188 1.41-.799 1.779-.728.446-.752 1.011-.55 1.36.196.34.64.569 1.157.53zM154.635 42.288l.489-.265c-.295-.561-.871-.918-1.505-.933l.011.557c.426.019.809.263 1.005.641zM151.597 41.35l.287-.477c-.779-.47-1.728-.177-1.768-.164l.168.531c.007-.003.752-.229 1.313.11z"/>
                                    <g>
                                        <path fill="#C7C7E3" d="M0.917 21.699L19.187 16.941 8.899 4.671 5.044 0.074 3.921 5.962z" transform="translate(110.696224, 29.617278)"/>
                                        <path fill="#5F6386" d="M13.535 17.262L32.406 17.26 32.396 120.607 13.525 120.609z" transform="translate(110.696224, 29.617278) translate(22.965759, 68.934499) rotate(165.408000) translate(-22.965759, -68.934499)"/>
                                        <path fill="#5F6386" d="M3.92 5.962c.883.54 1.857.743 2.79.5.934-.243 1.682-.892 2.19-1.79L5.043.073 3.921 5.962z" transform="translate(110.696224, 29.617278)"/>
                                        <path fill="#C7C7E3" d="M24.462 14.271L28.539 14.27 28.528 119.654 24.452 119.655z" transform="translate(110.696224, 29.617278) translate(26.495178, 66.962577) rotate(165.408000) translate(-26.495178, -66.962577)"/>
                                        <path fill="#C7C7E3" d="M16.636 16.31L20.712 16.309 20.702 121.693 16.625 121.693z" transform="translate(110.696224, 29.617278) translate(18.668863, 69.001129) rotate(165.408000) translate(-18.668863, -69.001129)"/>
                                        <path fill="#C7C7E3" d="M31.373 116.873h11.694c2.418-.002 4.377 1.958 4.378 4.375h-.001v1.435c-.001 2.417-1.96 4.376-4.378 4.377l-11.694.001c-2.418.001-4.378-1.958-4.378-4.376l.001-1.434c.001-2.417 1.96-4.377 4.378-4.378z" transform="translate(110.696224, 29.617278) translate(37.219377, 121.966664) rotate(165.408000) translate(-37.219377, -121.966664)"/>
                                    </g>
                                    <g fill="#FD8B66">
                                        <path d="M11.117 7.431S37.12 19.022 33.34 25.997C29.078 33.862 7.68 11.01 7.68 11.01s-.393-2.395 3.437-3.579z" transform="translate(121.241958, 57.824209)"/>
                                        <path d="M12.722 8.177s.258-1.75-.36-3.053c-.618-1.304-1.197-2.106-1.063-3.792.134-1.685-1.74-1.537-1.79-.07-.05 1.467.208 3.804-1.545 3.16C6.21 3.776 4.64-.739 2.692 1.513c0 0-1.203-1.838-1.954-1.218-.752.621.328 2.294.328 2.294s-2.631.005.876 3.76c0 0-1.085.618-.501 1.435.932 1.305 4.028 3.129 6.804 3.817 4.512 1.12 4.477-3.425 4.477-3.425z" transform="translate(121.241958, 57.824209)"/>
                                        <path d="M6.625 5.833l.177-.215C3.292 2.727 2.828 1.481 2.824 1.47l-.264.089c.017.052.465 1.31 4.065 4.275zM5.307 6.976l.158-.23c-2.002-1.375-4.268-4.214-4.29-4.242l-.218.173c.023.029 2.314 2.9 4.35 4.299zM4.619 8.416l.155-.23c-1.222-.824-2.735-1.937-2.75-1.948l-.165.224c.015.011 1.533 1.128 2.76 1.954z" transform="translate(121.241958, 57.824209)"/>
                                    </g>
                                    <path fill="#FFAA40" d="M27.312 128.894s2.78-.691 1.495-4.168c-1.285-3.477-3.07-3.877-4.115-2.141-1.045 1.736-.757 7.991 2.62 6.309z"/>
                                    <g>
                                        <g>
                                            <path fill="#FFAA40" d="M15.052 39.369s-3.409-5.471-3.562-9.467c-.153-3.996-.36-4.807-2.874-6.76-2.514-1.954-4.078-3.572-3.382-7.063.695-3.492-.02-4.606-2.535-6.559C.186 7.568-1.08 4.288 1.343 1.365c2.425-2.924 8.02-.747 9.525 2.904 1.506 3.65.2 7.01 4.31 10.14 4.111 3.131 2.095 6.527 1.835 8.9-.26 2.372 3.367 3.608 2.969 5.439-.398 1.83-2.676 14.946-4.93 10.62z" transform="translate(0.000000, 72.773882) translate(0.000000, 29.758312)"/>
                                            <path fill="#30354F" d="M16.69 38.962c-.906-1.136-1.105-2.693-1.271-4.092-.164-1.388-.207-2.787-.13-4.183.134-2.447.532-4.964-.681-7.22-.992-1.846-2.657-3.206-3.738-4.99-1.362-2.25-.737-4.935-1.744-7.304-1.121-2.635-3.372-4.512-5.55-6.262-.21-.169-.51.129-.298.3C5.33 6.859 7.45 8.604 8.602 11.035c1.105 2.335.466 5.031 1.706 7.312.999 1.84 2.664 3.198 3.737 4.987 1.466 2.444.888 5.197.798 7.887-.05 1.508.04 3.019.27 4.51.193 1.265.465 2.51 1.278 3.53.169.213.467-.088.299-.3z" transform="translate(0.000000, 72.773882) translate(0.000000, 29.758312)"/>
                                        </g>
                                        <g>
                                            <path fill="#5F6386" d="M13.686 71.223s3.395-10.696 1.934-17.5-1.462-8.262 1.937-12.638c3.399-4.377 5.34-7.78 2.665-13.369-2.675-5.588-1.948-7.776 1.451-12.152 3.399-4.377 4.124-10.453-1.222-14.338-5.347-3.886-13.846 2.194-14.815 9-.968 6.805 2.68 11.907-2.905 18.958-5.583 7.05-.722 11.909.738 15.797 1.46 3.887-4.126 7.536-2.667 10.451 1.46 2.916 10.945 24.055 12.884 15.79z" transform="translate(0.000000, 72.773882) translate(16.494545, 0.000000)"/>
                                            <path fill="#30354F" d="M11.25 71.536c.864-1.856.833-3.894.663-5.892-.192-2.257-.566-4.494-1.116-6.69-1.111-4.43-3.621-8.932-2.846-13.62.623-3.77 2.987-6.934 4.199-10.503.628-1.81.829-3.742.586-5.643-.287-2.271-.912-4.474-.753-6.784.366-5.328 3.632-9.817 6.728-13.939.163-.217-.204-.428-.366-.213-2.647 3.524-5.331 7.207-6.382 11.565-.51 2.117-.515 4.222-.158 6.362.378 2.274.883 4.5.414 6.802-.76 3.731-3.132 6.868-4.251 10.476-.57 1.837-.715 3.779-.422 5.68.339 2.273 1.149 4.44 1.868 6.612.838 2.499 1.45 5.068 1.827 7.676.358 2.55.77 5.481-.355 7.897-.115.245.25.46.365.214z" transform="translate(0.000000, 72.773882) translate(16.494545, 0.000000)"/>
                                        </g>
                                    </g>
                                </g>
                                <path fill="#8E3332" d="M151.017 39.989s2.766 2.077 8.713-.554c0 0-1.66 2.077-.968 5.54l.138 1.661.553-1.523 1.723.945s4.085-3.576 2.564-8.008c-1.521-4.432-13.414-8.171-12.723 1.939z"/>
                                <circle cx="166.125" cy="35.591" r="5.318" fill="#8E3332"/>
                                <circle cx="155.488" cy="47.045" r="1.227" fill="#8E3332" opacity=".29"/>
                                <path fill="#8E3332" d="M150.17 47.027c0 .653-.356 1.195-.818 1.246.01-.823.063-1.643.156-2.455.39.144.662.641.662 1.21z" opacity=".29"/>
                            </g>
                        </g>
                        <path fill="#30354F" d="M160.03 127.32c-.825 1.607-.95 3.483-.345 5.185.604 1.702 1.885 3.08 3.538 3.806 11.661 5.125 26.133 11.328 33.644 14.546l5.084-9.915c-8.467-3.844-22.792-11.34-33.172-16.502-3.213-1.597-7.113-.314-8.75 2.88z" transform="translate(3.176408, 15.136495)"/>
                    </g>
                </g>
            </g>
        </g>
    </g>
</svg>
