<svg xmlns="http://www.w3.org/2000/svg" xmlns:xlink="http://www.w3.org/1999/xlink" width="463" height="368" viewBox="0 0 463 368">
    <defs>
        <linearGradient id="o7esbasekc" x1="50%" x2="50%" y1="0%" y2="100%">
            <stop offset="0%" stop-color="#FFC260"/>
            <stop offset="100%" stop-color="#EDA54F"/>
        </linearGradient>
        <path id="yp61que1va" d="M6.828 259.769C-10.714 107.922 8.968 59.255 35.001 47.913c28.967-12.617 61.177 22.99 117.772 7.865 36.57-9.773 38.542-28.761 72.51-43.482 66.78-28.94 170.313-3.721 192.13 48.57 21.677 51.953-44.237 114.031-15.244 148.02 17.005 19.934 57.462 19.434 60.503 41.169.71 5.079-.897 9.416-1.847 11.564l-453.997-1.85z"/>
    </defs>
    <g fill="none" fill-rule="evenodd">
        <g>
            <g>
                <g>
                    <path fill="#FFEAEA" fill-rule="nonzero" d="M6.828 339.988c-17.542-151.847 2.14-200.514 28.173-211.856 28.967-12.617 61.177 22.99 117.772 7.864 36.57-9.772 38.542-28.76 72.51-43.48 66.78-28.94 170.313-3.722 192.13 48.568 21.677 51.954-44.237 114.032-15.244 148.021 17.005 19.934 57.462 19.434 60.503 41.169.71 5.078-.897 9.415-1.847 11.564l-453.997-1.85z" transform="translate(-80 -226) translate(80 226) translate(0 24)"/>
                    <g transform="translate(-80 -226) translate(80 226) translate(0 24) translate(0 80.219)">
                        <mask id="whz2ie9n7b" fill="#fff">
                            <use xlink:href="#yp61que1va"/>
                        </mask>
                        <use fill="#FFF" xlink:href="#yp61que1va"/>
                        <g stroke-width="12" mask="url(#whz2ie9n7b)">
                            <g transform="translate(-40.306 -142.841)">
                                <ellipse cx="94.28" cy="326.245" stroke="#F0F3FD" rx="57.96" ry="58.05"/>
                                <ellipse cx="58.389" cy="300.813" stroke="#F0F3FD" rx="57.96" ry="58.05"/>
                                <ellipse cx="243.542" cy="187.79" stroke="#FFF" rx="91.657" ry="91.799"/>
                                <ellipse cx="239.213" cy="169.799" stroke="#FFF" rx="73.909" ry="78.445" transform="rotate(-18.967 239.213 169.799)"/>
                                <ellipse cx="266.984" cy="98.269" stroke="#FFF" rx="73.909" ry="78.445" transform="rotate(-18.967 266.984 98.27)"/>
                                <ellipse cx="437.063" cy="301.209" stroke="#FFF" rx="73.909" ry="78.445" transform="rotate(-18.967 437.063 301.209)"/>
                                <ellipse cx="484.091" cy="294.593" stroke="#FFF" rx="73.909" ry="78.445" transform="rotate(-18.967 484.091 294.593)"/>
                            </g>
                        </g>
                    </g>
                    <path fill="#FFF" fill-rule="nonzero" d="M59.477 96.216c29.957 27.98 69.502 25.697 78.053 24.978 37.768-3.176 87.424-27.7 92.832-68.46 2.621-19.758-4.677-46.933-20.322-51.806-24.303-7.571-40.749 47.395-89.599 55.508C76.55 63.727 44.02 26.96 33.613 38.396c-8.327 9.153 6.3 39.546 25.864 57.82z" transform="translate(-80 -226) translate(80 226) translate(0 24)"/>
                    <g fill-rule="nonzero">
                        <path fill="#4AC6BD" d="M29.687.351c14.823 1.134 18.679 26.065 7.095 37.574C25.197 49.434 24.08 58.43 23.992 61.857c-.089 3.426-6.96 17.883-15.108 20.886C.737 85.746-4.064 71.223 5.66 55.111 15.385 38.999 9.715-1.176 29.687.35z" transform="translate(-80 -226) translate(80 226) translate(0 24) translate(391.69 252.043)"/>
                        <path fill="#FFF" d="M6.345 89.967c.175.1.387.113.572.034.186-.08.324-.24.373-.436 1.518-6.028 2.929-13.063 4.421-20.51 3.354-16.728 7.156-35.689 12.816-44.313.195-.298.113-.698-.185-.894-.297-.196-.697-.113-.892.185-5.799 8.834-9.462 27.102-13.003 44.767-1.49 7.432-2.898 14.451-4.408 20.448-.07.281.054.575.306.719z" transform="translate(-80 -226) translate(80 226) translate(0 24) translate(391.69 252.043)"/>
                        <path fill="#50A5A0" d="M63.585 29.922c11.808 10.148 7.798 35.507-6.648 39.281-14.445 3.775-26.963-2.854-41.38 17.263l-5.501-4.244S6.982 68.715 20.104 56.955C33.225 45.196 32.362 51.393 44.42 38.22c12.058-13.172 14.503-12.305 19.165-8.298z" transform="translate(-80 -226) translate(80 226) translate(0 24) translate(391.69 252.043)"/>
                        <path fill="#FFF" d="M9.079 89.39l.041.022c.32.154.706.02.86-.302 4.522-9.428 30.375-42.763 40.099-42.165.232.018.455-.091.585-.285.13-.193.145-.442.04-.65-.105-.208-.314-.343-.546-.354-11.11-.682-37.191 34.245-41.34 42.895-.146.305-.032.67.26.84z" transform="translate(-80 -226) translate(80 226) translate(0 24) translate(391.69 252.043)"/>
                    </g>
                    <g fill-rule="nonzero" transform="translate(-80 -226) translate(80 226) translate(0 24) translate(176.725 13.974)">
                        <rect width="207.588" height="326.571" x="24.787" y=".368" fill="#C7C7E3" rx="10.725"/>
                        <rect width="207.588" height="326.571" x=".064" y=".368" fill="#EEEDFF" rx="10.725"/>
                        <rect width="166.728" height="272.451" x="17.614" y="26.271" fill="#C7C7E3" rx="10.725"/>
                        <rect width="133.475" height="8.789" x="33.317" y="156.715" fill="#FFF" rx="4.394"/>
                        <rect width="85.262" height="8.789" x="33.317" y="125.663" fill="#FFF" rx="4.394"/>
                        <rect width="85.262" height="8.789" x="33.317" y="94.61" fill="#FFF" rx="4.394"/>
                        <rect width="112.65" height="8.789" x="58.637" y="63.558" fill="#FFF" rx="4.394"/>
                        <rect width="133.475" height="8.789" x="33.317" y="189.557" fill="#FFF" rx="4.394"/>
                        <rect width="133.475" height="8.789" x="33.317" y="222.4" fill="#FFF" rx="4.394"/>
                        <rect width="133.475" height="8.789" x="33.317" y="255.242" fill="#FFF" rx="4.394"/>
                    </g>
                    <g fill-rule="nonzero">
                        <path fill="#4AC6BD" d="M8.342 1.7C24.314-5.89 42.98 17.571 37.8 36.3c-5.181 18.727-1.034 28.674.893 32.266 1.926 3.592 3.348 22.576-3.294 30.49-6.642 7.916-20.153-4.243-19.606-26.622.546-22.38-28.97-60.511-7.451-70.735z" transform="translate(-80 -226) translate(80 226) translate(0 24) translate(20.153 161.99)"/>
                        <path fill="#FFF" d="M37.033 108.016c.07 0 .14-.01.206-.028.196-.055.362-.185.462-.362.1-.178.125-.387.07-.583-1.983-7.121-4.671-15.216-7.517-23.79-6.39-19.252-13.635-41.073-12.87-53.323.02-.42-.3-.778-.718-.805-.42-.026-.781.29-.812.71C15.07 42.38 22.05 63.406 28.8 83.737c2.842 8.554 5.521 16.633 7.493 23.717.092.332.395.561.74.561z" transform="translate(-80 -226) translate(80 226) translate(0 24) translate(20.153 161.99)"/>
                        <path fill="#50A5A0" d="M60.758 12.199c18.17 3.5 28.968 32.051 16.278 44.485-12.69 12.434-29.52 12.987-32.555 42.275l-8.18-1.132s-11.132-12.13-4.51-32.025c6.621-19.894 9.38-12.986 14.07-33.709C50.55 11.37 53.586 10.817 60.758 12.2z" transform="translate(-80 -226) translate(80 226) translate(0 24) translate(20.153 161.99)"/>
                        <path fill="#FFF" d="M39.515 105.806h.055c.423-.03.74-.398.71-.82-.884-12.407 6.171-62.1 16.563-67.23.379-.186.535-.646.348-1.026-.187-.38-.646-.537-1.025-.35-11.872 5.86-18.226 57.333-17.415 68.715.03.4.363.71.764.71z" transform="translate(-80 -226) translate(80 226) translate(0 24) translate(20.153 161.99)"/>
                        <path fill="#C7C7E3" d="M29.799 179.76h19.434l7.254-79.51c.105-1.15-.279-2.293-1.057-3.147-.779-.854-1.88-1.34-3.035-1.34H26.636c-1.154 0-2.255.486-3.034 1.34-.778.854-1.162 1.996-1.057 3.148l7.254 79.508z" transform="translate(-80 -226) translate(80 226) translate(0 24) translate(20.153 161.99)"/>
                    </g>
                    <g transform="translate(-80 -226) translate(80 226) translate(0 24) translate(55.808 39.85)">
                        <path fill="#FFCD91" fill-rule="nonzero" d="M170.341 32.685s-31.697 45.23-44.227 36.4c-14.128-9.956 34.503-45.945 34.503-45.945s8.312 1.919 9.724 9.545z"/>
                        <path fill="#FFCD91" fill-rule="nonzero" d="M87.846 39.86s55.446 8.163 51.873 23.055c-4.858 20.23-57.032-6.517-57.032-6.517-7.695-4.975-2.959-16.156 5.159-16.537z"/>
                        <path fill="url(#o7esbasekc)" fill-rule="nonzero" d="M109.83 109.868s-.767-60.89-17.53-69.557c-9.612-4.969-29.502-3.623-39.646 3.245-10.237 6.929-3.007 66.312-3.007 66.312h60.183z"/>
                        <path fill="#FB8A60" fill-rule="nonzero" d="M160.563 25.585s.14-3.416 1.782-5.67c1.643-2.254 3.03-3.571 3.382-6.82.353-3.25 3.858-2.295 3.424.512-.433 2.806-1.764 7.152 1.795 6.56 3.558-.59 8.164-8.604 11.051-3.622 0 0 2.946-3.059 4.148-1.608 1.203 1.45-1.447 4.24-1.447 4.24s4.992.959-3.016 6.828c0 0 1.834 1.565.434 2.906-2.241 2.145-8.773 4.492-14.29 4.799-8.968.5-7.263-8.125-7.263-8.125z"/>
                        <path fill="#E56542" fill-rule="nonzero" d="M173.064 23.492l-.432-.79c7.618-4.178 8.963-6.359 8.976-6.38l.782.443c-.053.094-1.38 2.367-9.326 6.727zM175.14 26.146l-.362-.824c4.271-1.881 9.572-6.439 9.625-6.485l.587.682c-.221.19-5.457 4.692-9.85 6.627zM175.925 29.131l-.353-.828c2.613-1.12 5.882-2.688 5.914-2.703l.388.812c-.033.016-3.319 1.591-5.949 2.72z"/>
                        <path fill="#1C5276" fill-rule="nonzero" d="M15.488 270.462l16.904 17.104c1.096 1.109 1.257 2.837.387 4.13-1.01 1.496-3.039 1.89-4.533.88L.469 273.812l6.74-8.802 8.279 5.452z"/>
                        <path fill="#FB855F" fill-rule="nonzero" d="M10.028 260.263l4.817.003c1.406.001 2.547 1.143 2.548 2.55l.008 10.423-9.91-.007-.008-10.423c-.001-1.407 1.138-2.547 2.545-2.546z" transform="rotate(-146 12.442 266.75)"/>
                        <path fill="#1C5276" fill-rule="nonzero" d="M94.14 285.708l23.563 4.713c1.527.305 2.627 1.649 2.626 3.209 0 1.806-1.462 3.27-3.266 3.27H83.56l.672-11.071 9.907-.12z"/>
                        <path fill="#FB855F" fill-rule="nonzero" d="M87.135 277.851h4.815c1.406 0 2.546 1.141 2.546 2.55v10.427H84.59V280.4c0-1.407 1.139-2.549 2.544-2.549z" transform="rotate(180 89.543 284.34)"/>
                        <path fill="#FFCD91" fill-rule="nonzero" d="M67.097 47.066s32.541 41.318 19.341 48.311c-17.93 9.498-34.82-41.319-34.82-41.319-1.75-8.14 9.582-12.05 15.48-6.992z"/>
                        <path fill="#5F6386" fill-rule="nonzero" d="M94.44 208.126c7.26.004 13.258-5.673 13.666-12.934 1.697-30.739 2.442-62.228 1.723-85.324H79.875c.947 26.31 1.18 56.922.879 84.395-.042 3.662 1.382 7.188 3.953 9.793 2.57 2.604 6.075 4.07 9.732 4.07z"/>
                        <path fill="#5F6386" fill-rule="nonzero" d="M94.451 181.696c3.758 0 7.35 1.552 9.926 4.291 2.578 2.74 3.912 6.422 3.688 10.18-1.582 26.493-3.837 65.213-5.012 82.2H79.875c.92-19.357.641-59.031.939-83.184.093-7.477 6.172-13.488 13.637-13.487zM64.212 208.126c7.26.004 13.26-5.673 13.667-12.934 1.697-30.739 2.442-62.228 1.723-85.324H49.647c.947 26.31 1.18 56.922.879 84.395-.041 3.662 1.383 7.188 3.954 9.793 2.57 2.604 6.075 4.07 9.732 4.07z"/>
                        <path fill="#5F6386" fill-rule="nonzero" d="M71.884 183.1c3.116 2.104 5.227 5.402 5.834 9.116.607 3.715-.343 7.515-2.626 10.505-16.103 21.077-39.591 51.915-50.049 65.34L5.827 255.08c11.569-15.53 33.49-48.58 47.222-68.436 4.251-6.147 12.647-7.726 18.835-3.544z"/>
                        <path fill="#FB855F" fill-rule="nonzero" d="M74.448 47.96c6.34 0 9.232-7.419 7.528-9.125-.51-.54-.916-1.169-1.196-1.856h-.005c-.43-1.03-.72-2.115-.862-3.222l-.004-.005L68.186 23.28c.633 6.667-2.216 11.349-3.25 14.683-1.033 3.334 2.3 9.997 9.512 9.997z"/>
                        <path fill="#E56542" fill-rule="nonzero" d="M70.244 31.164c3.359 6.44 10.335 5.8 10.53 5.815-.429-1.03-.718-2.115-.86-3.222l-.005-.005c-.317-.182-12.816-8.624-9.665-2.588z"/>
                        <path fill="#8E3332" fill-rule="nonzero" d="M56.59 11.298s.505 6.087 9.34 12.357c9.265 6.573-1.28-13.63-1.28-13.63l-8.06 1.273z"/>
                        <path fill="#FB855F" fill-rule="nonzero" d="M80.71 7.642s1.25 5.245 2.872 11.132c2.319 8.414 2.516 15.218-6.042 15.218-14.375 0-13.417-23.89-13.417-23.89l16.587-2.46z"/>
                        <path fill="#FB855F" fill-rule="nonzero" d="M62.758 16.492c-2.264.928-.693 6.696 4.237 7.263 3.807.436-.749-8.691-4.237-7.263z"/>
                        <path fill="#5F6386" fill-rule="nonzero" d="M91.56 139.42L68.625 135.003 75.682 109.823 85.385 109.381z"/>
                        <path fill="#494E6D" fill-rule="nonzero" d="M30.988 260.998L25.043 268.061 5.827 255.079 11.777 246.862zM104.106 267.673L80.583 268.066 79.875 278.366 103.054 278.366z"/>
                        <path fill="#8E3332" fill-rule="nonzero" d="M56.59 11.298c5.58 1.446 11.428 1.502 17.034.163C83.18 9.253 85.974.418 85.974.418S76.859 3.952 68.92 3.805c-7.937-.147-13.19 3.355-12.33 7.493z"/>
                        <ellipse cx="73.329" cy="18.333" fill="#8E3332" fill-rule="nonzero" rx="1.005" ry="1.006"/>
                        <ellipse cx="80.426" cy="16.605" fill="#8E3332" fill-rule="nonzero" rx="1.005" ry="1.006"/>
                        <path fill="#FFF" fill-rule="nonzero" d="M76.808 30.632l4.819-.658s-.938-2.22-3.127-1.896c-2.188.323-1.692 2.554-1.692 2.554z" transform="scale(1 -1) rotate(17 275.504 0)"/>
                        <path fill="#8E3332" fill-rule="nonzero" d="M70.742 16.813l-1.64-.74c.633-1.445 1.997-2.435 3.566-2.587l.091 1.798-.045-.9.055.899c-.899.114-1.67.696-2.027 1.53zM78.48 14.135l-1.04-1.469c1.83-1.3 4.205-.754 4.306-.73l-.414 1.752c-.014-.004-1.695-.377-2.851.447z"/>
                        <path fill="#8E3332" fill-rule="nonzero" d="M72.696 23.059c-2.428 0-4.396-1.972-4.396-4.403 0-2.432 1.968-4.403 4.396-4.403s4.396 1.971 4.396 4.403c-.002 2.43-1.97 4.4-4.396 4.403zm0-7.906c-1.931 0-3.497 1.568-3.497 3.503 0 1.934 1.566 3.503 3.497 3.503 1.932 0 3.497-1.569 3.497-3.503-.002-1.934-1.566-3.5-3.497-3.503zM81.748 21.064c-1.778 0-3.381-1.073-4.062-2.718-.68-1.645-.304-3.54.953-4.799 1.257-1.26 3.148-1.636 4.791-.954 1.643.681 2.714 2.287 2.714 4.068-.002 2.43-1.969 4.4-4.396 4.403zm0-7.906c-1.414 0-2.69.853-3.23 2.162-.542 1.31-.243 2.816.757 3.817 1 1.002 2.505 1.302 3.812.76s2.159-1.82 2.159-3.236c-.003-1.934-1.567-3.5-3.498-3.503z"/>
                        <path fill="#8E3332" fill-rule="nonzero" d="M76.635 17.246L78.063 17.245 78.062 18.146 76.634 18.146z" transform="rotate(-15.976 77.349 17.696)"/>
                        <path fill="#FD8B66" fill-rule="nonzero" d="M111.532 87.676s2.64-2.165 5.415-2.432c2.775-.268 4.676-.104 7.338-2.001 2.662-1.897 4.275 1.363 1.893 2.903-2.382 1.54-6.511 3.432-3.703 5.703 2.809 2.27 11.846.394 10.046 5.864 0 0 4.238.173 3.956 2.037-.282 1.864-4.126 1.733-4.126 1.733s2.602 4.373-7.1 2.277c0 0 .052 2.414-1.88 2.257-3.088-.253-9.18-3.582-13.073-7.505-6.333-6.381 1.234-10.836 1.234-10.836z"/>
                        <path fill="#E56542" fill-rule="nonzero" d="M121.402 95.642l.301-.849c8.18 2.926 10.7 2.485 10.724 2.478l.19.88c-.105.024-2.682.544-11.215-2.51zM120.8 98.958l.374-.818c4.242 1.947 11.166 2.886 11.235 2.896l-.119.892c-.288-.039-7.127-.967-11.49-2.97zM119.094 101.53l.381-.814c2.573 1.21 5.915 2.616 5.948 2.63l-.347.828c-.034-.013-3.393-1.425-5.982-2.643z"/>
                        <path fill="#FFCD91" fill-rule="nonzero" d="M110.826 100.565s-41.186 3.668-41.934-11.641c-.844-17.266 42.92-1.932 42.92-1.932s2.786 7.686-.986 13.573z"/>
                        <path stroke="#8E3332" d="M78.293 19.463s.07 2.304 1.712 3.208c1.642.905.658 2.987-.81 2.289"/>
                        <ellipse cx="63.563" cy="21.044" fill="#FB855F" fill-rule="nonzero" rx="4.737" ry="4.745"/>
                    </g>
                </g>
                <g fill-rule="nonzero" transform="translate(-80 -226) translate(80 226) translate(326)">
                    <ellipse cx="45" cy="44.5" fill="#32BEA6" rx="45" ry="44.5"/>
                    <path fill="#FFF" d="M41.623 67.908L20.289 51.522 26.355 43.848 39.456 53.909 61.077 23.15 69.191 28.691z"/>
                </g>
            </g>
        </g>
    </g>
</svg>
