<?xml version="1.0" encoding="UTF-8"?>
<svg width="120px" height="120px" viewBox="0 0 120 120" version="1.1" xmlns="http://www.w3.org/2000/svg" xmlns:xlink="http://www.w3.org/1999/xlink">
    <title>1</title>
    <g id="Page-1" stroke="none" stroke-width="1" fill="none" fill-rule="evenodd">
        <g id="1">
            <circle id="Oval" fill="#000000" opacity="0.5" cx="60" cy="60" r="60"></circle>
            <g id="noun_expand_3402505" transform="translate(33.294118, 33.647059)" fill="#FFFFFF" fill-rule="nonzero">
                <g id="Group">
                    <polygon id="Path" transform="translate(10.175294, 10.175294) rotate(180.000000) translate(-10.175294, -10.175294) " points="0 16.9411765 5.64705882 16.9411765 5.64705882 9.64235294 16.3552941 20.3505882 20.3505882 16.3552941 9.64235294 5.64705882 16.9411765 5.64705882 16.9411765 0 0 0"></polygon>
                    <polygon id="Path" transform="translate(43.236471, 10.175294) rotate(180.000000) translate(-43.236471, -10.175294) " points="36.4705882 5.64705882 43.7694118 5.64705882 33.0611765 16.3552941 37.0564706 20.3505882 47.7647059 9.64235294 47.7647059 16.9411765 53.4117647 16.9411765 53.4117647 0 36.4705882 0"></polygon>
                    <polygon id="Path" transform="translate(10.175294, 43.236471) rotate(180.000000) translate(-10.175294, -43.236471) " points="0 53.4117647 16.9411765 53.4117647 16.9411765 47.7647059 9.64235294 47.7647059 20.3505882 37.0564706 16.3552941 33.0611765 5.64705882 43.7694118 5.64705882 36.4705882 0 36.4705882"></polygon>
                    <polygon id="Path" transform="translate(43.236471, 43.236471) rotate(180.000000) translate(-43.236471, -43.236471) " points="47.7647059 43.7694118 37.0564706 33.0611765 33.0611765 37.0564706 43.7694118 47.7647059 36.4705882 47.7647059 36.4705882 53.4117647 53.4117647 53.4117647 53.4117647 36.4705882 47.7647059 36.4705882"></polygon>
                </g>
            </g>
        </g>
    </g>
</svg>