<svg width="333" height="254" xmlns="http://www.w3.org/2000/svg">
    <defs>
        <linearGradient x1="50%" y1="0%" x2="50%" y2="100%" id="a">
            <stop stop-color="#A682F4" offset="0%"/>
            <stop stop-color="#8563E0" offset="100%"/>
        </linearGradient>
        <linearGradient x1="46.351%" y1="-3.819%" x2="56.136%" y2="100.99%" id="b">
            <stop stop-color="#82BCF4" offset="0%"/>
            <stop stop-color="#699AE2" offset="100%"/>
        </linearGradient>
        <linearGradient x1="50%" y1="0%" x2="50%" y2="100%" id="c">
            <stop stop-color="#A682F4" offset="0%"/>
            <stop stop-color="#8563E0" offset="100%"/>
        </linearGradient>
        <linearGradient x1="54.567%" y1="-4.93%" x2="41.767%" y2="101.215%" id="d">
            <stop stop-color="#82BCF4" offset="0%"/>
            <stop stop-color="#699AE2" offset="100%"/>
        </linearGradient>
        <linearGradient x1="50%" y1="0%" x2="50%" y2="100%" id="e">
            <stop stop-color="#B4C8F1" offset="0%"/>
            <stop stop-color="#628CD2" offset="100%"/>
        </linearGradient>
        <linearGradient x1="50%" y1="-.014%" x2="50%" y2="100.014%" id="f">
            <stop stop-color="#FFF" offset="0%"/>
            <stop stop-color="#DFDFF4" offset="100%"/>
        </linearGradient>
        <linearGradient x1="50%" y1="0%" x2="50%" y2="100%" id="g">
            <stop stop-color="#2C49A2" offset="0%"/>
            <stop stop-color="#2C49A2" offset="100%"/>
        </linearGradient>
        <linearGradient x1="50%" y1="0%" x2="50%" y2="100%" id="h">
            <stop stop-color="#A682F4" offset="0%"/>
            <stop stop-color="#8563E0" offset="100%"/>
        </linearGradient>
        <linearGradient x1="50.001%" y1="0%" x2="50.001%" y2="100%" id="i">
            <stop stop-color="#FFF" offset="0%"/>
            <stop stop-color="#DFDFF4" offset="100%"/>
        </linearGradient>
        <linearGradient x1="50%" y1="0%" x2="50%" y2="100%" id="j">
            <stop stop-color="#FFF" offset="0%"/>
            <stop stop-color="#DFDFF4" offset="100%"/>
        </linearGradient>
        <linearGradient x1="50%" y1="0%" x2="50%" y2="100%" id="k">
            <stop stop-color="#82BCF4" offset="0%"/>
            <stop stop-color="#699AE2" offset="100%"/>
        </linearGradient>
        <linearGradient x1="50%" y1="0%" x2="50%" y2="100%" id="l">
            <stop stop-color="#FFF" offset="0%"/>
            <stop stop-color="#DFDFF4" offset="100%"/>
        </linearGradient>
        <linearGradient x1="50%" y1="-.012%" x2="50%" y2="100.012%" id="m">
            <stop stop-color="#FCEF7E" offset="0%"/>
            <stop stop-color="#EAC36A" offset="100%"/>
        </linearGradient>
        <linearGradient x1="49.641%" y1="25.165%" x2="50.608%" y2="74.765%" id="n">
            <stop stop-color="#A682F4" offset="0%"/>
            <stop stop-color="#8563E0" offset="100%"/>
        </linearGradient>
        <linearGradient x1="53.301%" y1=".373%" x2="46.698%" y2="99.627%" id="o">
            <stop stop-color="#FFF" offset="0%"/>
            <stop stop-color="#DFDFF4" offset="100%"/>
        </linearGradient>
        <linearGradient x1="49.267%" y1=".175%" x2="50.335%" y2="100.526%" id="p">
            <stop stop-color="#A682F4" offset="0%"/>
            <stop stop-color="#8563E0" offset="100%"/>
        </linearGradient>
        <linearGradient x1="63.626%" y1="1.967%" x2="36.371%" y2="98.033%" id="q">
            <stop stop-color="#A682F4" offset="0%"/>
            <stop stop-color="#8563E0" offset="100%"/>
        </linearGradient>
    </defs>
    <g transform="translate(.347)" fill="none" fill-rule="evenodd">
        <path d="M37.007 242.31S0 237.174 0 216.783c0-20.814 42.164-12.124 26.174-52.158-15.99-40.033-2.242-52.078 28.82-64.909 31.06-12.83 35.84-32.97 80.179-48.33 17.771-6.155 55.568-13.033 82.055 11.808 26.486 24.842 23.99 13.096 56.14 34.807 32.152 21.711 10.277 36.36 27.834 50.994C318.759 163.627 332 164.018 332 180.106c0 22.602-18.132 27.082-15.278 34.546 2.854 7.463 14.015 27.907-32.928 27.659-46.944-.248-254.702.665-246.787 0z" fill="#E4ECFD"/>
        <path d="M246.316 234.662c-20.482-.115-83.95-.63-122.466-2.238-71.42-2.981-129.755 2.066-91.439 7.761 10.707 1.592-20.181 11.194 55.419 13.31 66.363 1.856 134.017-2.255 166.76-4.022 32.745-1.767 47.854-4.876 54.87-6.278 6.172-1.232 8.45-8.13-63.144-8.533" fill="#FFF"/>
        <path d="M182.197 65.762c7.248-1.648 12.491-7.823 12.83-15.109a69.99 69.99 0 0 0-4.885-1.707c.41 4.744-2.203 9.246-6.574 11.323-4.37 2.077-9.595 1.3-13.14-1.955-3.545-3.254-4.679-8.313-2.851-12.724a80.276 80.276 0 0 0-5.17.152c-1.492 5.515.072 11.394 4.123 15.492 4.05 4.098 9.995 5.817 15.667 4.528z" fill="#AFAFE0" fill-rule="nonzero" opacity=".2"/>
        <path d="M48.047 112.24c-10.11 0-18.304 8.196-18.304 18.305 0 10.11 8.195 18.305 18.304 18.305 10.108 0 18.303-8.195 18.303-18.305s-8.195-18.304-18.303-18.304zm0 31.249a12.943 12.943 0 1 1 12.942-12.944c0 7.149-5.794 12.944-12.942 12.944z" fill="#AFAFE0" fill-rule="nonzero" opacity=".3"/>
        <path d="M291.397 165.282a18.875 18.875 0 0 0-13.347 32.224 18.874 18.874 0 0 0 32.222-13.348c0-10.425-8.45-18.876-18.875-18.876zm0 32.224c-7.371 0-13.347-5.976-13.347-13.348 0-7.371 5.976-13.347 13.347-13.347 7.371 0 13.347 5.976 13.347 13.347 0 7.372-5.976 13.348-13.347 13.348z" fill="#AFAFE0" fill-rule="nonzero" opacity=".4"/>
        <path d="M55.884 234.776c-.67.17-1.359.256-2.05.256-2.85.04-11.088-.388-18.33-6.073-8.923-7.006 4.537-3.31 7.893-4.83 3.355-1.52-6.855-2.106-13.547-6.405-6.691-4.3 5.17-4.73 9.519-4.206 4.348.524-5.339-10.072-10.98-17.41-5.64-7.34-.394-11.152 10.119 1.675s9.176 11.226 11.108 3.505c1.932-7.721 8.001-7.54 6.261 3.912-1.74 11.451-1.656 14.144 4.55 8.113 6.206-6.032 9.073-2.85 4.596 6.673-4.198 8.927-4.377 13.51-9.14 14.79z" fill="url(#a)" fill-rule="nonzero" opacity=".55" transform="matrix(-1 0 0 1 93.289 0)"/>
        <path d="M34.577 218.336a.266.266 0 0 1 .332.17c.022.07 1.879 5.71 6.155 8.15l1.882-5.815a34.654 34.654 0 0 1 1.883-4.645c-2.886-3.112-3.56-8.696-3.592-8.977a.26.26 0 0 1 .105-.24.267.267 0 0 1 .263-.03.261.261 0 0 1 .157.211c.007.066.663 5.482 3.325 8.527 3.636-7.082 8.49-10.461 8.549-10.502.12-.08.284-.05.366.067a.26.26 0 0 1-.066.363c-.058.04-4.887 3.41-8.466 10.481.445.447.96.82 1.525 1.105 4.29 2.104 9.707-.318 9.761-.342a.266.266 0 0 1 .351.127.26.26 0 0 1-.129.347c-.179.082-3.498 1.569-7.086 1.205a9.162 9.162 0 0 1-3.132-.87 6.375 6.375 0 0 1-1.538-1.075A34.195 34.195 0 0 0 43.45 221l-1.913 5.909a8.143 8.143 0 0 0 2.8.81c6.693.68 9.568-.524 9.596-.536a.266.266 0 0 1 .349.133.26.26 0 0 1-.136.345c-.12.052-3.005 1.274-9.863.578a8.626 8.626 0 0 1-2.908-.83l-1.372 4.24a.264.264 0 0 1-.332.17.258.258 0 0 1-.171-.328l1.4-4.33c-4.527-2.521-6.472-8.425-6.495-8.498a.26.26 0 0 1 .172-.327z" fill="#FFF" fill-rule="nonzero"/>
        <path d="M40.884 241.776c-.67.17-1.359.256-2.05.256-2.85.04-11.088-.388-18.33-6.073-8.923-7.006 4.537-3.31 7.893-4.83 3.355-1.52-6.855-2.106-13.547-6.405-6.691-4.3 5.17-4.73 9.519-4.206 4.348.524-5.339-10.072-10.98-17.41-5.64-7.34-.394-11.152 10.119 1.675s9.176 11.226 11.108 3.505c1.932-7.721 8.001-7.54 6.261 3.912-1.74 11.451-1.656 14.144 4.55 8.113 6.206-6.032 9.073-2.85 4.596 6.673-4.198 8.927-4.377 13.51-9.14 14.79z" fill="url(#b)" fill-rule="nonzero"/>
        <path d="M43.711 225.336a.266.266 0 0 0-.331.17c-.023.07-1.88 5.71-6.156 8.15l-1.882-5.815a34.654 34.654 0 0 0-1.883-4.645c2.886-3.112 3.561-8.696 3.593-8.977a.26.26 0 0 0-.105-.24.267.267 0 0 0-.263-.03.261.261 0 0 0-.157.211c-.008.066-.663 5.482-3.326 8.527-3.636-7.082-8.49-10.461-8.548-10.502a.266.266 0 0 0-.367.067.26.26 0 0 0 .066.363c.059.04 4.888 3.41 8.466 10.481-.444.447-.96.82-1.525 1.105-4.29 2.104-9.707-.318-9.76-.342a.266.266 0 0 0-.351.127.26.26 0 0 0 .129.347c.178.082 3.498 1.569 7.085 1.205a9.162 9.162 0 0 0 3.133-.87 6.375 6.375 0 0 0 1.538-1.075A34.195 34.195 0 0 1 34.839 228l1.912 5.909a8.143 8.143 0 0 1-2.799.81c-6.694.68-9.568-.524-9.596-.536a.266.266 0 0 0-.349.133.26.26 0 0 0 .135.345c.12.052 3.006 1.274 9.864.578a8.626 8.626 0 0 0 2.907-.83l1.372 4.24a.264.264 0 0 0 .333.17.258.258 0 0 0 .171-.328l-1.401-4.33c4.527-2.521 6.472-8.425 6.496-8.498a.26.26 0 0 0-.173-.327z" fill="#FFF" fill-rule="nonzero"/>
        <path d="M275.764 183.97a6.247 6.247 0 0 0 5.511 1.341 6.147 6.147 0 0 0 4.295-3.654c1.85-4.515 2.075-12.54 4.64-15.69 5.364-6.586 9.628 4.268 3.02 15.3-6.61 11.034-.89 7.198 4.792 4.653 5.681-2.546 9.382 7.989-5.37 14.948-14.752 6.959.863 2.434 4.94 3.838 4.079 1.403.7 9.018-11.023 14.812-11.724 5.794 3.57 4.243 13.62 2.565 10.051-1.678-1.721 14.516-19.38 17.677-17.66 3.16-23.013-4.915-31.464-11.487-8.45-6.573-.857-14.27 7.066-9.184 14.35 9.211 7.56-.672-5.176-16.2-7.439-9.068 2.355-11.306 11.992-3.121 13.59 11.541.308-8.843-1.842-16.471-1.515-5.375 5.117-7.408 14.38.674z" fill="url(#c)" fill-rule="nonzero" opacity=".55"/>
        <path d="M288.71 196.075a.198.198 0 0 0-.259-.099l-5.366 2.338a447.715 447.715 0 0 0 4.442-12.749.19.19 0 0 0-.042-.189.198.198 0 0 0-.332.07c-.036.111-1.901 5.798-4.49 12.881l-4.313-3.97a.199.199 0 0 0-.274.012.191.191 0 0 0 .006.27l4.437 4.084c-2.283 6.227-5.101 13.457-7.721 18.915l-3.694-5.483a.197.197 0 0 0-.34.02.19.19 0 0 0 .013.193l3.824 5.677c-.141.29-.282.576-.421.855-3.41 6.807-5.384 10.062-6.437 11.593l-1.667-2.8a.198.198 0 0 0-.269-.068.192.192 0 0 0-.07.264l1.759 2.954c-.226.348-.49.669-.79.958a.191.191 0 0 0-.035.27.198.198 0 0 0 .273.038c.349-.328.654-.698.91-1.1l6.116-2.276a.192.192 0 0 0 .114-.249.197.197 0 0 0-.253-.112l-5.594 2.08c1.118-1.664 3.073-4.95 6.294-11.382.146-.29.293-.59.44-.893l7.696-3.312a.192.192 0 0 0 .1-.254.197.197 0 0 0-.257-.1l-7.283 3.135c2.61-5.462 5.407-12.645 7.674-18.83l5.709-2.486a.194.194 0 0 0 .104-.107.19.19 0 0 0-.004-.148z" fill="#000" fill-rule="nonzero"/>
        <path d="M281.857 240.153a7.686 7.686 0 0 0 1.901.294c2.651.113 10.328-.075 17.215-5.228 8.49-6.35-4.133-3.229-7.215-4.743-3.083-1.515 6.433-1.8 12.774-5.665 6.34-3.865-4.686-4.579-8.746-4.2-4.06.38 5.234-9.322 10.676-16.07 5.443-6.749.662-10.467-9.46 1.31-10.12 11.777-8.834 10.307-10.428 3.003-1.594-7.304-7.246-7.292-5.93 3.512 1.317 10.805 1.168 13.332-4.447 7.504-5.615-5.828-8.368-2.913-4.453 6.15 3.67 8.496 3.716 12.806 8.113 14.133z" fill="url(#d)" fill-rule="nonzero" opacity=".7"/>
        <path d="M300.66 223.953a.246.246 0 0 0-.323-.129c-.051.022-5.157 2.157-9.092.067a5.47 5.47 0 0 1-1.39-1.078c3.517-6.55 8.1-9.59 8.155-9.626a.245.245 0 1 0-.268-.412c-.056.037-4.662 3.086-8.232 9.645-2.397-2.93-2.864-8.036-2.87-8.098a.245.245 0 1 0-.49.041c.023.265.503 5.53 3.107 8.528a32.756 32.756 0 0 0-1.875 4.315l-1.905 5.413c-3.912-2.404-5.493-7.75-5.512-7.817a.246.246 0 0 0-.473.135c.02.07 1.673 5.666 5.82 8.153l-1.419 4.03a.245.245 0 1 0 .465.163l1.388-3.948a7.97 7.97 0 0 0 2.684.856c6.363.832 9.08-.24 9.193-.286a.245.245 0 0 0-.186-.455c-.026.01-2.733 1.066-8.944.254a7.515 7.515 0 0 1-2.582-.835l1.935-5.5a32.317 32.317 0 0 1 1.765-4.094c.413.417.886.77 1.403 1.05.902.47 1.881.775 2.891.898 3.329.435 6.457-.875 6.625-.947a.245.245 0 0 0 .13-.323z" fill="#FFF" fill-rule="nonzero"/>
        <path d="m160.18 69.017-.53.186a.704.704 0 0 1-.806-.255.77.77 0 0 1-.107-.827l.248-.522a.768.768 0 0 0-.33-1.01l-.691-.354a.715.715 0 0 0-.974.342l-.247.522a.717.717 0 0 1-.742.412.726.726 0 0 1-.642-.507l-.18-.55a.746.746 0 0 0-.366-.435.702.702 0 0 0-.555-.038l-.73.257a.736.736 0 0 0-.418.38.78.78 0 0 0-.037.577l.18.55a.767.767 0 0 1-.245.838.7.7 0 0 1-.798.111l-.502-.257a.714.714 0 0 0-.973.342l-.341.718a.768.768 0 0 0 .33 1.01l.502.257a.754.754 0 0 1 .397.77.745.745 0 0 1-.488.666l-.53.187a.736.736 0 0 0-.419.38.78.78 0 0 0-.037.577l.248.758a.72.72 0 0 0 .921.472l.53-.187a.704.704 0 0 1 .808.255.77.77 0 0 1 .106.828l-.248.52a.768.768 0 0 0 .33 1.011l.692.354a.702.702 0 0 0 .555.038.736.736 0 0 0 .418-.38l.248-.521a.717.717 0 0 1 .741-.413.726.726 0 0 1 .642.507l.18.55a.72.72 0 0 0 .921.473l.73-.257a.761.761 0 0 0 .455-.957l-.18-.55a.767.767 0 0 1 .246-.838.7.7 0 0 1 .797-.11l.502.257c.36.184.795.03.973-.343l.341-.718a.768.768 0 0 0-.33-1.01l-.502-.257a.754.754 0 0 1-.397-.77.745.745 0 0 1 .489-.666l.53-.187a.736.736 0 0 0 .418-.38.78.78 0 0 0 .037-.576l-.248-.758a.72.72 0 0 0-.921-.472zm-3.795 4.724a1.932 1.932 0 0 1-2.124-.591 2.117 2.117 0 0 1-.286-2.264c.354-.746 1.106-1.196 1.905-1.141.799.055 1.487.603 1.744 1.39.351 1.075-.204 2.242-1.239 2.606zM150.393 61.07l-.37.13a.493.493 0 0 1-.545-.154l-.02-.024a.54.54 0 0 1-.075-.58l.173-.364a.537.537 0 0 0-.23-.707l-.485-.248a.492.492 0 0 0-.388-.027.515.515 0 0 0-.293.266l-.173.365a.502.502 0 0 1-.52.289.508.508 0 0 1-.449-.355l-.126-.385a.504.504 0 0 0-.644-.33l-.512.179a.533.533 0 0 0-.318.67l.126.385a.537.537 0 0 1-.172.586.49.49 0 0 1-.558.078l-.351-.18a.492.492 0 0 0-.389-.027.515.515 0 0 0-.292.266l-.24.503a.546.546 0 0 0-.025.403.522.522 0 0 0 .257.304l.351.18a.528.528 0 0 1 .28.507l-.002.032a.522.522 0 0 1-.342.467l-.371.13a.533.533 0 0 0-.318.67l.173.53c.09.276.379.424.645.33l.371-.13a.493.493 0 0 1 .545.154l.02.024a.54.54 0 0 1 .075.58l-.174.365a.546.546 0 0 0-.025.403.522.522 0 0 0 .256.304l.484.248c.121.062.26.071.388.026a.515.515 0 0 0 .293-.266l.174-.365a.502.502 0 0 1 .519-.288.508.508 0 0 1 .45.355l.125.385a.522.522 0 0 0 .256.304c.121.062.261.071.389.026l.511-.18a.515.515 0 0 0 .293-.266.546.546 0 0 0 .025-.403l-.126-.385a.537.537 0 0 1 .172-.587.49.49 0 0 1 .558-.077l.352.18c.12.062.26.071.388.026a.515.515 0 0 0 .293-.266l.239-.502a.537.537 0 0 0-.231-.708l-.352-.18a.528.528 0 0 1-.278-.539.522.522 0 0 1 .342-.466l.371-.13a.533.533 0 0 0 .319-.67l-.174-.53a.522.522 0 0 0-.256-.305.492.492 0 0 0-.389-.026zm-2.657 3.307a1.353 1.353 0 0 1-1.487-.414 1.482 1.482 0 0 1-.2-1.585 1.378 1.378 0 0 1 1.334-.799c.559.039 1.04.423 1.22.974.246.752-.142 1.569-.867 1.824z" fill="#AFAFE0" fill-rule="nonzero"/>
        <path d="M166.653 10a1 1 0 0 1-2 0 1.005 1.005 0 0 1 1-1 1.005 1.005 0 0 1 1 1zM173.653 10a1 1 0 0 1-2 0 1.005 1.005 0 0 1 1-1 1 1 0 0 1 1 1zM181.653 10a1 1 0 0 1-2 0 1.005 1.005 0 0 1 1-1 .998.998 0 0 1 1 1z" stroke="#245ABC" stroke-width="2"/>
        <path d="M227.653 19.517v201.968c0 7.464-6.023 13.515-13.452 13.515h-86.094c-7.43 0-13.454-6.051-13.454-13.515V19.517C114.653 12.05 120.676 6 128.107 6h26.35v2.976c0 2.447 1.975 4.43 4.41 4.43h29.3c2.436 0 4.41-1.983 4.41-4.43V6h21.627c7.426 0 13.45 6.051 13.45 13.517z" stroke="#245ABC" stroke-width="2"/>
        <path d="M166.653 10a1 1 0 0 1-2 0 1.005 1.005 0 0 1 1-1 1.005 1.005 0 0 1 1 1zM173.653 10a1 1 0 0 1-2 0 1.005 1.005 0 0 1 1-1 1 1 0 0 1 1 1zM181.653 10a1 1 0 0 1-2 0 1.005 1.005 0 0 1 1-1 .998.998 0 0 1 1 1z" stroke="#245ABC" stroke-width="2"/>
        <path d="M227.653 19.517v201.968c0 7.464-6.023 13.515-13.452 13.515h-86.094c-7.43 0-13.454-6.051-13.454-13.515V19.517C114.653 12.05 120.676 6 128.107 6h26.35v2.976c0 2.447 1.975 4.43 4.41 4.43h29.3c2.436 0 4.41-1.983 4.41-4.43V6h21.627c7.426 0 13.45 6.051 13.45 13.517z" stroke="#245ABC" stroke-width="2"/>
        <path d="M166.653 10a1 1 0 0 1-2 0 1.005 1.005 0 0 1 1-1 1.005 1.005 0 0 1 1 1zM173.653 10a1 1 0 0 1-2 0 1.005 1.005 0 0 1 1-1 1 1 0 0 1 1 1zM181.653 10a1 1 0 0 1-2 0 1.005 1.005 0 0 1 1-1 .998.998 0 0 1 1 1z" stroke="#245ABC" stroke-width="2"/>
        <path d="M232.442 36.377V17.714c0-9.784-7.92-17.714-17.69-17.714h-87.195c-9.77 0-17.693 7.93-17.693 17.714v18.663h-2.21V48.56h2.21v4.086h-2.21v12.182h2.21v157.457c0 9.784 7.922 17.716 17.693 17.716h87.194c9.77 0 17.69-7.932 17.69-17.716V48.559h2.212V36.377h-2.211zM180.308 9.005a1.219 1.219 0 0 1 1.728 0 1.226 1.226 0 0 1-.863 2.089 1.222 1.222 0 0 1-.865-2.089zm-7.65 0a1.223 1.223 0 1 1 1.728 1.73 1.223 1.223 0 0 1-.862.36A1.227 1.227 0 0 1 172.3 9.87c.003-.336.14-.643.359-.866zm-7.646 0a1.223 1.223 0 0 1 1.728 0 1.226 1.226 0 0 1-.865 2.089 1.227 1.227 0 0 1-1.221-1.223c0-.336.137-.643.358-.866zm62.799 211.92c0 7.46-6.04 13.507-13.49 13.507h-86.333c-7.45 0-13.49-6.048-13.49-13.507V19.075c0-7.461 6.04-13.51 13.49-13.51h26.424V8.54a4.425 4.425 0 0 0 4.422 4.428h29.381a4.425 4.425 0 0 0 4.423-4.428V5.566h21.686c7.449 0 13.489 6.048 13.489 13.509v201.85h-.002z" fill="#6480E4" fill-rule="nonzero"/>
        <path d="M166.134 10c0 .275-.14.524-.364.707-.226.18-.537.293-.878.293-.68 0-1.239-.45-1.239-1 0-.274.14-.524.364-.707.226-.18.535-.293.875-.293.34 0 .652.113.878.293.226.183.364.433.364.708zM173.892 10c0 .275-.14.524-.363.707-.227.18-.535.293-.876.293-.683 0-1.241-.45-1.241-1 0-.274.14-.524.363-.707.227-.18.538-.293.878-.293.34 0 .65.113.876.293.224.183.363.433.363.708zM181.653 10c0 .275-.14.524-.364.707a1.4 1.4 0 0 1-.875.293c-.683 0-1.241-.45-1.241-1 0-.274.14-.524.363-.707.227-.18.535-.293.878-.293.34 0 .651.113.875.293.225.183.364.433.364.708z" stroke="#245ABC" stroke-width="2"/>
        <rect fill="#FFF" fill-rule="nonzero" opacity=".4" x="118.926" y="17" width="105.454" height="58.978" rx="3.808"/>
        <rect fill="url(#e)" fill-rule="nonzero" x="120.792" y="18.479" width="101.722" height="86.86" rx="3.808"/>
        <path d="M213.52 101.023c-17.088-1.616-26.285-18.218-35.007-44.99-8.723-26.772-56.635-24.79-56.635-24.79-.364.021-.727.065-1.086.132v21.818c10.11-1.946 28.11-.508 36.855 8.687 8.993 9.456 8.578 28.808 18.88 43.113h49.462c-2.331-2.027-7.706-3.52-12.469-3.97z" fill="#FFF" fill-rule="nonzero" opacity=".05"/>
        <path d="M253.82 18.479h-93.054c25.542 25.193 65.886-.009 67.351 14.565 2.514 25.008-53.108 32.037-96.63 38.024-29.199 4.016-39.72 17.375-43.834 28.315v9.783c0 1.013.82 1.834 1.833 1.834h22.288c6.982-13.547 21.645-23.17 68.657-26.65 50.984-3.776 59.356-37.149 63.534-32.292 3.682 4.28.007 34.337 11.688 38.434V20.313c0-1.013-.82-1.834-1.832-1.834z" fill="#FFF" fill-rule="nonzero" opacity=".05"/>
        <path d="M171.75 73.914a16.856 16.856 0 0 1-15.572-10.423 16.904 16.904 0 0 1 3.654-18.4 16.836 16.836 0 0 1 18.37-3.66 16.884 16.884 0 0 1 10.405 15.599c-.01 9.32-7.551 16.873-16.856 16.884zm0-32.666c-8.7 0-15.755 7.066-15.755 15.782 0 8.715 7.054 15.781 15.756 15.781 8.701 0 15.755-7.065 15.755-15.781-.01-8.712-7.058-15.772-15.755-15.782z" fill="#FCEF7E" fill-rule="nonzero"/>
        <path d="M164.833 65.29V48.964c0-.645.349-1.24.913-1.56a1.813 1.813 0 0 1 1.815.021l13.737 8.162c.545.324.878.908.878 1.539a1.79 1.79 0 0 1-.878 1.539l-13.737 8.162a1.813 1.813 0 0 1-1.815.02 1.79 1.79 0 0 1-.913-1.559z" fill="url(#f)" fill-rule="nonzero"/>
        <rect fill="#FFF" fill-rule="nonzero" x="134.117" y="96.361" width="1.493" height="4.489" rx=".747"/>
        <rect fill="#FFF" fill-rule="nonzero" x="131.9" y="96.361" width="1.493" height="4.489" rx=".747"/>
        <path d="M211.601 98.605c0 .406-.329.736-.735.736h-71.727a.735.735 0 1 1 0-1.471h71.727c.406 0 .735.33.735.735z" fill="#FFF" fill-rule="nonzero"/>
        <ellipse fill="#FCEF7E" fill-rule="nonzero" cx="164.674" cy="98.605" rx="1.612" ry="1.588"/>
        <path d="M139.082 97.922h25.556v1.562h-25.556a.742.742 0 0 1-.65-.39.81.81 0 0 1 0-.783.742.742 0 0 1 .65-.389z" fill="#FCEF7E" fill-rule="nonzero"/>
        <rect fill="#FFF" fill-rule="nonzero" opacity=".4" x="118.926" y="111" width="105.454" height="58.978" rx="3.808"/>
        <rect fill="url(#e)" fill-rule="nonzero" x="120.792" y="112.479" width="101.722" height="86.86" rx="3.808"/>
        <path d="M213.52 195.023c-17.088-1.616-26.285-18.218-35.007-44.99-8.723-26.772-56.635-24.79-56.635-24.79-.364.021-.727.065-1.086.132v21.818c10.11-1.946 28.11-.508 36.855 8.687 8.993 9.456 8.578 28.808 18.88 43.113h49.462c-2.331-2.027-7.706-3.52-12.469-3.97z" fill="#FFF" fill-rule="nonzero" opacity=".05"/>
        <path d="M253.82 112.479h-93.054c25.542 25.193 65.886-.009 67.351 14.565 2.514 25.008-53.108 32.037-96.63 38.024-29.199 4.016-39.72 17.375-43.834 28.315v9.783c0 1.013.82 1.834 1.833 1.834h22.288c6.982-13.547 21.645-23.17 68.657-26.65 50.984-3.776 59.356-37.149 63.534-32.292 3.682 4.28.007 34.337 11.688 38.434v-70.179c0-1.013-.82-1.834-1.832-1.834z" fill="#FFF" fill-rule="nonzero" opacity=".05"/>
        <path d="M171.75 167.914a16.856 16.856 0 0 1-15.572-10.423 16.904 16.904 0 0 1 3.654-18.4 16.836 16.836 0 0 1 18.37-3.66 16.884 16.884 0 0 1 10.405 15.599c-.01 9.32-7.551 16.873-16.856 16.884zm0-32.666c-8.7 0-15.755 7.066-15.755 15.782 0 8.715 7.054 15.781 15.756 15.781 8.701 0 15.755-7.065 15.755-15.781-.01-8.712-7.058-15.772-15.755-15.782z" fill="#FCEF7E" fill-rule="nonzero"/>
        <path d="M164.833 159.29v-16.325c0-.645.349-1.24.913-1.56a1.813 1.813 0 0 1 1.815.021l13.737 8.162c.545.324.878.908.878 1.539a1.79 1.79 0 0 1-.878 1.539l-13.737 8.162a1.813 1.813 0 0 1-1.815.02 1.79 1.79 0 0 1-.913-1.559z" fill="url(#f)" fill-rule="nonzero"/>
        <rect fill="#FFF" fill-rule="nonzero" x="134.117" y="190.361" width="1.493" height="4.489" rx=".747"/>
        <rect fill="#FFF" fill-rule="nonzero" x="131.9" y="190.361" width="1.493" height="4.489" rx=".747"/>
        <path d="M211.601 192.605c0 .406-.329.736-.735.736h-71.727a.735.735 0 1 1 0-1.471h71.727c.406 0 .735.33.735.735z" fill="#FFF" fill-rule="nonzero"/>
        <ellipse fill="#FCEF7E" fill-rule="nonzero" cx="164.674" cy="192.605" rx="1.612" ry="1.588"/>
        <path d="M139.082 191.922h25.556v1.562h-25.556a.742.742 0 0 1-.65-.39.81.81 0 0 1 0-.783.742.742 0 0 1 .65-.389z" fill="#FCEF7E" fill-rule="nonzero"/>
        <rect fill="url(#g)" fill-rule="nonzero" x="120.792" y="205.479" width="101.722" height="23" rx="3.808"/>
        <rect fill="#AFAFE0" fill-rule="nonzero" opacity=".25" transform="rotate(20 232.211 71.304)" x="219.376" y="62.538" width="25.669" height="17.53" rx="4.089"/>
        <rect fill="url(#h)" fill-rule="nonzero" transform="rotate(20 230.465 67.559)" x="217.63" y="58.794" width="25.669" height="17.53" rx="4.089"/>
        <path d="M234.31 72.209h-9.392a4.59 4.59 0 0 1 1.376-3.27 4.733 4.733 0 0 1 3.32-1.355c2.593 0 4.696 2.07 4.696 4.625z" fill="url(#i)" fill-rule="nonzero" transform="rotate(20 229.614 69.896)"/>
        <ellipse fill="url(#j)" fill-rule="nonzero" transform="rotate(20 231.417 64.943)" cx="231.417" cy="64.943" rx="2.047" ry="2.016"/>
        <rect fill="#19171A" fill-rule="nonzero" opacity=".15" x="98.741" y="14.077" width="31.912" height="20.923" rx="4.089"/>
        <rect fill="url(#k)" fill-rule="nonzero" x="95.653" y="11" width="31.912" height="20.923" rx="4.089"/>
        <path d="m116.285 22.487-4.154 4.13a.611.611 0 0 1-.861 0l-4.154-4.13c-4.062-4.04.522-8.598 4.584-4.559 4.101-4.078 8.686.48 4.585 4.559z" fill="url(#l)" fill-rule="nonzero"/>
        <circle fill="#19171A" fill-rule="nonzero" opacity=".15" cx="231.04" cy="153.387" r="11.613"/>
        <circle fill="url(#m)" fill-rule="nonzero" cx="229.266" cy="151.613" r="11.613"/>
        <path d="M228.785 148.015a.526.526 0 0 0-.644-.372l-2.116.566-.296.08a.746.746 0 0 0-.527.913l.08.297.187.7 1.016-.273-.187-.7 2.115-.567a.526.526 0 0 0 .372-.644z" fill="url(#n)" fill-rule="nonzero"/>
        <path fill="url(#o)" fill-rule="nonzero" transform="rotate(-15 230.181 151.792)" d="M229.722 149.72h.919v4.143h-.919z"/>
        <path fill="url(#p)" fill-rule="nonzero" d="m235.772 154.254-4.61-.58-1.073-4.002 3.703-2.808z"/>
        <path fill="url(#q)" fill-rule="nonzero" transform="rotate(-15 226.621 152.746)" d="M223.395 149.866h6.453v5.759h-6.453z"/>
        <path fill="#0450CF" d="M110.653 115h2v-11h-2z"/>
        <path d="m102.593 202-2.36-1.636.368-1.517-25.62-18.892s-8.312-4.561-1.898-12.34C81.373 157.559 96.834 146 96.834 146s8.07 2.42 8.54 5.567c1.178 7.886-21.661 23.256-21.661 23.256s10.202 4.571 20.38 20.502c2.28 3.564 2.56 4.095 2.56 4.095l-4.06 2.58" fill="#212957"/>
        <path d="m94.171 158-18.518 15.974s25.065 18.977 29 26.545m-4.43.481s1.415-1.228 4.234-2.954" stroke="#3B47BC" stroke-width="2.411"/>
        <path d="M97.368 146.333s-8.342 54.69-27.5 84.847c-1.884 2.969-2.215 3.782-2.215 3.782L72.345 238l1.403-2.444s19.37-22.529 20.455-27.341c1.084-4.815 1.109-13.913 13.429-29.191 12.322-15.282 2.026-32.148 1.351-32.767-.678-.62-11.615.076-11.615.076" fill="#3B47BC"/>
        <path d="M104.653 147s-7.07 45.4-17.777 63.002C76.171 227.604 69.653 237 69.653 237m30.669-89.807s.648 4.74 3.08 5.715" stroke="#7EB3FF" stroke-width="2.411"/>
        <path d="M92.145 146.152s-11.198 12.99-13.138 15.836c-1.938 2.848-1.646-.75-.066-5.379 1.576-4.631 8.864-16.402 10.916-15.567 2.053.833 8.212 3.34 2.288 5.11M75.653 167.699l.92 1.301s.233-.636-.095-1.103l-.634-.897-.19.699" fill="#F7B68B"/>
        <path d="m75.653 166.658.457.981 1.502.361s.301-.236-.733-.783c-.228-.127-.674-1.217-.674-1.217l-.552.658" fill="#F7B68B"/>
        <path d="M77.513 161.758s-1.474 1.838-2.384 4.333c-.908 2.494-.264 2.71-.12 3.52.14.813.23 1.966.543 1.054.308-.914-.034-2.493.105-2.976.138-.482.67-1.027 1.083-1.631.41-.604.642-1.079.57-.34-.07.74-.097.987-.03 1.241.066.256.14.664.475.648.33-.017.166-.583.191-.828.024-.246.603-1.43.685-1.72.084-.29-.097-1.304-.142-1.956-.024-.322-.198-1.078-.442-1.763-.25-.706-.125-.187-.534.418" fill="#F7B68B"/>
        <path d="M88.364 121.728s6.86-6.215 1.568-16.078c-2.933-5.468-1.394-20.407 8.1-15.77 9.495 4.636 6.922-1.145 12.282 1.434 5.364 2.58 7.734 6.457 7.012 10.69-.723 4.23-.252 12.294 3.043 13.846 3.297 1.55 19.09 10.222 8.912 21.177-10.18 10.954-47.189 2.91-40.917-15.3" fill="#212957"/>
        <path d="M107.653 106s-1.432 7.79-.477 10.56c.954 2.77-6.523.692-6.523.692s.318-6.405.477-7.79c.16-1.385 6.523-3.462 6.523-3.462" fill="#F7B68B"/>
        <path d="M100.935 110.25c.163-1.3 6.718-3.25 6.718-3.25s-4.766 6.854-6.39 6.989a3.009 3.009 0 0 1-.61-.009c.097-1.545.206-3.133.282-3.73" fill="#EC9568"/>
        <path d="M100.14 116.102s1.872 3.49-1.533 13.295c-3.404 9.806-4.765 15.123-5.446 15.29-.681.166-4.255.83-5.447-.499-1.191-1.33-2.212-2.493-2.042-3.324.17-.83 6.567-19.354 7.83-20.94 2.382-2.99 5.446-4.32 6.637-3.822" fill="#DD000B"/>
        <path d="m104.738 116.183-5.923.338s-6.848 7.604-7.774 10.477c-.925 2.872 0 3.379.74 6.083.741 2.703 2.777 9.97.926 14.025-1.85 4.055 16.658.338 16.658.338s2.221-6.928 2.036-9.632c-.185-2.704 2.591-23.995-6.663-21.629" fill="#FD2227"/>
        <path d="M96.798 99s-.488 6.733.325 8.703c.814 1.97 1.139 3.449 3.09 3.285 1.952-.165 5.042-3.12 6.83-4.27 1.79-1.15 3.09-2.463 2.44-4.105-.65-1.642-1.464-.329-1.464.164 0 .492-5.041 1.314-8.944-1.15-.975-.615-2.44-1.642-2.277-2.627" fill="#F7B68B"/>
        <path d="M71.542 236.112 72.653 242H55.654s-.111-1.854 1.889-2.398c2-.546 7.444-2.181 8.888-3.926 1.445-1.744 5.111.436 5.111.436M105.9 199l5.753.911L106.357 216s-1.737-.513-1.615-2.587c.123-2.075.317-7.773-.835-9.721-1.152-1.95 1.993-4.692 1.993-4.692" fill="#9AC7F7"/>
        <path d="M108.245 117.356s-1.87 5.187-1.557 8.544c.313 3.356 1.262 11.58 1.262 11.58s1.943 9.573 5.79 8.424c3.848-1.15 3.583-12.053.956-18.947-2.628-6.893-5.271-11.271-6.45-9.601" fill="#DD000B"/>
        <path d="m83.91 132.999 5.054-.243c.567-.027.84-.489.605-1.026l-4.715-10.801c-.235-.537-.89-.955-1.458-.928l-5.054.243c-.567.027-.84.489-.605 1.026l4.715 10.8c.235.538.891.956 1.458.929" fill="#212957"/>
        <path d="M115.653 142.752s-.182 1.93-.185 2.349c-.003.42-1.873.911-3.825.899-1.951-.013-16.325-8.328-17.68-8.924-1.353-.597-4.488-1.456-5.251-1.544-.763-.09-1.344-2.191-.91-3.531.286-.887.572-1.663 1.002-1.915.22-.13.477-.12.791.08.93.593 4.643 3.806 4.643 3.806s8.731 1.65 12.2 3.183c3.47 1.532 7.532 3.404 9.215 5.597" fill="#F7B68B"/>
        <path d="m83.919 130.523 4.734-.523-1.06 1.82.608 2.796-2.608.384s-.356-.401.094-.558c.45-.157 1.08-.393 1.08-.393s-1.256-.166-1.794-.25c-.538-.082-.627-.242-.625-.481.002-.24.541-.396.541-.396s-.985-.325-1.073-.565c-.088-.24-.266-.56-.084-.798.181-.238-.084-.878.187-1.036" fill="#EC9568"/>
    </g>
</svg>
