<svg xmlns="http://www.w3.org/2000/svg" xmlns:xlink="http://www.w3.org/1999/xlink" width="225" height="194" viewBox="0 0 225 194">
    <defs>
        <ellipse id="1lfkp87vpa" cx="107.647" cy="96.618" rx="97.059" ry="96.618"/>
    </defs>
    <g fill="none" fill-rule="evenodd">
        <g>
            <g transform="translate(-68.000000, -1137.000000) translate(68.000000, 1137.000000)">
                <use fill="#EBECFA" xlink:href="#1lfkp87vpa"/>
                <g fill-rule="nonzero">
                    <g transform="translate(0.000000, 22.058824) translate(38.042067, 0.000000)">
                        <path fill="#FFF" d="M115.875 8.824H13.63c-3.407 0-6.675 1.705-9.085 4.741C2.135 16.601.781 20.72.781 25.012v112.93c0 .403.02.805.061 1.205.067.655.188 1.3.363 1.922.949 3.392 3.349 5.806 6.184 6.22.285.043.573.064.86.064h112.356c2.153 0 4.218-1.077 5.74-2.995 1.523-1.919 2.378-4.52 2.378-7.234V25.012c0-4.293-1.354-8.41-3.763-11.447-2.41-3.036-5.677-4.741-9.085-4.741zm-14.784 5.099c2.896-2.007 6.913-2.098 9.92-.226 3.006 1.872 4.305 5.274 3.21 8.4-1.097 3.128-4.336 5.256-7.998 5.256-.332 0-.664-.017-.993-.053-.36-.037-.715-.096-1.066-.176-3.107-.704-5.494-2.933-6.147-5.741-.654-2.808.54-5.704 3.074-7.46zm-42.439.06c3.06-2.177 7.396-2.173 10.45.01 3.054 2.185 4.016 5.968 2.317 9.118-1.699 3.15-5.606 4.832-9.418 4.053-3.81-.78-6.514-3.813-6.514-7.311-.005-2.288 1.161-4.45 3.165-5.87zm-42.267-.06c3.083-2.136 7.405-2.088 10.427.117 3.023 2.204 3.947 5.982 2.23 9.115-1.716 3.132-5.621 4.792-9.42 4.003-3.798-.788-6.487-3.816-6.488-7.305-.005-2.321 1.196-4.513 3.25-5.93z"/>
                        <path fill="#C7C7E3" d="M115.964 7.941H14.423c-3.384 0-6.63 1.24-9.022 3.446-2.393 2.207-3.737 5.2-3.737 8.32V30h127.059V19.706c0-3.12-1.345-6.112-3.737-8.319-2.393-2.206-5.638-3.446-9.022-3.446zm-94.006 18.53c-4.386 0-7.941-3.358-7.941-7.5 0-4.143 3.555-7.5 7.941-7.5 4.386 0 7.941 3.357 7.941 7.5 0 4.142-3.555 7.5-7.941 7.5zm42.353 0c-3.212 0-6.107-1.828-7.337-4.63-1.229-2.803-.55-6.029 1.722-8.174 2.271-2.145 5.687-2.786 8.654-1.625 2.967 1.16 4.902 3.895 4.902 6.929 0 4.142-3.555 7.5-7.94 7.5zm41.474 0c-.314 0-.628-.018-.94-.053-.34-.037-.677-.096-1.009-.176-4.066-.97-6.632-4.761-5.858-8.655.774-3.893 4.62-6.547 8.782-6.059 4.163.489 7.205 3.95 6.947 7.904-.258 3.954-3.727 7.037-7.921 7.039z"/>
                        <rect width="9.176" height="21.099" x="17.9" y=".485" fill="#5F6386" rx="4.588"/>
                        <rect width="9.176" height="21.099" x="60.379" y=".106" fill="#5F6386" rx="4.588"/>
                        <rect width="9.176" height="21.099" x="101.625" y=".485" fill="#5F6386" rx="4.588"/>
                        <path fill="#C7C7E3" d="M93.759 109.939H115.068V131.266H93.759zM54.919 109.939H76.228V131.266H54.919zM16.765 110.294H38.074V131.621H16.765zM93.759 44.645H115.068V65.97200000000001H93.759zM54.919 44.645H76.228V65.97200000000001H54.919zM16.765 45H38.074V66.327H16.765zM94.063 77.759H115.372V99.086H94.063z"/>
                        <path fill="#FFAA40" d="M55.223 77.759H76.532V99.086H55.223zM16.765 77.647H38.074V98.974H16.765z"/>
                        <path fill="#FFAA40" d="M100.427 73.887L121.74 73.895 121.748 95.217 100.434 95.209z" transform="translate(111.087104, 84.552136) rotate(30.000000) translate(-111.087104, -84.552136)"/>
                    </g>
                    <g transform="translate(0.000000, 22.058824) translate(0.277361, 79.235294)">
                        <ellipse cx="32.333" cy="46.811" fill="#5F6289" rx="32.233" ry="32.177"/>
                        <ellipse cx="32.333" cy="46.811" fill="#DADEF2" rx="23.86" ry="23.819"/>
                        <ellipse cx="32.333" cy="46.811" fill="#FFAA40" rx="3.954" ry="3.947"/>
                        <path fill="#FFAA40" d="M36.292 35.338c.769 0 1.393.622 1.393 1.391v.002l-.009 10.5c0 .77-.625 1.395-1.395 1.396-.769 0-1.393-.622-1.393-1.391v-.003l.008-10.5c.001-.77.626-1.394 1.396-1.395z" transform="translate(36.286413, 41.982399) rotate(38.903000) translate(-36.286413, -41.982399)"/>
                        <g fill="#FFAA40">
                            <path d="M2.764 27.554c.871 0 1.578.705 1.579 1.576v.003l-.002 1.394c0 .873-.708 1.581-1.58 1.582-.872 0-1.579-.705-1.58-1.576v-.003l.002-1.394c0-.873.708-1.581 1.581-1.582z" transform="translate(14.728532, 30.619799) translate(2.762042, 29.831503) rotate(-132.496000) translate(-2.762042, -29.831503)"/>
                            <path d="M31.882.776c.871 0 1.578.705 1.579 1.576v.003L33.46 3.75c-.001.873-.709 1.58-1.582 1.581-.87.001-1.578-.705-1.578-1.576V2.358c.002-.873.71-1.58 1.582-1.582z" transform="translate(14.728532, 30.619799) translate(31.880165, 3.053790) rotate(-132.528044) translate(-31.880165, -3.053790)"/>
                        </g>
                        <g fill="#FFAA40">
                            <path d="M30.034 29.28c.873.002 1.58.71 1.581 1.582l.001 1.394c0 .871-.705 1.578-1.576 1.579h-.003c-.873-.001-1.58-.709-1.581-1.582l-.001-1.393c-.001-.872.705-1.578 1.576-1.58h.003z" transform="translate(15.694338, 29.888092) translate(30.035487, 31.557810) rotate(136.542000) translate(-30.035487, -31.557810)"/>
                            <path d="M2.776.566c.873 0 1.581.708 1.582 1.582l.001 1.393c0 .871-.705 1.578-1.576 1.579H2.78c-.873 0-1.58-.708-1.581-1.581l-.001-1.394C1.197 1.274 1.902.567 2.774.566h.002z" transform="translate(15.694338, 29.888092) translate(2.778274, 2.843034) rotate(136.542000) translate(-2.778274, -2.843034)"/>
                        </g>
                        <g fill="#FFAA40">
                            <path d="M42.015-.542c.872 0 1.578.706 1.578 1.578v1.401c0 .872-.706 1.579-1.578 1.579-.872 0-1.579-.707-1.579-1.579v-1.4c0-.873.707-1.58 1.579-1.58z" transform="translate(9.899505, 45.434720) translate(42.014668, 1.736652) rotate(90.238000) translate(-42.014668, -1.736652)"/>
                            <path d="M2.394-.676c.872 0 1.579.707 1.579 1.579v1.4c0 .872-.707 1.579-1.579 1.58-.872 0-1.578-.708-1.578-1.58v-1.4c0-.872.706-1.58 1.578-1.58z" transform="translate(9.899505, 45.434720) translate(2.394219, 1.602965) rotate(90.229182) translate(-2.394219, -1.602965)"/>
                        </g>
                        <g fill="#FFAA40" transform="translate(30.422870, 24.946915)">
                            <rect width="3.163" height="4.55" x=".096" y=".088" rx="1.581"/>
                            <rect width="3.163" height="4.55" x=".096" y="39.647" rx="1.581"/>
                        </g>
                        <path fill="#5F618C" d="M28.101 6.091H37.495999999999995V18.627H28.101z"/>
                        <rect width="35.07" height="10.308" x="15.077" y=".055" fill="#5F618C" rx="5.154"/>
                        <path fill="#5F618C" d="M7.729 21.874L12.19 21.878 12.193 25.875 7.732 25.871z" transform="translate(9.961117, 23.874300) rotate(-45.000000) translate(-9.961117, -23.874300)"/>
                        <ellipse cx="5.822" cy="19.788" fill="#5F618C" rx="4.512" ry="4.504"/>
                    </g>
                    <path fill="#FFAA40" d="M209.616 109.235c-1.925 0-3.312-.842-4.548-1.594-1.249-.759-2.428-1.476-4.221-1.476h-.005c-1.636.001-3.303.596-4.953 1.766-.52.368-1.246.257-1.624-.249-.378-.505-.264-1.213.255-1.581 2.056-1.458 4.183-2.199 6.32-2.2h.007c2.458 0 4.049.966 5.451 1.818 1.247.758 2.232 1.357 3.683 1.236 1.289-.107 2.09-.719 3.018-1.428 1.12-.856 2.39-1.825 4.539-1.93 2.148-.104 4.311.7 6.43 2.39.322.257.479.66.412 1.06-.067.399-.348.733-.736.876-.389.143-.826.073-1.147-.183-1.66-1.324-3.289-1.955-4.844-1.881-1.411.068-2.209.678-3.22 1.45-1.066.815-2.275 1.739-4.255 1.903-.192.016-.379.023-.562.023z" transform="translate(0.000000, 22.058824)"/>
                    <g>
                        <g>
                            <path fill="#FFAA40" d="M11.462 7.64c-1.766 1.946-2.19 2.954-1.118 5.686.287.68.434 1.408.432 2.145-.037 1.53-.922 2.7-2.168 4.074-1.766 1.946-1.817 2.635-1.364 5.9.1.87.085 1.75-.045 2.617-.18 1.265-.465 2.513-.85 3.732h-3.58l-.151-.297c-.603-1.2-1.18-2.559-1.631-3.674-.396-.978-.696-1.767-.83-2.093-.59-1.428 2.188-2.954 1.633-4.841-.426-1.451-1.786-3.243-1.076-5.418.213-.653.614-1.342 1.284-2.066.274-.295.527-.61.755-.941 1.85-2.716.664-5.053 1.293-7.908.698-3.18 4.944-5.751 7.342-3.729 2.398 2.022 1.84 4.866.074 6.813z" transform="translate(0.000000, 22.058824) translate(57.453831, 108.529412) translate(15.560685, 7.449312)"/>
                            <path fill="#30354F" d="M10.096 4C8.85 5.42 7.59 6.884 6.863 8.65c-.358.842-.556 1.742-.584 2.656-.021 1.067.25 2.122.183 3.191-.122 1.913-1.436 3.454-2.25 5.111-.825 1.676-.845 3.318-.432 5.118.54 2.355 1.1 4.625.987 7.067-.01.232.352.232.362 0 .09-1.96-.182-3.918-.662-5.815-.501-1.98-.97-3.895-.104-5.845.66-1.488 1.722-2.783 2.216-4.347.6-1.897-.216-3.84.221-5.76.515-2.261 2.058-4.07 3.552-5.772.153-.174-.102-.43-.256-.255z" transform="translate(0.000000, 22.058824) translate(57.453831, 108.529412) translate(15.560685, 7.449312)"/>
                        </g>
                        <g>
                            <path fill="#FFA70E" d="M20.341 30.983c-.096.377-.286 1.208-.546 2.267-.157.641-.34 1.367-.544 2.125-.315 1.175-.679 2.427-1.073 3.571l-.103.297H13.31c-.617-1.343-1.127-2.732-1.528-4.154-.075-.277-.143-.553-.203-.829-.181-.781-.279-1.58-.292-2.381-.009-4.228-.197-5.094-2.79-7.253-.48-.4-.927-.788-1.33-1.177-1.222-1.177-2.043-2.365-2.2-3.97-.066-.82.006-1.647.212-2.445.038-.159.073-.314.104-.463.703-3.306-.06-4.497-2.54-6.563-.32-.265-.618-.553-.895-.861C.813 7.995.147 6.597.108 5.145c-.017-.612.08-1.22.285-1.797.255-.702.64-1.35 1.137-1.91l.086-.099c.075-.083.152-.162.232-.236 2.776-2.62 8.347-.137 9.765 3.669.972 2.611.622 5.037 1.539 7.39.458 1.177 1.232 2.334 2.645 3.488.15.124.293.247.428.37 1.437 1.316 1.98 2.632 2.09 3.892.09 1.055-.123 2.068-.372 3.008-.21.793-.444 1.534-.543 2.203-.214 1.461 1 2.562 1.945 3.61.668.741 1.2 1.455.996 2.25z" transform="translate(0.000000, 22.058824) translate(57.453831, 108.529412)"/>
                            <path fill="#30354F" d="M3.557 5.452C5.527 7.147 7.538 8.92 8.73 11.27c.592 1.19.92 2.494.962 3.822.058 1.212.038 2.44.438 3.602.662 1.927 2.138 3.408 3.316 5.025.591.813 1.133 1.683 1.435 2.647.42 1.342.377 2.76.248 4.145-.14 1.494-.343 2.973-.355 4.476-.015 1.442.097 2.882.335 4.304.039.228.388.132.35-.096-.476-2.8-.29-5.543-.002-8.347.243-2.366.11-4.55-1.205-6.593-1.163-1.807-2.838-3.318-3.654-5.337-.495-1.225-.484-2.528-.545-3.826-.033-1.152-.273-2.288-.71-3.356-1.14-2.688-3.36-4.671-5.53-6.539-.175-.15-.432.103-.256.255z" transform="translate(0.000000, 22.058824) translate(57.453831, 108.529412)"/>
                        </g>
                    </g>
                    <g>
                        <path fill="#9FA3BF" d="M.096 45.596s.355-7.476 2.837-11.393c2.482-3.916 2.819-4.828 1.712-8.354-1.107-3.525-1.53-6.104 1.427-8.979 2.957-2.874 3.01-4.411 1.903-7.937C6.868 5.408 7.819 1.44 12.047.25c4.229-1.19 8.12 4.585 7.151 9.067-.969 4.481-4.419 6.825-2.568 12.53 1.85 5.706-2.301 7.616-4.108 9.709-1.807 2.093.83 5.67-.752 7.155C10.187 40.195-.604 51.215.096 45.596z" transform="translate(0.000000, 22.058824) translate(180.983243, 89.823529)"/>
                        <path fill="#30354F" d="M1.86 46.333c-.12-1.642.64-3.177 1.372-4.599.694-1.349 1.497-2.639 2.4-3.857 1.548-2.082 3.537-4.007 4.22-6.593.736-2.787-.235-5.643-.057-8.46.095-1.503.645-2.775 1.394-4.058.712-1.22 1.386-2.408 1.701-3.8.753-3.317-.178-6.684-1.118-9.857-.066-.222-.413-.128-.347.096.882 2.978 1.773 6.116 1.205 9.244-.278 1.527-.98 2.813-1.752 4.135-.666 1.14-1.211 2.286-1.383 3.612-.366 2.83.66 5.674.122 8.493-.524 2.751-2.619 4.765-4.23 6.92-.994 1.33-1.868 2.746-2.612 4.233-.699 1.397-1.392 2.89-1.274 4.491.017.23.377.232.36 0z" transform="translate(0.000000, 22.058824) translate(180.983243, 89.823529)"/>
                    </g>
                    <g>
                        <path fill="#FFAA40" d="M.204 21.8s1.675-3.894 3.778-5.477c2.102-1.583 2.463-2 2.574-4.09.11-2.091.397-3.544 2.546-4.48 2.149-.935 2.482-1.74 2.592-3.83.111-2.091 1.407-4.006 3.9-3.794 2.491.211 3.419 4.05 2.011 6.234-1.407 2.184-3.713 2.74-3.86 6.135-.148 3.396-2.742 3.581-4.122 4.331-1.38.75-.684 3.174-1.823 3.646-1.138.472-9.087 4.167-7.596 1.326z" transform="translate(0.000000, 22.058824) translate(186.983243, 114.529412)"/>
                        <path fill="#30354F" d="M1.078 22.556c.27-.879.963-1.526 1.628-2.126.713-.644 1.484-1.22 2.302-1.723 1.257-.774 2.665-1.447 3.467-2.746.817-1.323.875-2.935 1.525-4.326.7-1.495 2.298-2.145 3.188-3.493 1.07-1.622 1.242-3.615 1.373-5.499.016-.234-.349-.233-.365 0-.162 2.339-.444 4.805-2.328 6.433-.742.641-1.534 1.184-2.022 2.06-.448.804-.653 1.713-.893 2.594-.282 1.034-.626 2.036-1.402 2.811-.76.76-1.738 1.247-2.645 1.801-.905.55-1.754 1.187-2.536 1.9-.689.632-1.362 1.305-1.644 2.218-.069.224.283.32.352.097v-.001z" transform="translate(0.000000, 22.058824) translate(186.983243, 114.529412)"/>
                    </g>
                    <g>
                        <path fill="#5F6386" d="M44.453 98.787l-8.285 1.647c-.536.107-.923.576-.923 1.12 0 .632.514 1.144 1.148 1.144h11.779l-.237-3.87-3.482-.041z" transform="translate(0.000000, 22.058824) translate(139.336184, 44.647059)"/>
                        <path fill="#FB855F" d="M44.327 96.041h3.483v3.414c0 .62-.505 1.122-1.127 1.122h-1.23c-.621 0-1.126-.503-1.126-1.122v-3.413z" transform="translate(0.000000, 22.058824) translate(139.336184, 44.647059)"/>
                        <path fill="#5F6386" d="M18.98 98.025l-8.44-.344c-.547-.022-1.033.343-1.162.873-.15.613.229 1.23.845 1.38l11.446 2.764.686-3.816-3.374-.857z" transform="translate(0.000000, 22.058824) translate(139.336184, 44.647059)"/>
                        <path fill="#FB855F" d="M18.926 95.673l3.481-.004-.003 3.414c-.001.62-.506 1.123-1.128 1.123l-1.229.002c-.622 0-1.126-.501-1.125-1.121l.003-3.414z" transform="translate(0.000000, 22.058824) translate(139.336184, 44.647059) translate(20.664465, 97.938551) rotate(13.634000) translate(-20.664465, -97.938551)"/>
                        <path fill="#EB8F90" d="M34.785 16.23s-3.754 2.245-7.58 4.842c-4.24 2.88-8.532 6.248-7.062 8.652 3.237 5.293 18.234-8.608 18.234-8.608 1.995-2.516-.85-5.677-3.592-4.885z" transform="translate(0.000000, 22.058824) translate(139.336184, 44.647059)"/>
                        <path fill="#80C2C1" d="M27.904 18.848c.7 2.686 2.04 5.37 4.019 8.051l8.459-6.451-3.25-5.491-9.228 3.89z" transform="translate(0.000000, 22.058824) translate(139.336184, 44.647059)"/>
                        <g>
                            <path fill="#EB8F90" d="M7.99 3.947s17.641-1.883 18.152 3.17c.576 5.697-18.669-.1-18.669-.1s-1.054-1.197.518-3.07z" transform="translate(0.000000, 22.058824) translate(139.336184, 44.647059) translate(0.000000, 21.311772)"/>
                            <path fill="#EB8F90" d="M9.09 3.848S8.603 2.8 7.819 2.278c-.785-.523-1.37-.782-1.899-1.755-.529-.973-1.451-.294-.956.532.495.825 1.458 2.033.318 2.235-1.141.203-3.56-1.789-3.775.074 0 0-1.278-.631-1.448-.05-.171.583.985 1.162.985 1.162s-1.367.841 1.79 1.797c0 0-.344.686.249.95.949.424 3.206.445 4.895-.06 2.744-.818 1.112-3.315 1.112-3.315z" transform="translate(0.000000, 22.058824) translate(139.336184, 44.647059) translate(0.000000, 21.311772)"/>
                            <path fill="#D16B70" d="M5.08 4.5c-2.927-.49-3.605-1.042-3.633-1.065l.121-.142c.007.005.69.546 3.543 1.023l-.032.184zM4.8 5.55c-1.557-.123-3.768-.978-3.79-.987l.067-.173c.022.009 2.209.854 3.737.975l-.014.186zM4.953 6.565c-.931-.066-2.117-.199-2.13-.2l.021-.185c.013.001 1.194.134 2.122.199l-.013.186z" transform="translate(0.000000, 22.058824) translate(139.336184, 44.647059) translate(0.000000, 21.311772)"/>
                        </g>
                        <path fill="#5F6386" d="M26.714 73.78c-2.459-.683-3.953-3.159-3.404-5.64 2.332-10.506 5.057-20.824 7.484-28.529h10.844c-2.808 8.765-6.484 21.52-8.98 30.795-.332 1.236-1.147 2.289-2.264 2.923-1.117.634-2.442.796-3.68.452z" transform="translate(0.000000, 22.058824) translate(139.336184, 44.647059)"/>
                        <path fill="#5F6386" d="M29.209 64.885c-1.272-.355-2.635-.17-3.766.508-1.132.679-1.932 1.792-2.211 3.078-1.97 9.065-4.653 20.778-5.862 26.605l7.848 2.186c1.518-6.6 5.15-18.396 7.333-26.553.675-2.525-.814-5.121-3.342-5.824zM44.965 73.948c-2.553.002-4.662-1.982-4.805-4.52-.596-10.742-.859-21.746-.606-29.817h10.53c-.332 9.194-.414 19.892-.307 29.493.014 1.28-.486 2.512-1.39 3.422-.904.91-2.137 1.422-3.422 1.422z" transform="translate(0.000000, 22.058824) translate(139.336184, 44.647059)"/>
                        <path fill="#5F6386" d="M44.96 64.712c-1.32 0-2.583.543-3.49 1.5-.905.957-1.374 2.244-1.295 3.557.556 9.259 1.349 20.696 1.761 26.632h8.149c-.324-6.763-.226-18.535-.33-26.975-.033-2.613-2.17-4.714-4.794-4.714z" transform="translate(0.000000, 22.058824) translate(139.336184, 44.647059)"/>
                        <path fill="#80C2C1" d="M30.784 39.611s.245-21.279 5.604-24.308c3.072-1.736 9.43-1.265 12.673 1.135 3.273 2.421.962 23.173.962 23.173H30.784z" transform="translate(0.000000, 22.058824) translate(139.336184, 44.647059)"/>
                        <path fill="#EB8F90" d="M43.95 20.266s-1.159 4.204-2.124 8.713c-1.07 4.998-1.837 10.385.894 11.113 6.012 1.602 7.216-18.762 7.216-18.762-.302-3.192-4.552-3.522-5.986-1.064z" transform="translate(0.000000, 22.058824) translate(139.336184, 44.647059)"/>
                        <path fill="#80C2C1" d="M41.502 27.2c2.784 1.457 5.737 2.022 8.782 2.094l.294-6.855c.091-2.137-1.434-4.007-3.554-4.356l-3.586-.59-1.936 9.707z" transform="translate(0.000000, 22.058824) translate(139.336184, 44.647059)"/>
                        <path fill="#50A5A0" d="M32.062 26.513l-.372-.04c.005-.043.492-4.427 2.398-8.17l.333.168c-1.874 3.681-2.354 8-2.359 8.042z" transform="translate(0.000000, 22.058824) translate(139.336184, 44.647059)"/>
                        <path fill="#50A5A0" d="M46.796 25.965L52.976 25.972 52.977 26.346 46.797 26.339z" transform="translate(0.000000, 22.058824) translate(139.336184, 44.647059) translate(49.886620, 26.155178) rotate(-73.865795) translate(-49.886620, -26.155178)"/>
                        <path fill="#50A5A0" d="M41.062 19.282c-.32 0-.638-.033-.951-.095-2.732-.533-3.33-3.969-3.353-4.114l.368-.06c.006.033.581 3.326 3.057 3.81 2.29.447 4.205-.853 5.688-3.862l.336.164c-1.362 2.763-3.09 4.157-5.145 4.157zM48.825 27.12c-1.49 0-4.64-.1-6.412-.883l.152-.34c2.248.993 7.016.84 7.064.84l.013.371c-.048.002-.351.012-.817.012zM32.09 24.572c-1.346-1.752-2.907-6.043-2.973-6.225l.352-.126c.016.044 1.608 4.419 2.918 6.125l-.297.226z" transform="translate(0.000000, 22.058824) translate(139.336184, 44.647059)"/>
                        <path fill="#5F6386" d="M34.978 51.114l7.856.309-.93-6.793s-2.998-.102-3.721-.102c-.724 0-3.205 6.586-3.205 6.586z" transform="translate(0.000000, 22.058824) translate(139.336184, 44.647059)"/>
                        <path fill="#30354F" d="M40.407 47.897L37.248 47.03 38.412 39.867 38.781 39.926 37.67 46.759 40.506 47.538z" transform="translate(0.000000, 22.058824) translate(139.336184, 44.647059)"/>
                        <path fill="#30354F" d="M48.121 39.519L48.494 39.519 48.506 47.474 48.133 47.474z" transform="translate(0.000000, 22.058824) translate(139.336184, 44.647059) translate(48.313364, 43.496378) rotate(-21.251000) translate(-48.313364, -43.496378)"/>
                        <path fill="#30354F" d="M25.933 43.61L35.545 43.628 35.546 44.002 25.933 43.983z" transform="translate(0.000000, 22.058824) translate(139.336184, 44.647059) translate(30.739348, 43.805717) rotate(-59.027000) translate(-30.739348, -43.805717)"/>
                        <path fill="#30354F" d="M25.962 94.236l-7.83-2.733-.25-.087-.727 3.794 2.231.621 3.356.935 2.607.726.862-3.168-.249-.088zM18.17 91.91l7.59 2.65-.672 2.472-2.257-.628-3.356-.935-1.888-.526.583-3.033zM45.35 93.02c-.16.127-.32.252-.478.373h2.193c.061-.118.128-.243.198-.373H45.35zm4.864 1.805l-.067-1.805h-8.761l.066.618.184 1.715.132 1.234h8.51l-.064-1.762zm-.427-1.432l.058 1.563.046 1.258h-7.786l-.107-.995-.166-1.54-.023-.223-.007-.063h7.985z" transform="translate(0.000000, 22.058824) translate(139.336184, 44.647059)"/>
                        <g>
                            <path fill="#EB8F90" d="M6.874 11.02S19.889-3.21 23.579.695C27.739 5.1 8.447 13.987 8.447 13.987S6.82 13.73 6.874 11.02z" transform="translate(0.000000, 22.058824) translate(139.336184, 44.647059) translate(21.406006, 35.399214)"/>
                            <path fill="#EB8F90" d="M7.696 10.149s-1.072-.537-2.044-.417c-.972.12-1.612.321-2.67-.123-1.058-.443-1.362.791-.427 1.135.935.343 2.495.674 1.706 1.662-.789.989-4.034 1.039-2.997 2.767 0 0-1.442.382-1.202.996.24.615 1.548.277 1.548.277s-.558 1.69 2.61.235c0 0 .167.828.818.627 1.04-.322 2.876-1.922 3.912-3.558 1.683-2.66-1.254-3.601-1.254-3.601z" transform="translate(0.000000, 22.058824) translate(139.336184, 44.647059) translate(21.406006, 35.399214)"/>
                            <path fill="#D16B70" d="M1.263 15.266v-.186c.008 0 .91-.033 3.523-1.673l.1.157c-2.68 1.682-3.585 1.702-3.623 1.702zM1.642 16.533l-.064-.175c.023-.008 2.336-.86 3.65-1.854l.113.149c-1.336 1.01-3.675 1.871-3.699 1.88zM4.274 16.757l-.108-.152c.01-.007 1.05-.742 1.842-1.352l.114.147c-.794.613-1.837 1.35-1.848 1.357z" transform="translate(0.000000, 22.058824) translate(139.336184, 44.647059) translate(21.406006, 35.399214)"/>
                        </g>
                        <path fill="#D16B70" d="M40.919 35.105L41.105 35.106 41.108 37.498 40.922 37.497z" transform="translate(0.000000, 22.058824) translate(139.336184, 44.647059) translate(41.013317, 36.301503) rotate(-70.956000) translate(-41.013317, -36.301503)"/>
                        <g transform="translate(0.000000, 22.058824) translate(139.336184, 44.647059) translate(37.248869, 0.000000)">
                            <path fill="#EB8F90" d="M4.024 17.915c-2.205 0-3.21-2.565-2.618-3.155.177-.187.318-.404.416-.642h.002c.15-.356.25-.73.3-1.114v-.001l4.078-3.621c-.22 2.305.77 3.924 1.13 5.076.36 1.153-.8 3.457-3.308 3.457z"/>
                            <path fill="#000" d="M3.672.79C2.503 3.016.078 2.795.01 2.8c.149-.356.25-.73.3-1.114v-.001C.422 1.622 4.769-1.297 3.673.79z" opacity=".32" transform="translate(1.814068, 11.318116)"/>
                            <path fill="#8E3332" d="M10.235 5.24s-.176 2.104-3.249 4.271c-3.221 2.273.446-4.712.446-4.712l2.803.44z"/>
                            <path fill="#EB8F90" d="M1.846 3.975S1.411 5.79.847 7.824c-.806 2.91-.875 5.262 2.102 5.262 5 0 4.666-8.26 4.666-8.26l-5.769-.85z"/>
                            <path fill="#EB8F90" d="M8.09 7.035c.787.32.24 2.315-1.475 2.51-1.323.152.262-3.004 1.475-2.51z"/>
                            <circle cx="4.413" cy="7.672" r="1" fill="#8E3332"/>
                            <circle cx="1.945" cy="7.074" r="1" fill="#8E3332"/>
                            <path fill="#8E3332" d="M2.425 9.98c-.177.006-.343-.088-.429-.242-.079-.164-.036-.392.24-.533.139-.069.22-.217.203-.37l.394-.055c.039.32-.127.63-.416.777l-.036.021c.044.012.09.007.13-.014l.164.36c-.078.036-.164.055-.25.056z"/>
                            <path fill="#FFF" d="M1.55 10.658l1.687.255s-.281 1.094-1.048.967c-.767-.127-.64-1.222-.64-1.222z"/>
                            <path fill="#8E3332" d="M5.417 7.1c-.14-.328-.446-.555-.8-.597l.02-.395c.503.05.94.367 1.142.83l-.362.161zM2.688 6.127c-.45-.317-1.077-.174-1.084-.172l-.092-.385c.033-.008.81-.185 1.406.235l-.23.322z"/>
                            <path fill="#8E3332" d="M6.103 7.728v-.002c-.014-.364-.163-.71-.42-.968v-.001c-.276-.281-.655-.44-1.05-.44h-.008c-.662.006-1.24.45-1.413 1.086v.001c-.034.124-.05.252-.05.38 0 .624.396 1.18.988 1.384.593.204 1.25.012 1.637-.478l.002-.002c.205-.257.316-.576.316-.904 0-.019 0-.038-.002-.056zM4.633 9.05c-.698-.007-1.26-.573-1.26-1.268 0-.695.562-1.261 1.26-1.268.026 0 .052.002.078.004h.008c.685.047 1.21.625 1.186 1.308-.023.682-.585 1.224-1.272 1.224zM2.482 6.016H2.48c-.26-.24-.6-.378-.954-.388h-.093c-.648.023-1.204.466-1.37 1.09-.166.623.097 1.281.648 1.62.232.145.5.222.774.221.647 0 1.219-.423 1.408-1.04.02-.063.035-.128.044-.193.013-.077.02-.155.02-.233 0-.41-.173-.8-.475-1.077zm-.997 2.346C.802 8.36.24 7.825.213 7.146.185 6.466.7 5.886 1.38 5.83h.002c.034-.004.068-.005.103-.005.03 0 .06.001.09.005.135.009.268.04.394.09v.002h.004c.56.232.879.826.76 1.42-.119.592-.641 1.02-1.248 1.02z"/>
                            <path fill="#8E3332" d="M3.021 7.116L3.219 7.116 3.22 7.613 3.022 7.612z" transform="translate(3.120717, 7.364399) rotate(-74.046738) translate(-3.120717, -7.364399)"/>
                            <path fill="#8E3332" d="M1.648 5.098s2.907 1.37 5.967-.272l2.62.414s-.73-2.14-2.569-2.972c-1.839-.832-6.603-.582-6.018 2.83z"/>
                            <ellipse cx="11.094" cy="3.6" fill="#8E3332" rx="3.511" ry="3.495"/>
                        </g>
                    </g>
                </g>
            </g>
        </g>
    </g>
</svg>
