<?xml version="1.0" encoding="UTF-8"?>
<svg width="375px" height="364px" viewBox="0 0 375 364" version="1.1" xmlns="http://www.w3.org/2000/svg" xmlns:xlink="http://www.w3.org/1999/xlink">
    <title>064DF6A6-CBDB-4FE4-9548-BAC68CF3DE56</title>
    <g id="Visuals" stroke="none" stroke-width="1" fill="none" fill-rule="evenodd">
        <g id="09" transform="translate(-138.000000, -231.000000)" fill-rule="nonzero">
            <g id="Log-Out-or-Sign-In-5" transform="translate(138.000000, 231.000000)">
                <g id="Group" transform="translate(24.500000, 29.500000)">
                    <path d="M339.948289,41.9687754 L336.298008,104.984877 L336.121673,108.06822 L333.577232,151.925669 L333.391848,155.141869 L330.916958,197.808784 L330.700806,201.542708 L329.571437,221.05547 C328.798099,234.283165 317.352897,244.480246 304.12108,243.707148 L163.289719,235.550983 L159.925916,235.357644 L128.953856,233.564089 L125.860502,233.386258 L82.5230418,230.873886 L78.7481369,230.657284 L22.7355285,227.410326 C12.8964194,226.817155 4.40547468,220.305527 1.28346768,210.958936 C0.942303946,209.958491 0.671030706,208.935574 0.471604563,207.897564 C0.0943715289,205.945045 -0.0381666858,203.953163 0.0770494297,201.967898 L2.24891255,164.489085 L2.42653992,161.381186 L6.33460076,93.9591271 L6.52024335,90.8282246 L9.63660837,36.9822839 L9.8300076,33.758589 L10.4564867,22.8812034 C11.2220684,9.65376695 22.6752852,-0.53659322 35.9068441,0.229783898 L69.740076,2.18566102 L74.1326692,2.44077542 L146.694357,6.64641525 L149.826236,6.82424576 L194.524989,9.41390254 L197.79597,9.60724153 L238.77489,11.9805551 L241.968821,12.1661398 L317.291361,16.5263475 C330.522144,17.2919492 340.714646,28.7423729 339.948289,41.9687754 Z" id="Path" fill="#FFFFFF"></path>
                    <path d="M137.916411,72.4132034 C130.24998,125.767634 127.250935,179.688637 128.953338,233.563831 L125.859985,233.386 C124.167839,179.422549 127.177141,125.414256 134.853825,71.9725042 C138.001217,50.1789619 141.968487,28.2773771 146.693582,6.64641525 L149.82546,6.82424576 C145.069597,28.5402458 141.0713,50.5346229 137.916411,72.4132034 Z" id="Path" fill="#FFFFFF"></path>
                    <path d="M333.576715,151.925411 L333.391331,155.14161 C321.180802,158.025474 308.67863,159.493722 296.131985,159.517753 C283.25588,159.548386 270.431878,157.882204 257.991483,154.561852 C228.63565,146.629784 204.809536,129.428559 192.637019,107.356898 C173.374662,72.4517161 185.383255,31.3157458 194.524471,9.41390254 L197.795452,9.60724153 C188.809369,30.7127246 176.39743,71.5240508 195.344091,105.864725 C207.114038,127.202059 230.243346,143.862297 258.803346,151.569492 C270.97989,154.82644 283.533892,156.458907 296.138707,156.424419 C308.751325,156.397254 321.316978,154.887212 333.576715,151.925411 Z" id="Path" fill="#F0F3FD"></path>
                    <path d="M330.916441,197.808525 L330.700289,201.542449 C298.560335,176.022737 256.158844,168.523873 219.139179,183.281996 C189.915209,194.932479 172.86324,217.182229 163.289202,235.550725 L159.925399,235.357386 C169.638281,216.269814 187.27019,192.659712 217.987057,180.413962 C240.05784,171.616263 264.363574,170.355941 288.275011,176.772572 C303.731695,180.919962 318.220812,188.067761 330.916441,197.808525 L330.916441,197.808525 Z" id="Path" fill="#FFFFFF"></path>
                    <path d="M336.298783,104.983585 L336.121673,108.06822 C335.154935,108.091483 334.195954,108.106992 333.236973,108.106992 C304.005247,108.106992 276.575133,97.0672839 258.850662,75.8690085 C241.311574,54.9028432 238.187194,29.8160763 238.77489,11.9808136 L241.968821,12.1663983 C241.489202,29.244072 244.435696,53.8128559 261.216958,73.8901271 C278.971939,95.1111483 306.81962,105.787441 336.298783,104.983585 Z" id="Path" fill="#F0F3FD"></path>
                    <path d="M90.8358479,124.859504 C80.3330798,140.924475 62.8257947,153.301271 41.5513612,159.711441 C30.7246236,162.966411 19.1403194,164.59661 7.37037262,164.59661 C5.66907985,164.59661 3.95977186,164.565852 2.25098099,164.488568 L2.42860837,161.380669 C3.95977186,161.434691 5.49119392,161.465708 7.02235741,161.465708 C41.0102053,161.465708 72.3690646,147.441911 88.2531407,123.166754 C101.237262,103.313839 104.253308,76.4642754 96.5431939,49.4989153 C91.485597,31.8339873 82.2365627,15.6994873 69.7395589,2.18591949 L74.1321521,2.4410339 C85.8790875,15.8155424 94.6174753,31.5245932 99.5126996,48.6485339 C107.478008,76.4795254 104.314844,104.256754 90.8358479,124.859504 Z" id="Path" fill="#FFFFFF"></path>
                    <path d="M39.8810951,68.9418898 C39.0071787,75.3355169 34.3438783,81.7599025 27.082616,86.5760593 C21.012,90.6038686 13.9128517,93.0932373 6.33408365,93.9591271 L6.51972624,90.8282246 C13.4102205,89.9545805 19.8518631,87.6585508 25.3735665,83.9941568 C31.8927757,79.6724619 36.0612015,74.0366822 36.8110114,68.5244534 C38.2571103,57.9786907 27.6162738,43.56925 9.63686692,36.9822839 L9.83026616,33.758589 C29.9900684,40.7242203 41.5436046,56.7426653 39.8810951,68.9418898 Z" id="Path" fill="#FFFFFF"></path>
                    <path d="M82.5225247,230.873627 L78.7476198,230.657025 C73.0635437,221.851572 65.1677871,214.569051 55.5784943,209.853182 C38.5730646,201.488428 18.4895361,202.044924 1.28191635,210.958678 C0.940752615,209.958232 0.669479375,208.935315 0.470053232,207.897305 C18.3956806,198.844492 39.2447909,198.372775 56.946251,207.077682 C67.721019,212.381322 76.4674221,220.753831 82.5225247,230.873627 Z" id="Path" fill="#FFFFFF"></path>
                </g>
                <path d="M0.5,362.5 C6.39018704,344.817936 17.362702,322.109609 38.4350064,317.72803 C64.4113204,312.326992 78.1043513,340.521333 114.870727,342.855214 C165.797896,346.087933 186.970731,295.002397 228.108746,302.194913 C260.83195,307.916226 267.978118,343.830764 301.713859,342.855214 C316.768828,342.419484 323.137889,335.04126 338.516157,337.372816 C355.407286,339.933989 367.054568,351.766371 374.5,361.999182 L0.5,362.5 Z" id="Path" fill="#FFFFFF"></path>
                <path d="M70.6243423,121.5 L70.6243423,68.0701305 C70.630875,62.8569824 74.8553941,58.6326793 80.0682403,58.6267153 L134.930729,58.6267153 C140.144161,58.6325379 144.369151,62.8574269 144.3754,68.0711614 L144.3754,121.5 L167.5,121.5 L167.5,68.0701305 C167.479548,50.0902206 152.909596,35.5198843 134.930729,35.5 L80.0682403,35.5 C62.089717,35.5203105 47.5203094,50.0905638 47.5,68.0701305 L47.5,121.5 L70.6243423,121.5 Z" id="Path" fill="#30354F"></path>
                <g id="Group" transform="translate(28.500000, 109.500000)">
                    <rect id="Rectangle" fill="#FFAA40" x="0.129996743" y="0.251672098" width="158.64963" height="253.519676" rx="35.892"></rect>
                    <rect id="Rectangle" fill="#30354F" x="70.8792997" y="16.7981426" width="17.1505065" height="66.6607739" rx="8.57525326"></rect>
                    <ellipse id="Oval" fill="#30354F" cx="79.4546824" cy="34.5044257" rx="17.7266873" ry="17.7060244"></ellipse>
                    <rect id="Rectangle" fill="#FFFFFF" x="20.5262785" y="105.222475" width="117.856549" height="22.4122668" rx="11.2061334"></rect>
                    <rect id="Rectangle" fill="#FFFFFF" x="20.5262785" y="149.586859" width="117.856549" height="22.4122668" rx="11.2061334"></rect>
                    <rect id="Rectangle" fill="#CC7B16" x="34.882373" y="193.989525" width="89.1448779" height="26.8939959" rx="13.446998"></rect>
                </g>
                <g id="Group" transform="translate(94.500000, 0.500000)">
                    <path d="M163.947343,348.234698 L136.081088,353.935746 C134.259138,354.325421 132.961437,355.946573 132.975266,357.815425 L132.975266,357.815425 C132.953173,359.977638 134.682018,361.74873 136.837272,361.771586 L176.458118,361.771586 L175.661498,348.378878 L163.947343,348.234698 Z" id="Path" fill="#494E6D"></path>
                    <path d="M163.525724,338.730196 L175.239622,338.730196 L175.239622,350.004906 C175.239622,352.447128 173.266177,354.426939 170.831811,354.426939 L167.933792,354.426939 C165.499426,354.426939 163.525982,352.447128 163.525982,350.004906 L163.525982,338.730196 L163.525724,338.730196 Z" id="Path" fill="#FB855F"></path>
                    <path d="M77.5157214,346.602727 L50.0734034,354.008611 C48.2834594,354.506124 47.09715,356.207869 47.2454402,358.065285 L47.2454402,358.065285 C47.3838445,360.227416 49.2280039,361.876883 51.3848778,361.76771 L90.9773929,359.313035 L89.2314218,346.018772 L77.5157214,346.602727 Z" id="Path" fill="#494E6D"></path>
                    <path d="M82.1215926,352.925453 L82.1215926,352.925453 C78.9511711,352.0995 77.0304313,348.8714 77.8103653,345.679769 L80.0413141,336.2564 L91.4252825,339.085219 L89.1943338,348.508588 C88.8498078,350.040767 87.9076384,351.370541 86.5784863,352.200585 C85.2493341,353.030629 83.6440614,353.29171 82.1215926,352.925453 Z" id="Path" fill="#FB855F"></path>
                    <path d="M62.0785966,46.9047095 C62.0785966,46.9047095 105.420095,97.3676645 90.843979,108.161517 C74.4072799,120.333089 51.4636899,50.9329607 51.4636899,50.9329607 C51.4636899,50.9329607 52.9302129,45.5249236 62.0785966,46.9047095 Z" id="Path" fill="#EB8F90"></path>
                    <path d="M131.535485,62.60998 C131.535485,62.60998 118.138717,68.8799957 104.369267,76.3380742 C89.1026439,84.606454 73.4854875,94.5393619 77.4902234,103.374901 C86.3079054,122.82859 141.694518,80.8004154 141.694518,80.8004154 C149.316368,72.9167737 141.004268,60.9446767 131.535485,62.60998 Z" id="Path" fill="#EB8F90"></path>
                    <polygon id="Rectangle" fill="#D16B70" transform="translate(92.986123, 83.022635) rotate(-32.325000) translate(-92.986123, -83.022635) " points="88.3946658 82.516381 97.5790734 82.503003 97.5775811 83.5288882 88.3931736 83.5422661"></polygon>
                    <path d="M64.7236951,50.081576 C64.7236951,50.081576 66.9350696,46.6817216 66.8871643,43.3283769 C66.8392589,39.9750321 66.3957477,37.7149222 68.2874954,34.3207523 C70.1792431,30.9265824 66.1147543,29.3473219 64.6075375,32.3691563 C63.1003206,35.3909907 61.4063758,40.5408994 58.3533088,37.4260457 C55.3002418,34.311192 56.3296925,23.2765225 50.0999317,26.0288594 C50.0999317,26.0288594 49.3393693,20.9688694 47.1728095,21.5112234 C45.0062497,22.0535774 45.6668804,26.6433034 45.6668804,26.6433034 C45.6668804,26.6433034 40.1551853,24.002848 43.9059711,35.3974504 C43.9059711,35.3974504 41.0471012,35.5984754 41.4864915,37.8950178 C42.1906491,41.5685039 46.9271012,48.504641 52.0787332,52.7434775 C60.4529041,59.6325882 64.7236951,50.081576 64.7236951,50.081576 Z" id="Path" fill="#EB8F90"></path>
                    <path d="M108.27948,71.5323369 C110.63457,80.8299576 115.141025,90.1198268 121.798844,99.4019443 L150.253614,77.0700842 L139.320625,58.0628879 L108.27948,71.5323369 Z" id="Path" fill="#80C2C1"></path>
                    <path d="M54.030749,39.1197716 L54.9543443,38.6756046 C50.4141498,29.1783369 50.6080894,26.1076674 50.6109225,26.0776945 L49.5925466,25.9743398 C49.5781235,26.1022413 49.3071748,29.2375075 54.030749,39.1197716 Z" id="Path" fill="#D16B70"></path>
                    <path d="M50.1880158,40.1982784 L51.0696294,39.6768537 C48.2066386,34.8016103 46.1845677,26.6024782 46.1644783,26.520828 L45.1710854,26.7655203 C45.2540184,27.1071078 47.249046,35.1938415 50.1880158,40.1982784 Z" id="Path" fill="#D16B70"></path>
                    <path d="M47.3711275,42.5214347 L48.2486202,41.9917416 C46.4784389,39.0404468 44.3772983,35.1897074 44.3564363,35.1512077 L43.4585966,35.6434347 C43.4797162,35.6832263 45.5898712,39.551536 47.3711275,42.5214347 Z" id="Path" fill="#D16B70"></path>
                    <path d="M104.277319,261.676648 L104.277319,261.676648 C96.0097766,259.307499 90.9735296,250.736807 92.8263863,242.149577 C100.671537,205.78731 109.83795,170.072303 118.003243,143.402385 L154.47753,143.402385 C145.031411,173.740363 132.667443,217.89196 124.273698,249.994719 C121.942817,258.913201 112.956179,264.16388 104.277319,261.676648 Z" id="Path" fill="#5F6386"></path>
                    <path d="M112.670549,230.884944 L112.670549,230.884944 C103.72924,228.322521 94.5270276,234.001348 92.5639369,243.298107 C85.9383127,274.676608 76.9132983,315.218541 72.8470066,335.389512 L99.2446781,342.954562 C104.352526,320.109029 116.567884,279.278995 123.911574,251.046354 C126.184762,242.305643 121.17324,233.321532 112.670549,230.884944 Z" id="Path" fill="#5F6386"></path>
                    <path d="M165.670392,262.25776 L165.670392,262.25776 C157.085798,262.25776 149.981635,255.393713 149.507989,246.612694 C147.501629,209.430824 146.619501,171.339949 147.46995,143.402385 L182.893151,143.402385 C181.773813,175.225829 181.498744,212.256284 181.856746,245.488711 C181.956163,254.720874 174.682528,262.25776 165.670392,262.25776 Z" id="Path" fill="#5F6386"></path>
                    <path d="M165.656741,230.287812 L165.656741,230.287812 C156.37211,230.287812 149.00318,238.296254 149.55744,247.791196 C151.427553,279.838144 154.094286,319.427146 155.481225,339.974587 L182.891863,339.974587 C181.803947,316.564737 182.133876,275.817128 181.782055,246.601066 C181.675427,237.556751 174.485756,230.287812 165.656741,230.287812 Z" id="Path" fill="#5F6386"></path>
                    <path d="M117.970018,143.402385 C117.970018,143.402385 118.794197,69.7481756 136.820788,59.2636117 C147.155217,53.252758 168.543427,54.8849879 179.450402,63.1895418 C190.458339,71.5705782 182.683758,143.402385 182.683758,143.402385 L117.970018,143.402385 Z" id="Path" fill="#80C2C1"></path>
                    <g fill="#FFAA40">
                        <g transform="translate(0.000000, 21.187723)">
                            <path d="M-0.470162523,33.6564379 L112.239222,33.8240794 C115.414271,33.8288019 117.986978,36.4015135 117.991694,39.5765621 C117.996393,42.7394352 115.436187,45.3072594 112.273314,45.3119579 C112.267638,45.3119663 112.261963,45.3119663 112.256288,45.3119579 L-0.453096881,45.1443164 C-3.62814543,45.1395939 -6.20085229,42.5668823 -6.20556893,39.3918337 C-6.21026749,36.2289606 -3.65006117,33.6611364 -0.487188066,33.6564379 C-0.481512888,33.6564294 -0.475837701,33.6564294 -0.470162523,33.6564379 Z" id="Rectangle" transform="translate(55.893063, 39.484198) rotate(-146.325000) translate(-55.893063, -39.484198) "></path>
                            <path d="M96.5805204,73.5911635 C94.7066098,81.7924882 99.3756895,90.0740976 107.347472,92.688651 C115.319255,95.3032044 123.962951,91.3878656 127.279935,83.6598343 C130.596919,75.931803 127.492545,66.9414284 120.121211,62.9279261 C112.749877,58.9144239 103.544219,61.202301 98.8928568,68.2037973 C97.8023982,69.8438281 97.0188309,71.6694119 96.5805204,73.5911635 Z M115.552342,72.4064597 C117.48805,73.7004215 118.456193,76.0367804 118.005325,78.3260873 C117.554456,80.6153941 115.773367,82.4068045 113.492584,82.8649799 C111.2118,83.3231553 108.880487,82.357865 107.585742,80.419226 C106.290996,78.480587 106.287799,75.9503848 107.57764,74.0084582 C108.423316,72.7349988 109.738653,71.8507703 111.234236,71.55033 C112.729819,71.2498897 114.283112,71.5578534 115.552342,72.4064597 L115.552342,72.4064597 Z" id="Shape"></path>
                        </g>
                        <path d="M53.835266,15.5047581 C57.0432881,15.5095296 59.642713,18.1089593 59.6474786,21.3169814 L59.6891576,49.373491 C59.6939049,52.5692111 57.1071103,55.1637027 53.9113902,55.16845 C53.9056561,55.1684585 53.8999219,55.1684585 53.8941878,55.16845 C50.6861658,55.1636785 48.0867408,52.5642488 48.0819752,49.3562267 L48.0402963,21.2997171 C48.0355489,18.103997 50.6223435,15.5095054 53.8180637,15.5047581 C53.8237978,15.5047495 53.8295319,15.5047496 53.835266,15.5047581 Z" id="Rectangle" transform="translate(53.864727, 35.336604) rotate(-146.325000) translate(-53.864727, -35.336604) "></path>
                        <path d="M30.4165448,-0.0209610642 C33.6231836,-0.0161927367 36.221488,2.58211647 36.2262504,5.78875532 L36.2679013,33.8332425 C36.2726455,37.0275877 33.6869629,39.6209621 30.4926176,39.6257062 C30.4868874,39.6257147 30.4811571,39.6257147 30.4754269,39.6257062 C27.268788,39.6209379 24.6704836,37.0226287 24.6657212,33.8159898 L24.6240703,5.77150268 C24.6193262,2.57715743 27.2050088,-0.0162169306 30.399354,-0.0209610801 C30.4050843,-0.0209695905 30.4108145,-0.0209695852 30.4165448,-0.0209610642 Z" id="Rectangle" transform="translate(30.445986, 19.802373) rotate(-146.341728) translate(-30.445986, -19.802373) "></path>
                    </g>
                    <path d="M134.182129,104.033271 C134.182129,104.033271 198.759879,111.89004 195.236258,130.095979 C191.263201,150.62559 129.104415,114.41448 129.104415,114.41448 C129.104415,114.41448 126.625955,109.336919 134.182129,104.033271 Z" id="Path" fill="#EB8F90"></path>
                    <path d="M162.118954,73.1180571 C162.118954,73.1180571 165.209624,87.8719472 169.352668,103.252942 C173.946176,120.306475 180.049219,138.070572 189.33385,135.967562 C209.776315,131.336752 181.646323,66.8731049 181.646323,66.8731049 C175.773277,57.5497316 162.57148,63.2864368 162.118954,73.1180571 Z" id="Path" fill="#EB8F90"></path>
                    <path d="M138.185834,104.585702 C138.185834,104.585702 137.565382,100.500347 135.334176,98.0146652 C133.10297,95.5289836 131.298276,94.1388622 130.449372,90.2806296 C129.600468,86.4223969 125.61067,88.0517844 126.495117,91.3658544 C127.379564,94.6799243 129.523201,99.7202769 125.262455,99.4970307 C121.001708,99.2737844 114.519028,90.274945 111.792284,96.658651 C111.792284,96.658651 107.92328,93.3864397 106.703753,95.2946267 C105.484226,97.2028137 108.972047,100.192091 108.972047,100.192091 C108.972047,100.192091 103.234733,102.028705 113.427763,107.985556 C113.427763,107.985556 111.480384,110.118281 113.305424,111.537859 C116.224562,113.808046 124.21343,115.733803 130.736289,115.346739 C141.339863,114.716792 138.185834,104.585702 138.185834,104.585702 Z" id="Path" fill="#EB8F90"></path>
                    <path d="M165.613987,98.3058672 C176.195926,98.3575446 185.888783,95.4008237 195.091511,90.7842256 L185.28842,69.2605996 C182.232263,62.5502926 174.768552,59.2323469 167.897219,61.5291478 L156.271921,65.4150278 L165.613987,98.3058672 Z" id="Path" fill="#80C2C1"></path>
                    <path d="M123.221325,103.752146 L123.615127,102.804383 C114.096121,98.8205739 112.226781,96.3824354 112.209782,96.358147 L111.375043,96.9524368 C111.449219,97.0591506 113.307227,99.6034861 123.221325,103.752146 Z" id="Path" fill="#D16B70"></path>
                    <path d="M121.136152,107.225899 L121.445219,106.247129 C116.175369,104.571749 109.333141,99.8179472 109.262828,99.770404 L108.679206,100.612745 C108.965093,100.811703 115.718465,105.503492 121.136152,107.225899 Z" id="Path" fill="#D16B70"></path>
                    <path d="M120.611511,110.922123 L120.911306,109.940253 C117.691858,108.950373 113.641277,107.514775 113.601356,107.500822 L113.259322,108.468481 C113.300273,108.483468 117.370686,109.9263 120.611511,110.922123 Z" id="Path" fill="#D16B70"></path>
                    <path d="M152.386176,68.0280942 C144.887438,68.0280942 141.468641,59.0543183 143.483501,56.9898073 C144.088158,56.3347168 144.567781,55.5738129 144.898512,54.7449422 L144.903921,54.7449422 C145.412325,53.4961956 145.754806,52.1857888 145.922555,50.8474347 L145.927963,50.8420086 L159.791164,38.1735589 C159.042449,46.2393633 162.411795,51.9024283 163.634155,55.9350721 C164.850849,59.9679743 160.914365,68.0280942 152.386176,68.0280942 Z" id="Path" fill="#EB8F90"></path>
                    <path d="M157.357777,47.7116517 C153.382402,55.5012405 145.135206,54.728147 144.903921,54.7449422 C145.412325,53.4961956 145.754806,52.1857888 145.922555,50.8474347 L145.927963,50.8420086 C146.302449,50.621863 161.08358,40.4101556 157.357777,47.7116517 Z" id="Path" fill="#D16B70"></path>
                    <path d="M173.502665,23.6811563 C173.502665,23.6811563 172.906938,31.0431149 162.457898,38.627803 C151.503017,46.5794004 163.972841,22.140137 163.972841,22.140137 L173.502665,23.6811563 Z" id="Path" fill="#8E3332"></path>
                    <path d="M144.980673,19.2586067 C144.980673,19.2586067 143.501272,25.6027794 141.583511,32.7234047 C138.842087,42.9017802 138.608226,51.1324354 148.729141,51.1324354 C165.727827,51.1324354 164.595869,22.2347066 164.595869,22.2347066 L144.980673,19.2586067 Z" id="Path" fill="#EB8F90"></path>
                    <path d="M159.131306,25.4989079 C159.131306,25.4989079 133.641519,24.9141784 137.155611,7.25343612 C140.669703,-10.4073062 150.667248,11.4819372 155.851332,11.4819372 C161.932484,11.4819372 178.49487,12.3893919 172.416037,27.2176974 C170.836962,31.0694704 168.316005,26.1009493 159.131306,25.4989079 Z" id="Path" fill="#8E3332"></path>
                    <polygon id="Rectangle" fill="#D16B70" transform="translate(175.643383, 113.270533) rotate(-70.610000) translate(-175.643383, -113.270533) " points="175.134097 109.235647 176.160821 109.234612 176.152669 117.305419 175.125945 117.306453"></polygon>
                    <path d="M132.076867,183.219026 L158.503643,184.287714 L155.374081,160.776318 C155.374081,160.776318 145.290255,160.420261 142.856867,160.420261 C140.42348,160.420261 132.076867,183.219026 132.076867,183.219026 Z" id="Path" fill="#5F6386"></path>
                    <polygon id="Path" fill="#494E6D" points="75.0506544 323.574514 72.8470066 335.389512 99.2446781 342.954562 101.82513 333.192707"></polygon>
                    <polygon id="Path" fill="#494E6D" points="154.33098 328.917954 155.482512 339.974587 182.893151 339.974587 182.496515 328.917954"></polygon>
                    <ellipse id="Oval" fill="#EB8F90" cx="162.763359" cy="40.9933348" rx="5.12896715" ry="5.25429693"></ellipse>
                    <path d="M143.030202,40.9044497 L148.419816,41.6168223 C148.419816,41.6168223 147.898265,46.5150621 144.942812,46.0698615 C141.987359,45.624661 143.030202,40.9044497 143.030202,40.9044497 Z" id="Path" fill="#FFFFFF"></path>
                    <ellipse id="Oval" fill="#8E3332" cx="151.652915" cy="30.0837245" rx="1" ry="1.00305782"></ellipse>
                    <ellipse id="Oval" fill="#8E3332" cx="145.549356" cy="28.7031635" rx="1" ry="1.00305782"></ellipse>
                    <path d="M146.428909,38.103536 C147.042266,38.0988695 147.647298,37.9606341 148.202181,37.6983854 L147.34452,35.8330906 C146.348037,36.2953448 145.541629,35.9183583 145.373445,35.5762541 C145.244668,35.3134747 145.656757,34.9486324 146.123963,34.7034233 C149.631616,32.8567323 149.144836,29.1240757 149.122943,28.9672348 L147.095721,29.2571449 L148.109204,29.1121899 L147.094691,29.2501685 C147.107569,29.3504226 147.383669,31.7218972 145.172552,32.8854133 C143.305272,33.8685753 143.005219,35.4013262 143.537072,36.4844839 C143.992946,37.4126096 145.100436,38.103536 146.428909,38.103536 Z" id="Path" fill="#8E3332"></path>
                    <path d="M154.034791,28.6142784 L155.907995,27.7858901 C155.283332,26.3024332 153.900775,25.2798356 152.303501,25.1198544 L152.195585,27.1706709 L152.249671,26.1453919 L152.182707,27.1701542 C153.012744,27.2853851 153.71861,27.8357692 154.034791,28.6142784 L154.034791,28.6142784 Z" id="Path" fill="#8E3332"></path>
                    <path d="M147.398607,26.0469465 L148.600105,24.384227 C146.757808,23.0439743 144.373871,23.6062241 144.273167,23.6307709 L144.756857,25.6262926 L144.515012,24.628661 L144.751963,25.6273262 C144.765614,25.6239672 146.330008,25.2702355 147.398607,26.0469465 Z" id="Path" fill="#8E3332"></path>
                </g>
                <path d="M245.000649,89.5 C246.998053,89.5 247.001514,86.5 245.000649,86.5 C242.999784,86.5 242.999784,89.5 245.000649,89.5 Z" id="Path" fill="#CC7B16"></path>
            </g>
        </g>
    </g>
</svg>