<svg xmlns="http://www.w3.org/2000/svg" xmlns:xlink="http://www.w3.org/1999/xlink" width="325" height="320" viewBox="0 0 325 320">
    <defs>
        <linearGradient id="r626ve6gaa" x1="50%" x2="50%" y1="0%" y2="100%">
            <stop offset="1.34%" stop-color="#C9B2F7"/>
            <stop offset="100%" stop-color="#A193E5"/>
        </linearGradient>
        <linearGradient id="ko2n40gayb" x1="50%" x2="50%" y1="0%" y2="100%">
            <stop offset="0%" stop-color="#FF8C8C"/>
            <stop offset="100%" stop-color="#E26A71"/>
        </linearGradient>
        <linearGradient id="6xf9mue92e" x1="50%" x2="50%" y1="0%" y2="100%">
            <stop offset="0%" stop-color="#FFC260"/>
            <stop offset="100%" stop-color="#EDA54F"/>
        </linearGradient>
        <linearGradient id="4qs8k9xc8f" x1="50%" x2="50%" y1="0%" y2="100%">
            <stop offset="0%" stop-color="#FFC260"/>
            <stop offset="100%" stop-color="#EDA54F"/>
        </linearGradient>
        <linearGradient id="8ggoh75qfg" x1="50%" x2="50%" y1="0%" y2="100%">
            <stop offset="0%" stop-color="#FFC260"/>
            <stop offset="100%" stop-color="#EDA54F"/>
        </linearGradient>
        <path id="il6ij27z0c" d="M83.603 45.122H282.642V295.581H83.603z"/>
    </defs>
    <g fill="none" fill-rule="evenodd">
        <g>
            <g>
                <g transform="translate(-549 -142) translate(40 100) translate(509.145 45)">
                    <path fill="#FFF" fill-rule="nonzero" d="M311.502 63.703l-.169 3.63-.219 4.68-2.084 45.046-.176 3.754-2.26 48.87-.182 3.93-1.896 40.87c-.414 8.843-7.663 15.984-16.802 16.534l-60.926 3.693-3.712.225-47.944 2.903-3.788.232-25.941 1.57-4.188.257-49.234 2.98-4.081.25-41.528 2.516c-9.033.55-17.039-5.526-18.629-14.137l-.494-2.684-.852-4.619-7.956-43.049-.789-4.274-6.86-37.174-.676-3.636L.282 82.815c-.105-.572-.18-1.148-.226-1.728-.126-1.508-.04-3.027.257-4.512 1.465-7.54 8.069-13.592 16.507-14.105l59.945-3.636 3.862-.232 64.57-3.911 5.052-.307 38.86-2.359 3.92-.238h.006l99.575-6.033c10.58-.638 19.368 7.71 18.892 17.949z"/>
                    <path fill="#FFF" fill-rule="nonzero" d="M150.249 54.384c-17.972 22.836-45.002 48.738-83.782 67.143-17.705 8.413-36.416 14.522-55.675 18.18l-.676-3.637c18.935-3.63 37.331-9.656 54.742-17.935 36.677-17.404 62.674-41.629 80.339-63.444l5.052-.307zM309.03 117.06l-.176 3.754c-1.602-.075-3.24-.125-4.914-.15-30.88-.413-57.897 8.254-80.351 25.764-28.357 22.116-45.378 55.559-48.457 91.411l-3.788.232c3.048-37.085 20.594-71.724 49.934-94.603 23.143-18.048 50.962-26.978 82.712-26.56 1.71.026 3.393.076 5.04.151zM311.333 67.332l-.219 4.681c-3.049 1.997-6.266 3.908-9.653 5.733-14.88 8.017-31.293 13.148-46.216 14.443-2.573.226-5.104.338-7.593.338-14.066 0-26.53-3.567-36.389-10.47-11.086-7.76-17.934-18.861-22.153-30.031l3.919-.238h.006c4.012 10.2 10.372 20.188 20.382 27.197 24.964 17.473 60.933 9.105 86.267-4.543 4.009-2.158 7.898-4.53 11.65-7.11zM157.216 201.16c-2.279 12.504-6.285 25.47-11.812 38.48l-4.188.258c5.797-13.33 9.978-26.628 12.306-39.414 4.764-26.133 1.146-47.43-9.677-56.96-11.337-9.982-34.667-10.489-60.901-1.333-21.84 7.628-44.038 21.108-64.502 38.962l-.788-4.274c20.355-17.454 42.365-30.658 64.05-38.23 27.93-9.75 52.088-8.98 64.62 2.059 11.825 10.414 15.894 33.01 10.892 60.452z"/>
                    <path fill="#FFF" fill-rule="nonzero" d="M91.982 242.876l-4.081.252c10.8-30.127 13.496-53.75 5.803-58.807-8.532-5.608-34.93 9.656-66.455 44.5l-.851-4.618c12.701-13.792 25.345-25.307 36.539-33.186 10.523-7.41 24.77-15.132 32.826-9.831 10.43 6.858 6.36 32.991-3.78 61.69zM306.594 169.682l-.181 3.93c-17.315-5.638-36.808-3.567-52.495 6.778-18.454 12.166-28.338 33.08-27.13 54.32l-3.712.225c-.418-7.575.484-15.164 2.666-22.43 4.364-14.506 13.634-27.022 26.11-35.245 12.07-7.96 26.755-11.602 41.34-10.263 4.55.423 9.041 1.323 13.402 2.685zM80.627 58.602c-4.745 28.493-16.501 37.323-21.916 39.92-3.812 1.827-8.1 2.728-12.782 2.728-11.418 0-25.171-5.382-40.026-15.833-1.947-1.37-3.896-2.814-5.847-4.331-.126-1.509-.04-3.028.257-4.512 23.462 18.83 44.157 24.613 56.77 18.561 3.788-1.815 14.955-9.374 19.682-36.303l3.862-.23zM14.836 316.878C.232 297.334.197 277.205 7.276 271.982c6.817-5.03 24.664.498 38.951 17.408.344-9.458 3.921-17.392 8.707-18.554 5.791-1.407 15.544 6.575 18.788 21.76 4.9-6.964 12.895-16.84 18.101-15.119 8.44 2.792 4.44 34.368 3.896 38.483l-80.883.918zM298.58 315.758c13.265-17.753 13.297-36.038 6.868-40.782-6.193-4.57-22.405.452-35.383 15.813-.312-8.59-3.562-15.798-7.909-16.854-5.26-1.277-14.12 5.973-17.067 19.767-4.45-6.325-11.712-15.297-16.442-13.732-7.666 2.535-4.033 31.218-3.538 34.956l73.47.832z"/>
                    <path fill="#9FA3BF" fill-rule="nonzero" d="M95.507 283.735c.396 1.531.419 3.128.442 4.707.03 2.324.067 4.642.098 6.966v.006c.02 1.328.038 2.656.052 3.991.03 1.904.058 3.809.084 5.713.01.57.004 1.185-.338 1.645-.024.034-.051.065-.082.093-.792.876-2.688.956-2.547 2.12.07.61.729.933 1.205 1.318.931.764 1.234 2.03 1.046 3.24-.048.32-.132.634-.25.936l-11.62.718c-.084-.227-.16-.46-.225-.694-.421-1.659-.58-3.373-.471-5.081.058-1.189.171-2.4.241-3.602.027-.484.047-.962.055-1.439.03-1.97-.17-3.89-1.038-5.641-.832-1.686-2.29-3.251-2.123-5.13.114-1.298 1-2.4 1.36-3.658.165-.592.218-1.21.157-1.821-.138-1.522-.895-3.011-1.854-4.23-1.354-1.71-3.088-3.083-4.442-4.792-1.858-2.341-2.92-5.215-3.028-8.202-.042-1.088.073-2.256.722-3.13 1.048-1.412 3.415-2.186 3.17-3.92-.16-1.156-1.443-1.729-2.33-2.49-2.45-2.092-2.004-5.933-1.353-9.089.982-4.713 1.962-9.426 2.94-14.139.556-2.674 1.563-5.852 4.22-6.505 1.915-.47 3.9.687 5.148 2.221 1.243 1.528 1.968 3.409 2.975 5.102 1.47 2.467 3.55 4.558 4.814 7.139 1.264 2.58 1.495 6.033-.557 8.047-.277.274-.625.634-.477.995.11.263.417.356.68.466 1.553.663 2.06 2.575 2.314 4.246.136.888.248 1.772.34 2.663.5 4.636.488 9.313-.035 13.946-.167 1.446-.378 2.909-.126 4.34.18 1.004.584 1.958.833 2.945z"/>
                    <path fill="#FFF" fill-rule="nonzero" d="M87.17 292.928c.103 2.088.198 4.222.282 6.402.173 4.517.295 9.23.351 14.099l.017 1.497-.63.04-.007-1.016c-.002-.038.002-.075 0-.107-.059-5.313-.2-10.44-.396-15.33-.085-2.096-.178-4.142-.279-6.14-1.396-26.944-4.371-45.463-4.412-45.717l.62-.101c.042.26 3.067 19.072 4.453 46.373z"/>
                    <path fill="#5F6386" fill-rule="nonzero" d="M123.9 239.107c-.045 2.097-.267 8.45-1.274 16.726-.022.185-.134.347-.298.434-.164.088-.361.09-.527.005-.209-.105-.46-.073-.636.081s-.24.4-.161.62l1.076 3.013c-.61 4.245-1.423 8.841-2.505 13.541-.055.248-.266.43-.519.446l-3.405.21c-.225.013-.422.158-.502.37-.079.21-.026.449.136.606l3.13 3.055c-.86 3.239-1.862 6.48-3.022 9.648-1.137 3.141-2.462 6.21-3.967 9.193-.074.15-.213.26-.376.299l-5.629 1.382c-.219.054-.386.232-.425.454-.04.223.056.448.244.573l2.918 1.951c.256.177.327.524.162.787-.452.705-.924 1.399-1.403 2.074-2.758 3.882-5.962 7.234-9.688 9.771l-.912.057c.007.013.008.029.003.043-.012-.015-.025-.03-.04-.042-.288-.274-.56-.565-.813-.871-1.8-2.12-5.068-7.305-5.87-17.651-.013-.13.021-.262.096-.37l.242-.347 1.047-1.52c.107-.16.127-.363.053-.541-.074-.179-.232-.308-.422-.345l-.73-.136c-.264-.05-.457-.28-.46-.549-.045-4.524.269-9.045.94-13.52.03-.192.153-.357.33-.44l2.47-1.143c.19-.087.317-.272.33-.482.014-.21-.09-.409-.268-.519l-1.884-1.169c-.202-.123-.307-.36-.262-.592.762-4.042 2.023-7.974 3.754-11.706.814-1.738 1.739-3.423 2.768-5.042.131-.204.377-.302.612-.245l2.138.495c.222.05.452-.035.587-.217.135-.182.15-.427.039-.624l-1.147-2.005c-.113-.201-.096-.45.042-.636 8.66-11.187 20.31-14.891 23.315-15.685.173-.047.359-.01.5.102.14.11.22.282.214.461zM85.584 314.908c-2.987-.522-6.137-1.119-8.42-3.114-1.41-1.232-2.358-2.893-3.28-4.52l-3.119-5.504c-1.152-2.033-2.344-4.364-1.667-6.602.337-1.116 1.133-2.196.863-3.33-1.961-.462-3.753 1.254-5.745 1.559-2.478.38-4.698-1.438-6.544-3.133-2.187-2.007-4.581-4.64-3.874-7.522.108-.441.279-.944.02-1.318-.23-.336-.695-.393-1.102-.419l-2.964-.192c-.51-.033-1.055-.078-1.463-.387-.454-.344-.633-.932-.787-1.48l-5.504-19.686c-.252-.903-.502-1.887-.147-2.755.356-.868 1.608-1.394 2.26-.721 6.773 3.062 13.737 5.684 20.848 7.848 1.105.336 2.244.677 3.145 1.398 2.376 1.899 2.25 5.589 3.99 8.082 2.193 3.138 6.913 3.815 8.864 7.107 1.068 1.801 1.07 4.023.942 6.112-.19 3.102-.5 6.543 1.415 8.99.953 1.217 2.345 2.011 3.411 3.131 1.787 1.878 2.528 4.56 2.551 7.152.023 2.591-.6 5.14-1.221 7.657l-2.472 1.647z"/>
                    <path fill="#FFF" fill-rule="nonzero" d="M115.447 252.314c-14.523 14.446-18.457 33.198-19.036 47.279-.202 4.93-.02 9.868.543 14.77l-.637.039c-.235-2.067-.455-4.624-.554-7.546-.082-2.334-.084-4.898.036-7.633.055-1.239.134-2.504.247-3.808v-.006c1.167-13.59 5.689-30.34 18.953-43.544l.448.449zM87.564 314.943l-.67.041c-.097-.257-.188-.508-.285-.76-1.144-2.982-2.3-5.786-3.467-8.413-15.282-34.55-31.76-40.078-31.946-40.135l.188-.607c.224.074 5.702 1.83 13.33 9.992 5.07 5.418 11.812 14.532 18.483 29.312 1.323 2.934 2.647 6.094 3.948 9.493.015.027.028.056.037.086l.382.99z"/>
                    <path fill="#9FA3BF" fill-rule="nonzero" d="M249.585 293.978c-.056 1.12-.38 2.207-.699 3.281-.472 1.58-.939 3.158-1.411 4.738v.005c-.269.903-.539 1.808-.811 2.713-.384 1.296-.769 2.591-1.155 3.887-.114.388-.249.803-.578 1.042-.023.018-.048.033-.075.045-.723.426-2.023.078-2.174.896-.083.428.295.786.536 1.148.468.714.406 1.636.02 2.415-.1.207-.223.402-.367.582l-8.022-1.977c-.008-.171-.011-.346-.005-.518.067-1.213.323-2.407.759-3.54.291-.793.625-1.59.927-2.389.12-.322.236-.641.343-.962.437-1.328.709-2.67.493-4.04-.206-1.319-.86-2.687-.35-3.924.353-.856 1.186-1.414 1.697-2.189.238-.366.405-.773.493-1.2.23-1.06.033-2.229-.358-3.258-.554-1.444-1.438-2.741-1.992-4.187-.762-1.98-.87-4.15-.31-6.196.201-.746.527-1.512 1.152-1.967 1.01-.735 2.776-.757 2.978-1.983.137-.816-.61-1.477-1.05-2.18-1.215-1.937-.098-4.442 1.012-6.442 1.665-2.983 3.328-5.967 4.99-8.951.943-1.693 2.3-3.632 4.238-3.511 1.396.088 2.494 1.292 3.015 2.596.517 1.297.609 2.725.932 4.085.472 1.982 1.437 3.84 1.745 5.855.308 2.015-.267 4.403-2.084 5.332-.246.126-.558.296-.534.572.019.201.207.33.362.46.91.778.849 2.18.666 3.366-.096.63-.208 1.252-.335 1.875-.645 3.246-1.645 6.41-2.982 9.437-.42.944-.873 1.89-1.006 2.913-.09.718-.019 1.45-.06 2.171z"/>
                    <path fill="#FFF" fill-rule="nonzero" d="M241.99 298.436c-.373 1.436-.762 2.901-1.167 4.396-.841 3.095-1.758 6.313-2.753 9.622l-.306 1.018-.435-.108.21-.689c.007-.026.018-.05.023-.072 1.087-3.61 2.079-7.112 2.984-10.466.386-1.437.757-2.842 1.113-4.217 4.77-18.542 6.683-31.714 6.709-31.895l.442.062c-.028.186-1.969 13.567-6.82 32.349z"/>
                    <path fill="#5F6386" fill-rule="nonzero" d="M278.28 269.775c-.477 1.41-1.974 5.665-4.411 11.057-.055.12-.165.206-.294.23-.13.025-.264-.015-.359-.108-.119-.116-.296-.147-.448-.08-.151.068-.247.22-.24.386l.09 2.268c-1.313 2.746-2.839 5.686-4.57 8.639-.088.156-.27.234-.444.192l-2.351-.58c-.155-.039-.32.017-.418.144-.099.126-.113.299-.037.44l1.472 2.732c-1.269 2.01-2.637 3.993-4.093 5.893-1.436 1.886-2.984 3.684-4.636 5.384-.083.086-.2.131-.319.123l-4.104-.257c-.16-.01-.311.075-.385.217-.074.142-.056.315.045.44l1.562 1.94c.135.174.11.424-.058.567-.455.381-.92.751-1.39 1.107-2.69 2.044-5.571 3.635-8.633 4.563l-.63-.155c.003.01 0 .022-.007.03-.004-.012-.01-.025-.018-.036-.137-.247-.259-.502-.366-.763-.768-1.817-1.882-6.02-.231-13.197.019-.092.07-.173.144-.23l.237-.184 1.032-.807c.107-.086.164-.22.151-.356-.012-.136-.092-.257-.213-.322l-.465-.248c-.168-.09-.25-.286-.195-.469.929-3.073 2.1-6.068 3.503-8.956.062-.124.18-.21.318-.228l1.914-.252c.148-.018.274-.116.327-.255.053-.14.026-.296-.071-.409l-1.029-1.191c-.111-.126-.132-.308-.052-.457 1.373-2.576 3.061-4.971 5.026-7.131.92-1.005 1.903-1.95 2.943-2.828.132-.11.32-.125.467-.036l1.343.788c.139.081.313.073.443-.022s.193-.257.158-.415l-.35-1.6c-.034-.16.03-.326.163-.422 8.237-5.74 16.912-5.78 19.116-5.68.127.005.244.07.316.175.072.106.089.239.046.36zM236.254 312.984c-1.912-.987-3.92-2.059-5.042-3.894-.693-1.133-.983-2.459-1.262-3.757l-.945-4.387c-.349-1.622-.662-3.453.272-4.825.465-.684 1.233-1.247 1.291-2.072-1.23-.728-2.808.053-4.221-.162-1.758-.268-2.877-1.97-3.768-3.509-1.055-1.823-2.117-4.113-1.027-5.915.167-.276.389-.58.293-.888-.086-.276-.388-.413-.658-.518l-1.967-.758c-.34-.13-.698-.276-.909-.572-.234-.33-.231-.766-.219-1.17l.448-14.497c.021-.666.06-1.385.485-1.897s1.385-.604 1.684-.01c3.937 3.51 8.097 6.762 12.453 9.735.677.462 1.376.934 1.833 1.613 1.206 1.79.338 4.262.989 6.319.818 2.59 3.872 4.049 4.494 6.692.342 1.446-.129 2.95-.658 4.339-.787 2.06-1.727 4.324-.949 6.388.387 1.025 1.161 1.859 1.646 2.843.812 1.65.745 3.624.21 5.384-.534 1.76-1.497 3.354-2.451 4.926l-2.022.592z"/>
                    <path fill="#FFF" fill-rule="nonzero" d="M269.754 276.926c-12.9 6.705-19.54 18.57-22.92 27.983-1.182 3.295-2.106 6.678-2.764 10.117l-.44-.109c.28-1.45.673-3.228 1.225-5.228.44-1.597.983-3.334 1.644-5.16.3-.828.622-1.668.975-2.527v-.005c3.673-8.955 10.288-19.34 22.07-25.47l.21.4zM237.587 313.428l-.461-.114c-.012-.195-.02-.384-.032-.575-.142-2.262-.33-4.407-.564-6.433-3.02-26.636-13.007-33.873-13.12-33.951l.256-.372c.136.098 3.473 2.448 6.908 9.593 2.284 4.743 4.916 12.345 6.3 23.769.273 2.267.5 4.688.66 7.266.004.021.006.043.007.065l.046.752z"/>
                    <rect width="165.306" height="264.157" x="81.521" y="51.665" fill="#F0F3FD" fill-rule="nonzero" stroke="#251138" stroke-width="1.6" rx="17.6"/>
                    <path fill="#FFF" fill-rule="nonzero" stroke="#251138" stroke-width="1.6" d="M234.157 86.102V275.8c0 10.876-8.501 19.78-18.9 19.78H113.087c-10.394 0-18.9-8.9-18.9-19.78V86.102c0-10.88 8.505-19.781 18.9-19.781h26.448c1.493 0 2.704 1.267 2.704 2.83h0c0 4.004 3.13 7.28 6.955 7.28h29.271c3.825 0 6.955-3.276 6.955-7.28h0c0-1.563 1.21-2.83 2.704-2.83h27.137c10.393 0 18.897 8.901 18.897 19.78z"/>
                    <rect width="117.767" height="105" x="194.342" y="8.366" fill="url(#r626ve6gaa)" fill-rule="nonzero" rx="24"/>
                    <path fill="#FFF" fill-rule="nonzero" d="M262.464 31c2.817 0 5.557 1.418 7.122 3.783l4.148 6.304h7.513c4.774 0 8.608 3.861 8.608 8.668v30.577c0 4.807-3.834 8.668-8.608 8.668h-54.783c-4.774 0-8.609-3.861-8.609-8.668V49.755c0-4.807 3.835-8.668 8.609-8.668h7.513l4.148-6.304c1.565-2.365 4.304-3.783 7.122-3.783zm-8.609 11.9c-10.721 0-19.408 8.668-19.408 19.464s8.687 19.544 19.408 19.544c10.722 0 19.409-8.748 19.409-19.465 0-10.796-8.687-19.544-19.409-19.544zm0 9.292c5.796 0 10.523 4.701 10.523 10.558s-4.727 10.635-10.523 10.635c-5.795 0-10.523-4.701-10.523-10.558s4.728-10.635 10.523-10.635zm26.15-4.016l-.167.003h-3.13c-1.33.08-2.348 1.104-2.427 2.443-.078 1.419 1.018 2.6 2.426 2.68h3.444c1.409-.08 2.426-1.261 2.348-2.68-.078-1.418-1.252-2.521-2.661-2.443z"/>
                    <ellipse cx="304.855" cy="16.5" fill="#32BEA6" fill-rule="nonzero" stroke="#BDA9F1" stroke-width="3" rx="18.5" ry="18"/>
                    <path fill="#FFF" fill-rule="nonzero" d="M303.708 25L295.855 18.776 298.088 15.861 302.91 19.683 310.869 8 313.855 10.105z"/>
                    <rect width="65" height="58" x="38.855" y="117" fill="url(#ko2n40gayb)" fill-rule="nonzero" rx="11"/>
                    <path fill="#FFF" fill-rule="nonzero" d="M81.23 143c.331 0 .618.118.86.352.241.236.363.514.363.836v2.375c0 2.734-.94 5.112-2.817 7.134-1.879 2.023-4.199 3.182-6.961 3.479v2.45h4.889c.33 0 .617.116.86.352.24.235.362.513.362.835 0 .321-.121.6-.363.835s-.528.352-.86.352H65.342c-.33 0-.617-.117-.859-.352-.242-.236-.363-.514-.363-.835 0-.322.121-.6.363-.835.242-.236.528-.352.86-.352h4.888v-2.45c-2.763-.296-5.083-1.456-6.96-3.48-1.879-2.021-2.817-4.4-2.817-7.133v-2.375c0-.322.12-.6.362-.836.242-.234.528-.352.86-.352.33 0 .617.118.86.352.24.236.362.514.362.836v2.375c0 2.289.837 4.246 2.511 5.873 1.674 1.626 3.69 2.44 6.045 2.44s4.37-.814 6.044-2.44c1.674-1.627 2.511-3.584 2.511-5.873v-2.376c0-.321.12-.6.363-.835.242-.235.528-.352.86-.352zm-9.777-13c1.65 0 3.062.598 4.238 1.795 1.134 1.156 1.716 2.54 1.754 4.147h-3.054c-.484 0-.877.4-.877.893 0 .494.393.894.877.894h3.062v2.382H74.39c-.484 0-.877.4-.877.894 0 .493.393.893.877.893h3.062v2.242H74.39c-.484 0-.877.4-.877.893 0 .494.393.894.877.894h3.06c-.009 1.664-.595 3.09-1.76 4.278-1.176 1.197-2.589 1.795-4.238 1.795-1.65 0-3.063-.598-4.238-1.795-1.166-1.187-1.752-2.614-1.76-4.278h3.17c.484 0 .877-.4.877-.894 0-.493-.393-.893-.877-.893h-3.172v-2.242h3.172c.484 0 .877-.4.877-.893 0-.494-.392-.894-.877-.894h-3.172v-2.382h3.172c.485 0 .877-.4.877-.894 0-.493-.392-.893-.877-.893h-3.164c.038-1.607.62-2.99 1.754-4.147 1.175-1.197 2.588-1.795 4.238-1.795z"/>
                    <ellipse cx="97.3" cy="122.445" fill="#32BEA6" fill-rule="nonzero" stroke="#FF8B8C" stroke-width="3" rx="10.945" ry="10.938"/>
                    <path fill="#FFF" fill-rule="nonzero" d="M96.543 127.465L92.077 123.986 93.347 122.357 96.089 124.493 100.615 117.962 102.313 119.139z"/>
                    <mask id="jxlygzocod" fill="#fff">
                        <use xlink:href="#il6ij27z0c"/>
                    </mask>
                    <path fill="#EB8F90" fill-rule="nonzero" d="M233.434 121.706s-37.162 43.116-24.664 52.339c14.093 10.399 33.766-48.897 33.766-48.897s-1.258-4.621-9.102-3.442z" mask="url(#jxlygzocod)"/>
                    <path fill="#EB8F90" fill-rule="nonzero" d="M173.88 135.125s11.487 5.356 23.294 11.73c13.09 7.065 26.48 15.55 23.046 23.1-7.56 16.621-55.05-19.288-55.05-19.288-6.535-6.736.592-16.965 8.71-15.542zM231.166 124.42s-1.896-2.905-1.856-5.77c.04-2.865.422-4.796-1.2-7.696-1.623-2.9 1.862-4.25 3.155-1.668 1.293 2.582 2.745 6.983 5.361 4.32 2.616-2.661 1.735-12.089 7.077-9.737 0 0 .652-4.324 2.51-3.86 1.857.463 1.29 4.385 1.29 4.385s4.727-2.256 1.51 7.48c0 0 2.453.171 2.075 2.134-.603 3.138-4.665 9.065-9.082 12.686-7.178 5.887-10.84-2.274-10.84-2.274z" mask="url(#jxlygzocod)"/>
                    <path fill="url(#6xf9mue92e)" fill-rule="nonzero" d="M193.82 142.748c-2.019 7.944-5.883 15.882-11.591 23.812l-24.398-19.08 9.374-16.24 26.616 11.508z" mask="url(#jxlygzocod)"/>
                    <path fill="#D16B70" fill-rule="nonzero" d="M240.335 115.054l-.792-.38c3.893-8.115 3.726-10.738 3.724-10.764l.873-.089c.012.11.244 2.79-3.805 11.233zM243.63 115.976l-.756-.446c2.454-4.165 4.188-11.17 4.205-11.24l.852.209c-.071.291-1.782 7.2-4.302 11.477zM246.044 117.96l-.753-.452c1.518-2.521 3.32-5.812 3.337-5.845l.77.421c-.017.033-1.826 3.34-3.354 5.877z" mask="url(#jxlygzocod)"/>
                    <path fill="#5F6386" fill-rule="nonzero" d="M197.252 305.21c7.089-2.023 11.406-9.346 9.818-16.684-6.726-31.068-14.586-61.584-21.587-84.37h-31.275c8.1 25.92 18.7 63.644 25.898 91.074 2 7.62 9.705 12.106 17.146 9.98z" mask="url(#jxlygzocod)"/>
                    <path fill="#5F6386" fill-rule="nonzero" d="M190.055 278.902c7.667-2.19 15.557 2.662 17.24 10.606 5.681 26.81 13.42 61.45 16.906 78.684l-22.634 6.464c-4.38-19.52-14.853-54.406-21.15-78.528-1.949-7.468 2.348-15.144 9.638-17.226zM144.612 305.707c7.36 0 13.452-5.865 13.858-13.367 1.72-31.77 2.477-64.315 1.748-88.185h-30.372c.96 27.19 1.196 58.83.889 87.224-.086 7.889 6.15 14.328 13.877 14.328z" mask="url(#jxlygzocod)"/>
                    <path fill="#5F6386" fill-rule="nonzero" d="M144.624 278.391c7.961 0 14.279 6.842 13.804 14.956-1.603 27.381-3.89 61.207-5.08 78.763h-23.502c.933-20.003.65-54.817.952-79.78.092-7.728 6.256-13.939 13.826-13.939z" mask="url(#jxlygzocod)"/>
                    <path fill="url(#4qs8k9xc8f)" fill-rule="nonzero" d="M185.512 204.155s-.707-62.931-16.163-71.89c-8.861-5.135-27.2-3.74-36.552 3.355-9.44 7.16-2.773 68.535-2.773 68.535h55.488z" mask="url(#jxlygzocod)"/>
                    <path fill="#EB8F90" fill-rule="nonzero" d="M171.612 170.518s-55.37 6.712-52.35 22.268c3.407 17.54 56.703-13.399 56.703-13.399s2.125-4.338-4.353-8.87z" mask="url(#jxlygzocod)"/>
                    <path fill="#EB8F90" fill-rule="nonzero" d="M147.657 144.103s-2.65 12.605-6.203 25.748c-3.938 14.571-9.171 29.749-17.132 27.952-17.527-3.956 6.591-59.036 6.591-59.036 5.037-7.966 16.357-3.064 16.744 5.336zM168.178 170.99s.532-3.491 2.445-5.615c1.914-2.124 3.46-3.31 4.188-6.608.728-3.298 4.15-1.904 3.391.927-.758 2.83-2.595 7.138 1.057 6.947 3.652-.19 9.212-7.88 11.548-2.425 0 0 3.318-2.796 4.363-1.165 1.046 1.63-1.944 4.184-1.944 4.184s4.918 1.57-3.822 6.66c0 0 1.67 1.822.105 3.034-2.503 1.94-9.352 3.586-14.945 3.255-9.09-.538-6.386-9.194-6.386-9.194z" mask="url(#jxlygzocod)"/>
                    <path fill="url(#8ggoh75qfg)" fill-rule="nonzero" d="M144.66 165.624c-9.072.044-17.383-2.482-25.274-6.427l8.405-18.389c2.62-5.733 9.02-8.568 14.912-6.606l9.968 3.32-8.01 28.102z" mask="url(#jxlygzocod)"/>
                    <path fill="#D16B70" fill-rule="nonzero" d="M181.009 170.277l-.338-.81c8.163-3.403 9.765-5.487 9.78-5.507l.715.508c-.063.09-1.656 2.265-10.157 5.81zM182.797 173.245l-.266-.837c4.518-1.431 10.385-5.493 10.443-5.533l.501.72c-.242.17-6.032 4.178-10.678 5.65zM183.247 176.404l-.257-.84c2.76-.845 6.233-2.07 6.268-2.084l.293.827c-.036.013-3.526 1.246-6.304 2.097z" mask="url(#jxlygzocod)"/>
                    <path fill="#EB8F90" fill-rule="nonzero" d="M156.003 139.754c6.43 0 9.36-7.667 7.633-9.431-.519-.56-.93-1.21-1.214-1.918h-.005c-.436-1.067-.73-2.187-.873-3.33l-.005-.005-11.886-10.824c.642 6.891-2.248 11.73-3.294 15.176-1.044 3.445 2.331 10.332 9.644 10.332z" mask="url(#jxlygzocod)"/>
                    <path fill="#D16B70" fill-rule="nonzero" d="M151.74 122.394c3.408 6.656 10.48 5.996 10.678 6.01-.436-1.067-.73-2.187-.873-3.33l-.005-.005c-.321-.187-12.995-8.912-9.8-2.675z" mask="url(#jxlygzocod)"/>
                    <path fill="#8E3332" fill-rule="nonzero" d="M137.897 101.863s.51 6.29 9.47 12.77c9.393 6.795-1.3-14.086-1.3-14.086l-8.17 1.316z" mask="url(#jxlygzocod)"/>
                    <path fill="#EB8F90" fill-rule="nonzero" d="M162.352 98.085s1.268 5.42 2.913 11.504c2.35 8.697 2.55 15.73-6.127 15.73-14.575 0-13.604-24.692-13.604-24.692l16.818-2.542z" mask="url(#jxlygzocod)"/>
                    <path fill="#8E3332" fill-rule="nonzero" d="M150.22 103.417s21.855-.5 18.841-15.589c-3.013-15.09-11.585 3.613-16.03 3.613-5.214 0-19.414.775-14.203 13.445 1.354 3.29 3.516-.955 11.391-1.469z" mask="url(#jxlygzocod)"/>
                    <path fill="#D16B70" fill-rule="nonzero" d="M206.494 148.633L207.372 148.633 207.373 156.5 206.495 156.5z" mask="url(#jxlygzocod)" transform="rotate(-57.675 206.933 152.566)"/>
                    <path fill="#D16B70" fill-rule="nonzero" d="M132.6 177.974L139.517 177.975 139.517 178.853 132.6 178.852z" mask="url(#jxlygzocod)" transform="rotate(-19.39 136.059 178.413)"/>
                    <path fill="#5F6386" fill-rule="nonzero" d="M173.416 238.175l-22.659.913L153.441 219s8.646-.305 10.733-.305c2.087 0 9.242 19.48 9.242 19.48z" mask="url(#jxlygzocod)"/>
                    <path fill="#30354F" fill-rule="nonzero" d="M157.853 228.975L157.376 227.287 165.272 225.063 162.115 205.136 163.848 204.862 167.25 226.329z" mask="url(#jxlygzocod)"/>
                    <path fill="#30354F" fill-rule="nonzero" d="M123.231 214.774L146.682 214.776 146.682 216.532 123.231 216.529z" mask="url(#jxlygzocod)" transform="rotate(-69.149 134.956 215.653)"/>
                    <path fill="#30354F" fill-rule="nonzero" d="M184.76 202.445L186.515 202.445 186.519 230.689 184.763 230.689z" mask="url(#jxlygzocod)" transform="rotate(-30.437 185.64 216.567)"/>
                    <ellipse cx="147.105" cy="116.655" fill="#EB8F90" fill-rule="nonzero" mask="url(#jxlygzocod)" rx="4.398" ry="4.489"/>
                    <path fill="#FFF" fill-rule="nonzero" d="M164.025 116.58l-4.622.608s.448 4.184 2.982 3.804c2.534-.38 1.64-4.413 1.64-4.413z" mask="url(#jxlygzocod)"/>
                    <circle cx="156.631" cy="107.334" r="1" fill="#8E3332" fill-rule="nonzero" mask="url(#jxlygzocod)"/>
                    <circle cx="161.865" cy="106.154" r="1" fill="#8E3332" fill-rule="nonzero" mask="url(#jxlygzocod)"/>
                    <path fill="#8E3332" fill-rule="nonzero" d="M161.11 114.186c-.525-.004-1.044-.122-1.52-.346l.735-1.594c.855.395 1.546.073 1.69-.22.11-.224-.243-.536-.643-.745-3.008-1.578-2.59-4.767-2.572-4.902l1.738.248-.87-.124.87.118c-.01.085-.247 2.113 1.649 3.106 1.6.84 1.858 2.15 1.402 3.075-.39.793-1.34 1.384-2.479 1.384zM154.589 106.078l-1.606-.708c.536-1.267 1.72-2.14 3.09-2.277l.093 1.752-.046-.876.057.875c-.712.099-1.317.569-1.588 1.234zM160.279 103.885l-1.03-1.42c1.58-1.146 3.623-.666 3.71-.645l-.414 1.705.208-.852-.204.853c-.012-.003-1.354-.305-2.27.359z" mask="url(#jxlygzocod)"/>
                </g>
            </g>
        </g>
    </g>
</svg>
