<svg xmlns="http://www.w3.org/2000/svg" width="40" height="40" viewBox="0 0 40 40">
    <g fill="none" fill-rule="evenodd">
        <g fill="#FFF" fill-rule="nonzero">
            <g>
                <path d="M137 57c11.046 0 20 8.954 20 20s-8.954 20-20 20-20-8.954-20-20 8.954-20 20-20zm0 4c-8.837 0-16 7.163-16 16s7.163 16 16 16 16-7.163 16-16-7.163-16-16-16zm-3.228 10.221l8.508 4.738c.963.537.955 1.414-.005 1.952l-8.53 4.781c-.967.542-1.748.08-1.745-1.029l.023-9.403c.002-1.11.792-1.572 1.75-1.039z" transform="translate(-1254.000000, -321.000000) translate(1137.000000, 264.000000)"/>
            </g>
        </g>
    </g>
</svg>
