<svg width="192" height="191" viewBox="0 0 192 191" fill="none" xmlns="http://www.w3.org/2000/svg">
<rect x="3.6748" y="3" width="184.407" height="184.407" rx="88" fill="#FFAD00" stroke="#EFF3FE" stroke-width="6"/>
<mask id="mask0" mask-type="alpha" maskUnits="userSpaceOnUse" x="0" y="0" width="192" height="191">
<rect x="3.6748" y="3" width="184.407" height="184.407" rx="88" fill="white" stroke="white" stroke-width="6"/>
</mask>
<g mask="url(#mask0)">
<path opacity="0.5" fill-rule="evenodd" clip-rule="evenodd" d="M95.9604 95C106.476 95 115 86.1737 115 75.2859C115 71.5166 113.978 67.9944 112.206 65C106.405 70.3694 93.485 70.3694 86.8207 70.3694C82.1358 70.3694 78.9501 73.8536 77 77.0954C77.8824 87.1351 86.0343 95 95.9604 95ZM66.5186 74.9767C66.5186 58.9733 79.519 46 95.5558 46C111.593 46 124.593 58.9733 124.593 74.9767C124.593 82.3981 121.797 89.1679 117.199 94.2944H124.527C127.188 94.2944 129.925 96.3717 130.646 98.9549L138.827 128.27C139.545 130.844 137.965 132.932 135.266 132.935L55.7405 133C53.0554 133.002 51.4547 130.923 52.1709 128.335L60.2994 98.9637C61.0131 96.385 63.7691 94.2944 66.4099 94.2944H73.9124C69.3144 89.1679 66.5186 82.3981 66.5186 74.9767ZM121.541 103L68.3884 103.01L63 121.996L127 122L121.541 103Z" fill="white"/>
</g>
</svg>
