<?xml version="1.0" encoding="UTF-8"?>
<svg width="27px" height="27px" viewBox="0 0 27 27" version="1.1" xmlns="http://www.w3.org/2000/svg" xmlns:xlink="http://www.w3.org/1999/xlink">
    <title>noun_Recording Button_2961061</title>
    <g id="Visuals" stroke="none" stroke-width="1" fill="none" fill-rule="evenodd">
        <g id="Visual-112" transform="translate(-993.000000, -761.000000)" fill-rule="nonzero">
            <g id="noun_Recording-Button_2961061" transform="translate(994.000000, 762.000000)">
                <path d="M12.5,0 C5.59644063,0 0,5.59644063 0,12.5 C0,19.4035594 5.59644063,25 12.5,25 C19.4035594,25 25,19.4035594 25,12.5 C25,9.18479388 23.6830395,6.00536997 21.3388348,3.66116524 C18.99463,1.3169605 15.8152061,0 12.5,0 Z M12.5,24.4117647 C5.92131401,24.4117647 0.588235294,19.078686 0.588235294,12.5 C0.588235294,5.92131401 5.92131401,0.588235294 12.5,0.588235294 C19.078686,0.588235294 24.4117647,5.92131401 24.4117647,12.5 C24.403662,19.0753268 19.0753268,24.403662 12.5,24.4117647 Z" id="Shape" stroke="#5F5F5F" fill="#141414"></path>
                <circle id="Oval" fill="#DE291D" cx="12.5" cy="12.5" r="7.94117647"></circle>
            </g>
        </g>
    </g>
</svg>