<svg xmlns="http://www.w3.org/2000/svg" width="30" height="31" viewBox="0 0 30 31">
    <g fill="none" fill-rule="evenodd">
        <g>
            <g>
                <g transform="translate(-1404.000000, -89.000000) translate(1391.000000, 79.000000) translate(13.000000, 10.000000)">
                    <g fill="#FFF" fill-rule="nonzero">
                        <path d="M6.673 18.11L.797 21.12c-.427.21-.712.63-.783 1.12-.072.49.142.945.498 1.26.926.77 2.529 1.855 4.95 2.625 1.425.455 3.277.875 5.485.875 1.745 0 3.703-.245 5.804-.945 2.315-.77 3.846-1.82 4.737-2.555.356-.315.57-.77.498-1.26-.07-.49-.356-.875-.783-1.12l-5.983-3.046c-.071-.035-.107-.105-.107-.175v-.945c0-.07 0-.105.036-.14 1.068-1.19 1.78-2.87 2.03-3.57.285-.28.712-.805.926-1.89.249-1.225-.214-1.995-.535-2.31V4.914c-.463-2.73-2.208-3.92-3.596-4.446-1.639-.63-4.452-.63-6.09.035-1.923.735-3.098 2.275-3.454 4.41v4.13c-.321.35-.784 1.086-.535 2.311.214 1.085.606 1.645.926 1.89.25.7.962 2.345 1.995 3.535.035.07.07.14.07.21v.84c0 .105-.07.245-.213.28zm1.21-2.276c-.925-1.05-1.566-2.66-1.744-3.115-.071-.21-.178-.385-.356-.525-.036-.035-.32-.315-.499-1.155-.142-.63.071-.98.214-1.12.25-.245.356-.595.356-.91V5.054c.285-1.61 1.14-2.696 2.6-3.256 1.317-.525 3.739-.525 5.092-.035 1.496.56 2.386 1.68 2.671 3.29V9.01c0 .315.143.665.356.91.143.14.32.49.214 1.12-.178.84-.427 1.085-.499 1.155-.178.14-.284.315-.356.525-.178.455-.819 2.1-1.78 3.15-.25.28-.392.665-.392 1.05v.945c0 .595.356 1.155.89 1.435l5.983 3.046v.07c-.783.665-2.172 1.61-4.273 2.275-4.38 1.435-8.049.84-10.4.07-2.207-.7-3.632-1.68-4.45-2.38v-.07l5.875-3.01c.606-.316.962-.91.962-1.54v-.77c-.036-.42-.178-.84-.463-1.156z"/>
                    </g>
                    <circle cx="21.5" cy="22.5" r="8.5" fill="#6483E4"/>
                    <path fill="#FFF" d="M22 15c3.866 0 7 3.134 7 7s-3.134 7-7 7-7-3.134-7-7 3.134-7 7-7zm-1.667 4.667V25L25 22.333l-4.667-2.666z"/>
                </g>
            </g>
        </g>
    </g>
</svg>
