<svg xmlns="http://www.w3.org/2000/svg" width="380" height="288" viewBox="0 0 380 288">
    <g fill="none" fill-rule="evenodd">
        <g>
            <g transform="translate(-530 -194) translate(530 195)">
                <path fill="#EBEDFC" fill-rule="nonzero" d="M63.013 65.763l245.365-25.72c2.284-.24 4.559.54 6.217 2.135 1.658 1.595 2.533 3.842 2.39 6.142l-8.817 144.007c-.246 4.019-3.487 7.196-7.498 7.35l-216.403 8.317c-3.95.152-7.39-2.68-8.013-6.595L56.097 74.796c-.337-2.128.212-4.301 1.52-6.01 1.309-1.708 3.26-2.802 5.396-3.023zM0 285.019L366 286s-22.57-18.695-38.27-12.79c-15.699 5.904-4.905-53.132-30.415-56.085-25.51-2.952-22.57 47.228-45.137 46.247-22.566-.982-38.269-13.776-55.93 1.947-17.66 15.723-30.42 18.695-53.988 14.757-23.568-3.937-36.284-62.95-65.717-54.094-29.434 8.857-7.85 44.275-23.55 44.275-15.699 0-29.436-10.823-33.363 0C15.703 281.081 0 285.02 0 285.02z"/>
                <path fill="#1C5276" fill-rule="nonzero" d="M292.11 249.578l-6.912 15.245c-.45.991-.112 2.152.806 2.768 1.056.716 2.511.468 3.251-.555L303 248.015 296.244 244l-4.134 5.578z"/>
                <path fill="#FB855F" fill-rule="nonzero" d="M289.902 242.526h6.82v5.88c0 1.679-1.36 3.04-3.039 3.04h-.737c-1.678-.001-3.039-1.362-3.04-3.04v-5.88h-.004z" transform="rotate(-54.99 293.312 246.985)"/>
                <path fill="#1C5276" fill-rule="nonzero" d="M222.522 275l-16.665 3.37c-1.08.218-1.857 1.178-1.857 2.293.002 1.291 1.037 2.337 2.312 2.337H230l-.474-7.915-7.004-.085z"/>
                <path fill="#FB855F" fill-rule="nonzero" d="M222 270h7v5.933c0 .814-.329 1.594-.914 2.169s-1.378.898-2.206.898h-.756c-1.723 0-3.12-1.373-3.12-3.067V270H222z"/>
                <path fill="#1C5276" fill-rule="nonzero" d="M219 78.44s-4.417 12.527-9.973 22.046c-1.457 2.602-3.192 5.043-5.178 7.281-2.75 2.936-5.533 4.235-8.026 2.353-.381-.285-.71-.632-.971-1.027-.224-.34-.402-.707-.531-1.092v-.03c-.248-.815-.354-1.665-.312-2.514.062-2.112.78-4.649 1.884-7.354 4.37-10.73 14.827-24.05 14.827-24.05 5.287-.617 8.28 4.387 8.28 4.387z"/>
                <path fill="#1C5276" fill-rule="nonzero" d="M232.013 117.992s-17.182.347-28.13-3.495c-3.657-1.279-6.617-3.028-8.031-5.413-.208-.357-.382-.734-.52-1.125-.002-.01-.002-.021 0-.032-.281-.83-.385-1.714-.306-2.59.02-.273.057-.545.11-.814.455-2.369 2.647-3.628 5.771-4.181 2.493-.438 5.58-.422 8.853-.138 10.903.955 23.874 4.896 23.874 4.896 4.895 2.618 4.532 11.992-1.621 12.892zM270.975 85.19c-.002.006-.002.013 0 .02 0 .32.032.63.024.927.013 1.067-.292 2.113-.876 3.01-.211.3-.46.571-.738.81-1.902 1.621-4.106 1.245-6.401-.39-2.078-1.457-4.222-3.915-6.3-6.851C249.947 73.227 244 58.959 244 58.959s2.727-5.277 8.162-4.944c0 0 12.058 13.76 16.882 24.587 1.067 2.411 1.776 4.662 1.93 6.588z"/>
                <path fill="#1C5276" fill-rule="nonzero" d="M271.27 83.893v.02c.143.27.265.553.364.843.327 1.002.437 2.062.322 3.11-.186 2.119-1.068 4.49-2.373 6.94-5.475 10.314-18.436 22.051-18.436 22.051-5.07 3.744-11.61-2.464-9.856-7.775 0 0 8.084-13.961 16.137-22.196 2.709-2.783 5.445-4.914 7.844-5.625 1.475-.44 2.825-.346 3.982.454.838.552 1.53 1.299 2.017 2.178z"/>
                <path fill="#68A3C1" fill-rule="nonzero" d="M221.88 222c-5.044.002-9.211-3.927-9.494-8.951-1.175-21.275-1.695-43.065-1.198-59.049H232c-.658 18.207-.819 39.392-.607 58.404.028 2.535-.962 4.976-2.749 6.78-1.787 1.802-4.223 2.816-6.764 2.816z"/>
                <path fill="#68A3C1" fill-rule="nonzero" d="M221.184 204c-2.53 0-4.95 1.06-6.685 2.93-1.735 1.87-2.633 4.385-2.483 6.95 1.067 18.086 2.585 44.525 3.375 56.12H231c-.619-13.214-.433-40.305-.63-56.795-.065-5.105-4.16-9.208-9.186-9.205zM255.476 214.774c-4.98 1.082-9.96-1.821-11.34-6.61-5.83-20.278-11.122-41.192-14.136-56.723L250.54 147c3.344 17.71 7.831 38.187 12.208 56.487.584 2.438.144 5.002-1.222 7.122-1.366 2.12-3.544 3.62-6.05 4.165z"/>
                <path fill="#68A3C1" fill-rule="nonzero" d="M246.109 199.466c-1.94 1.756-3.064 4.23-3.108 6.838-.044 2.607.997 5.118 2.876 6.938 13.248 12.829 32.584 31.607 41.161 39.758L299 242.17c-9.558-9.481-28.035-29.93-39.525-42.168-3.557-3.784-9.513-4.022-13.366-.536z"/>
                <path fill="#1C5276" fill-rule="nonzero" d="M211 154s.526-41.129 12.03-46.986c6.576-3.356 20.246-2.445 27.205 2.192 7.025 4.68 2.066 44.794 2.066 44.794H211z"/>
                <path fill="#FD8B66" fill-rule="nonzero" d="M246.164 60.578s-2.351-.548-3.69-1.943c-1.34-1.394-2.056-2.494-4.267-3.16-2.21-.668-1.055-2.878.832-2.216 1.887.663 4.722 2.127 4.798-.325.076-2.453-4.842-6.587-.98-7.848 0 0-1.715-2.368-.54-2.977 1.176-.61 2.743 1.533 2.743 1.533s1.36-3.2 4.322 2.92c0 0 1.344-1.016 2.08.095 1.199 1.778 1.898 6.445 1.347 10.162-.892 6.039-6.645 3.759-6.645 3.759z"/>
                <path stroke="#E56542" d="M242 45s1.659 1.116 4 7M245 43s3.085 3.98 4 7M249 46s.604 2.22 1 4"/>
                <path fill="#FD8B66" fill-rule="nonzero" d="M217.913 78.617s1.811-1.245 2.584-2.977c.773-1.732 1.12-2.99 2.771-4.304 1.65-1.315.187-3.04-1.214-1.828-1.4 1.21-3.39 3.47-4.044 1.191-.653-2.279 2.427-7.713-1.064-7.713 0 0 .851-2.765-.262-2.974-1.112-.208-1.9 2.291-1.9 2.291s-1.867-2.588-2.876 4.096c0 0-1.348-.54-1.691.74-.55 2.04-.034 6.661 1.307 9.993 2.184 5.427 6.389 1.485 6.389 1.485z"/>
                <path stroke="#E56542" d="M217 64s-.821 1.546-1 8M216 63s-1.152 4.753-.983 8M212.92 67s.047 2.237.16 4"/>
                <path fill="#FB855F" fill-rule="nonzero" d="M235.437 112c-4.304 0-6.266-5.11-5.11-6.285.346-.372.623-.806.814-1.28.29-.71.486-1.457.581-2.22l7.95-7.215c-.433 4.593 1.503 7.817 2.203 10.112S240.329 112 235.437 112z"/>
                <path fill="#E56542" fill-rule="nonzero" d="M238.63 100.357c-2.451 4.027-7.491 3.628-7.63 3.635.31-.645.519-1.322.62-2.015.234-.116 9.3-5.392 7.01-1.62z"/>
                <path fill="#8E3332" fill-rule="nonzero" d="M248 85.935s-.347 4.48-6.396 9.097c-6.331 4.838.874-10.032.874-10.032l5.522.935z"/>
                <path fill="#FB855F" fill-rule="nonzero" d="M231.85 84s-.84 3.779-1.93 8.017C228.364 98.082 228.23 103 233.978 103c9.653 0 9.013-17.21 9.013-17.21L231.851 84z"/>
                <path fill="#8E3332" fill-rule="nonzero" d="M238.712 88.215s-14.514-.332-12.525-10.32c1.989-9.99 7.693 2.39 10.627 2.39 3.461 0 12.904.514 9.431 8.884-.869 2.194-2.303-.614-7.533-.954z"/>
                <path stroke="#0D4260" d="M215 122s2.46-9.781 5-12M210 101L206 106M257 88L262 86"/>
                <path fill="#68A3C1" fill-rule="nonzero" d="M222 175L240 174.223 234.275 157.163 225.682 156z"/>
                <circle cx="241.5" cy="96.5" r="3.5" fill="#FB855F" fill-rule="nonzero"/>
                <path fill="#83CAF2" fill-rule="nonzero" d="M204 111.04c.002 1.702-.325 3.388-.961 4.96-3.72-1.3-6.733-3.076-8.172-5.498-.223-.357-.401-.74-.53-1.143v-.032c-.285-.844-.391-1.741-.311-2.631.062-2.21.778-4.865 1.88-7.696 4.23 1.643 7.27 5.512 7.95 10.118.095.636.143 1.278.144 1.921zM271.517 84.02c.112.297.202.603.27.914.3 1.055.283 2.176-.053 3.22-.455 2.155-1.659 4.486-3.306 6.846-1.158-.844-2.134-1.912-2.872-3.14-.269-.441-.504-.902-.705-1.378-1.841-4.367-.629-9.424 2.993-12.482 1.7 2.102 3.004 4.147 3.673 6.02z"/>
                <circle cx="237" cy="93" r="1" fill="#8E3332" fill-rule="nonzero"/>
                <circle cx="232" cy="92" r="1" fill="#8E3332" fill-rule="nonzero"/>
                <path stroke="#8E3332" stroke-width="2" d="M233.986 92c.108.97-.405 1.906-1.29 2.35-1.524.77-.264 2.106 1.099 1.494"/>
                <path fill="#FFF" fill-rule="nonzero" d="M230.019 98l3.981.618s-.666 2.644-2.474 2.36c-1.808-.282-1.507-2.978-1.507-2.978z"/>
                <path stroke="#8E3332" stroke-width="2" d="M237 89c.881.124 1.645.888 2 2M231 88.168s1.724-.724 3 .832M241 95s1.766.168 2 2"/>
                <path fill="#80C2C1" fill-rule="nonzero" d="M161 72.227s-.42 37.9-11.072 37.773c-12.029-.144 1.747-39.391 1.747-39.391s5.518-2.145 9.325 1.618z"/>
                <path fill="#FFAA40" fill-rule="nonzero" d="M116.552 108.92s35.17-16.508 38.991-6.934c5.183 13-35.446 18.011-35.446 18.011-6.388.174-8.07-7.791-3.545-11.077z"/>
                <path fill="#FFAA40" fill-rule="nonzero" d="M140 156s-.526-41.132-12.029-46.986c-6.594-3.356-20.243-2.445-27.205 2.193-7.024 4.68-2.07 44.793-2.07 44.793H140z"/>
                <path fill="#FB8A60" fill-rule="nonzero" d="M152.226 72.926s-1.266-1.978-1.21-3.883c.055-1.905.338-3.182-.741-5.152-1.08-1.971 1.316-2.785 2.175-1.034.86 1.75 1.805 4.713 3.626 3 1.821-1.712 1.313-8.006 4.943-6.317 0 0 .489-2.861 1.758-2.51 1.269.35.835 2.95.835 2.95s3.26-1.392.958 5.014c0 0 1.675.173 1.4 1.469-.446 2.075-3.288 5.924-6.346 8.234-4.974 3.744-7.398-1.77-7.398-1.77z"/>
                <path stroke="#E56542" d="M160.998 59s.18 1.661-2.998 7M164 59s-1.25 5.015-3 8M165 64s-1.61 2.256-3 4"/>
                <path fill="#1C5276" fill-rule="nonzero" d="M75.505 266.684l11.834 11.55c.766.75.88 1.918.272 2.792-.707 1.012-2.128 1.278-3.175.595L65 268.945 69.734 263l5.77 3.684z"/>
                <path fill="#FB855F" fill-rule="nonzero" d="M73.38 260.172h.749c1.678 0 3.038 1.36 3.038 3.038v5.88h-6.831v-5.875c0-1.679 1.361-3.04 3.04-3.04l.004-.003z" transform="rotate(-146 73.751 264.631)"/>
                <path fill="#1C5276" fill-rule="nonzero" d="M130.496 277l16.648 3.37c1.08.218 1.856 1.178 1.856 2.293 0 1.29-1.032 2.337-2.306 2.337H123l.478-7.915 7.018-.085z"/>
                <path fill="#FB855F" fill-rule="nonzero" d="M127.124 272h.756c1.723 0 3.12 1.373 3.12 3.067V281h-7v-5.93c-.001-.814.328-1.596.914-2.172.586-.576 1.38-.899 2.21-.898z" transform="rotate(-180 127.5 276.5)"/>
                <path fill="#FFAA40" fill-rule="nonzero" d="M153.945 134.305s-29.726 23.276-36.067 14.862C110.732 139.684 149.573 126 149.573 126s5.004 2.984 4.372 8.305z"/>
                <path fill="#FFAA40" fill-rule="nonzero" d="M112.085 113.746s23.024 31.935 13.686 37.34c-12.69 7.341-24.64-31.935-24.64-31.935-1.25-6.289 6.769-9.315 10.954-5.405z"/>
                <path fill="#5F6386" fill-rule="nonzero" d="M130.118 224c5.045.004 9.213-3.926 9.496-8.951 1.175-21.27 1.695-43.065 1.198-59.049H120c.658 18.207.822 39.396.61 58.408-.028 2.534.96 4.975 2.747 6.777 1.786 1.803 4.221 2.816 6.761 2.815z"/>
                <path fill="#5F6386" fill-rule="nonzero" d="M129.816 207c2.531-.001 4.95 1.058 6.686 2.929 1.735 1.87 2.633 4.385 2.481 6.95-1.062 18.089-2.58 44.523-3.37 56.121H120c.623-13.213.433-40.302.634-56.792.062-5.104 4.155-9.208 9.182-9.208zM109.123 224c5.043.004 9.209-3.926 9.49-8.951 1.174-21.27 1.699-43.065 1.198-59.049H99c.658 18.207.818 39.396.61 58.408-.029 2.536.961 4.978 2.749 6.78 1.787 1.803 4.223 2.815 6.764 2.812z"/>
                <path fill="#5F6386" fill-rule="nonzero" d="M113.913 207.607c2.118 1.447 3.552 3.714 3.965 6.267.413 2.553-.233 5.165-1.785 7.22-10.95 14.485-26.919 35.698-34.028 44.906L69 257.076c7.864-10.675 22.769-33.37 32.104-47.036 2.893-4.223 8.6-5.307 12.809-2.433z"/>
                <path fill="#FB855F" fill-rule="nonzero" d="M116.57 114c4.301 0 6.258-5.114 5.104-6.289-.346-.372-.62-.806-.81-1.28-.291-.709-.488-1.454-.586-2.216L112.331 97c.428 4.593-1.502 7.817-2.205 10.112-.704 2.295 1.56 6.888 6.445 6.888z"/>
                <path fill="#E56542" fill-rule="nonzero" d="M113.366 103.354c2.452 4.03 7.491 3.63 7.634 3.638-.31-.645-.52-1.323-.625-2.015-.233-.117-9.282-5.389-7.01-1.623z"/>
                <path fill="#8E3332" fill-rule="nonzero" d="M104 88.94s.343 4.479 6.394 9.091c6.34 4.841-.88-10.031-.88-10.031l-5.514.94z"/>
                <path fill="#FB855F" fill-rule="nonzero" d="M121.152 86s.837 3.782 1.927 8.028c1.556 6.066 1.693 10.972-4.059 10.972-9.655 0-9.011-17.225-9.011-17.225L121.152 86z"/>
                <path fill="#FB855F" fill-rule="nonzero" d="M108.605 93.102c-1.349.624-.415 4.508 2.535 4.888 2.275.292-.452-5.85-2.535-4.888z"/>
                <path stroke="#50A5A0" stroke-width="2" d="M145 99s2.2 1.344 3 3"/>
                <path fill="#5F6386" fill-rule="nonzero" d="M128 176L112 173.057 116.924 156.293 123.693 156z"/>
                <path fill="#494E6D" fill-rule="nonzero" d="M87 261.001L82.746 266 69 256.814 73.258 251zM137 266L120.498 266.255 120 273 136.261 273z"/>
                <path fill="#8E3332" fill-rule="nonzero" d="M104.063 89.249c3.785.963 7.752 1 11.556.109C122.122 87.883 124 82 124 82s-6.185 2.351-11.571 2.257c-5.386-.094-8.952 2.234-8.366 4.992z"/>
                <circle cx="116" cy="94" r="1" fill="#8E3332" fill-rule="nonzero"/>
                <circle cx="120" cy="93" r="1" fill="#8E3332" fill-rule="nonzero"/>
                <path stroke="#8E3332" stroke-width="2" d="M119.007 96c-.055.486.202.955.646 1.178.76.38.131 1.05-.56.745"/>
                <path fill="#FFF" fill-rule="nonzero" d="M120.981 100l-3.981.615s.666 2.651 2.474 2.363c1.808-.288 1.507-2.978 1.507-2.978z"/>
                <path stroke="#8E3332" stroke-width="2" d="M115 91c-.882.12-1.647.886-2 2M121 90.168s-1.727-.724-3 .832"/>
                <circle cx="114.5" cy="94.5" r="2.5" stroke="#8E3332"/>
                <circle cx="121.5" cy="92.5" r="2.5" stroke="#8E3332"/>
                <path stroke="#8E3332" d="M119 93.864L118 94.136"/>
                <path fill="#04D1CD" fill-rule="nonzero" d="M137 104.687L190.68 143 252 26.534 208.025 8 180.128 94.579 150.651 71.56z"/>
                <path fill="#FD8B66" fill-rule="nonzero" d="M150.552 126.763s.668-2.313 2.11-3.568c1.441-1.254 2.565-1.901 3.343-4.063.777-2.162 2.882-.883 2.128.963-.755 1.846-2.347 4.583.06 4.794 2.407.212 6.739-4.43 7.77-.503 0 0 2.421-1.57 2.954-.36.532 1.211-1.653 2.645-1.653 2.645s3.075 1.55-3.102 4.136c0 0 .925 1.402-.211 2.07-1.811 1.066-6.437 1.505-10.063.73-5.894-1.242-3.336-6.844-3.336-6.844z"/>
                <path stroke="#E56542" d="M165 124s-1.16 1.357-7 3M167 127s-4.587 2.411-8 3M163 131s-2.225.615-4 1"/>
                <circle cx="109" cy="96" r="3" fill="#FB855F" fill-rule="nonzero"/>
                <path fill="#5F6386" fill-rule="nonzero" d="M336.016 286s-1.82-111.664 32.88-116.84C403.597 163.985 345.88 286 345.88 286h-9.863z"/>
                <path stroke="#30354F" stroke-width="2" d="M369 178s-26.913 72.068-28 107M352 191L358.673 208 373 199.371"/>
                <path stroke="#30354F" stroke-width="2" d="M344 221L350.422 235 365 226.552M338 251L342.857 264 355 255.252"/>
                <path fill="#9FA3BF" fill-rule="nonzero" d="M332.99 286s1.162-67.761-20.923-70.903c-22.085-3.141 14.65 70.903 14.65 70.903h6.272z"/>
                <path stroke="#30354F" stroke-width="2" d="M312 221s17.298 43.782 18 65M322 228L317.871 238 309 232.924"/>
                <path stroke="#30354F" stroke-width="2" d="M328 246L324.024 255 315 249.568M332 265L328.858 273 321 267.616"/>
                <path fill="#5F6386" fill-rule="nonzero" d="M36.01 285s-1.122-66.808 20.176-69.904C77.484 211.999 42.052 285 42.052 285H36.01z"/>
                <path stroke="#30354F" stroke-width="2" d="M57 221s-16.325 43.105-17 64M47 228L50.813 238 59 232.925"/>
                <path stroke="#30354F" stroke-width="2" d="M42 246L45.668 255 54 249.566M38 264L41.142 272 49 266.618"/>
                <path fill="#9FA3BF" fill-rule="nonzero" d="M34.994 285s.69-40.08-12.708-41.942C8.89 241.196 31.176 285 31.176 285h3.818z"/>
                <path stroke="#30354F" stroke-width="2" d="M22 246s10.573 26.267 11 39M29 251L26.461 257 21 253.955"/>
                <path stroke="#30354F" stroke-width="2" d="M32 261L29.552 266 24 262.983M33 272L31.287 277 27 273.636"/>
                <path fill="#9FA3BF" fill-rule="nonzero" d="M56.057 170.082v-.352c0-.12 0-.142.02-.212 0 .031-.036.216 0 .043.053-.27.123-.537.208-.8.044-.123.092-.243.14-.362.048-.12 0-.023 0 0 .032-.074.068-.147.104-.22.13-.264.272-.522.428-.772.644-1.023 1.444-1.945 2.373-2.737.943-.859 1.995-1.6 3.13-2.205.251-.138.508-.27.772-.386.132-.065.268-.123.4-.185.044-.02.228-.092.044-.02l.24-.092c.517-.2 1.053-.353 1.6-.455l.145-.023c.252-.039-.224.019.024 0 .116 0 .228-.024.344-.027.219-.004.438.003.656.023-.316-.023 0 0 .1.027s.192.054.284.08c.256.07-.14-.096.08.04.1.057.196.111.292.173-.256-.162 0 0 .06.066.06.065.236.305.072.061l.164.251.056.112c.092.159-.056-.2 0 .035.076.224.137.452.18.683.029.155 0-.239 0 0V163.52c.01.674-.127 1.342-.4 1.961l-.088.147c-.136.22.132-.116-.044.054l-.104.104c-.164.162.12-.085 0 0-.047.033-.098.06-.152.081.212-.104.092-.038.02-.019-.072.02-.216.02.032 0h-.204c-.268 0 .1.054-.168-.023-.124-.039-.252-.07-.372-.116.212.077-.172-.085-.224-.112-.16-.085-.312-.177-.464-.278-.497-.352-.954-.753-1.365-1.196-.47-.49-.874-1.034-1.2-1.622-.494-.86-.823-1.801-.969-2.775-.284-2.004.657-3.745 2.325-4.93.463-.279.621-.857.36-1.32-.282-.455-.89-.61-1.368-.347-1.965 1.393-3.342 3.327-3.366 5.744.019 1.982.68 3.908 1.893 5.508.917 1.22 2.089 2.444 3.542 3.061.685.34 1.48.416 2.22.213.816-.316 1.44-.97 1.697-1.78.581-1.496.567-3.146-.04-4.632-.529-1.067-1.607-1.78-2.829-1.872-1.237-.081-2.475.138-3.601.637-1.436.58-2.783 1.347-4.002 2.28-2.429 1.823-5.11 4.614-5.102 7.78 0 1.242 2 1.246 2 0l.057.015zM295.097 140.038v-.375l.024-.224c0 .033-.04.232 0 .045.053-.285.123-.567.208-.844.04-.126.088-.256.136-.383.048-.126 0-.024 0 0 .032-.077.068-.154.104-.232.13-.279.272-.55.428-.815.643-1.08 1.443-2.054 2.373-2.889.943-.905 1.993-1.686 3.126-2.326.256-.143.512-.281.776-.408.132-.069.268-.13.4-.191.045-.025.229-.102.045-.025l.236-.097c.517-.212 1.053-.372 1.6-.477l.144-.029c.249-.04-.224 0 0 0 .116 0 .233-.024.349-.028.219-.004.438.004.656.024-.316-.024 0 0 .1.029.1.028.188.061.284.085.256.074-.144-.101.08.041.1.061.196.118.292.184-.256-.172 0 0 .056.069.056.07.24.326.072.07.06.085.112.174.164.264.052.09.04.077.06.114.092.167-.056-.212 0 .037.075.237.135.48.18.725.029.159-.02-.257 0 0V133.107c.008.71-.128 1.415-.4 2.07-.032.053-.06.106-.092.155-.136.232.132-.122-.04.057l-.108.11c-.16.171.124-.09 0 0-.046.032-.096.06-.148.081.212-.11.092-.04 0-.02s-.212.02.036 0h-.208c-.264 0 .104.057-.164-.024-.128-.041-.252-.074-.376-.123.216.086-.168-.09-.22-.118-.16-.085-.312-.187-.465-.29-.495-.373-.953-.798-1.364-1.266-.47-.516-.874-1.091-1.2-1.712-.495-.908-.823-1.901-.97-2.93-.287-2.114.657-3.951 2.326-5.202.463-.295.62-.905.36-1.394-.283-.48-.89-.643-1.369-.366-1.964 1.47-3.341 3.512-3.37 6.062.023 2.092.686 4.125 1.898 5.815.916 1.287 2.089 2.583 3.541 3.235.686.355 1.478.434 2.217.22.818-.33 1.442-1.022 1.697-1.878.585-1.578.571-3.322-.04-4.89-.528-1.125-1.604-1.878-2.825-1.976-1.237-.085-2.475.146-3.602.672-1.434.616-2.78 1.426-4.002 2.408-2.425 1.924-5.106 4.87-5.102 8.215 0 1.307 2 1.312 2 0l.097.02z"/>
                <path fill="#E84D2E" fill-rule="nonzero" d="M155.993 188.361c.872-2.434 2.251-4.67 4.052-6.574.846-.952 1.883-1.73 3.05-2.286l.048-.023c.076-.033.154-.062.233-.088.143-.05.285-.095.432-.133.146-.038.253-.06.395-.088l.19-.034c-.19.027.087 0 .127 0 .291-.024.584-.018.874.02-.154-.024.163.033.226.049.183.041.363.095.538.16.555.236 1.066.559 1.512.956.288.263.56.543.81.839-.173-.206.04.068.072.114.075.115.143.233.206.354.027.054.146.32.067.13.047.114.091.229.13.347.09.25.163.504.222.762.028.114.048.229.067.343 0 0 .044.278.024.133-.02-.145 0 .065 0 .092.028.274.048.545.048.819.006.26-.003.519-.028.777.028-.213 0 .061-.032.126-.023.119-.055.236-.095.35 0 .047-.031.088-.043.134-.071.21.071-.133 0 0l-.143.248c-.07.114.139-.11-.035.034-.174.145.146-.038-.075.054-.107.045.213-.042-.06 0 .119-.023.111 0-.075 0h.06l-.143-.027-.186-.054c-.19-.053-.024 0-.087-.034-.512-.232-.958-.581-1.298-1.017-.145-.192-.25-.41-.305-.64-.093-.276-.13-.565-.11-.854.018-.611.145-1.214.375-1.784.474-1.2 1.197-2.296 2.125-3.22.216-.215.443-.418.68-.61 0 0 .147-.114.025-.022l.146-.103c.119-.08.241-.156.364-.225l.336-.164c-.201.092.048 0 .12-.038.24-.077.486-.138.735-.183l.162-.027c.166-.026-.241.023.032 0l.344-.03h.863c.285 0 .542.03.791.057.202.023.479.065.827.133.62.12 1.232.277 1.832.47.574.179 1.136.392 1.682.64.587.266 1.16.564 1.713.891.491.29.96.612 1.405.964.858.634 1.551 1.45 2.026 2.386.024.046.09.217 0 .03l.06.153c.03.099.066.198.098.297.032.1.06.251.087.381 0 .046.024.187 0-.023v.686c0 .252.028-.137 0 0-.043.25-.112.495-.206.732 0 .034-.075.164 0 0-.023.05-.047.103-.075.152-.079.141-.158.275-.245.412-.078.12-.164.237-.257.347-.052.06-.36.327-.234.24-.043.034-.09.057-.138.087l-.071.038c.11-.041.13-.053.063-.03s-.194.091-.036.023c.158-.069 0 0-.067 0 .214 0 .071.034-.051-.03.316.167-.214-.203.023 0-.086-.076-.168-.156-.245-.24-.107-.115.127.182-.024-.031l-.099-.145c-.067-.1-.126-.202-.186-.305-.06-.103-.19-.381-.142-.286-.24-.568-.41-1.162-.507-1.768-.027-.18.024.225 0-.076v-.187c0-.118 0-.24-.02-.358s0-.252 0-.381v-.19c-.02.25 0-.092.032-.165.123-.7.38-1.371.756-1.981.72-1.086 1.803-1.904 3.07-2.317.706-.249 1.437-.423 2.18-.518.541-.014.975-.433.99-.953-.004-.525-.445-.949-.99-.953-1.918.24-3.758.785-5.294 1.955-1.414 1.102-2.356 2.668-2.647 4.398-.206 1.47.027 2.967.673 4.314.526 1.166 1.606 2.446 3.094 2.046 1.488-.4 2.374-2.115 2.596-3.43.167-1.257-.15-2.53-.89-3.578-1.619-2.412-4.46-3.982-7.202-4.935-2.421-.835-5.623-1.444-7.993-.141-1.349.74-2.421 2.008-3.225 3.262-.87 1.36-1.582 3.026-1.464 4.653.104 1.637 1.115 3.094 2.648 3.81 1.238.607 2.67.466 3.41-.761.614-1.022.637-2.333.487-3.472-.123-1.335-.66-2.603-1.543-3.64-.982-1.283-2.462-2.129-4.102-2.344-1.64-.216-3.3.218-4.603 1.201-2.727 1.776-4.749 4.62-6.11 7.466-.3.62-.563 1.257-.791 1.905-.396 1.166 1.504 1.666 1.907.507l.032.02z"/>
                <path fill="#FF9D33" fill-rule="nonzero" d="M142.295 22.136c-1.198-.269-2.452-.137-3.567.376-.923.48-1.683 1.22-2.189 2.128-1 1.804-1.309 3.908-.868 5.922.397 1.777 1.697 3.459 3.71 3.08.928-.126 1.68-.81 1.892-1.718.118-.905-.15-1.819-.738-2.519-1.312-1.745-3.623-2.606-5.664-1.603-1.293.64-2.189 1.947-2.775 3.222-.68 1.544-1.07 3.2-1.15 4.884-.162 1.716.08 3.447.71 5.054.584 1.244 1.485 2.315 2.612 3.107 1.28.904 2.846.79 3.695-.62.642-1.058.983-2.602.432-3.763-.952-2.021-3.798-1.615-5.522-1.093-2.192.667-4.527 1.895-5.982 3.707-.359.438-.648.928-.856 1.453-.143.525.165 1.067.69 1.216.527.133 1.065-.172 1.22-.69-.103.252 0 0 .04-.076.04-.075.091-.166.139-.249.047-.083.095-.142.143-.213.047-.07.059-.083.087-.122.028-.04-.111.126 0 0 .288-.34.603-.655.943-.944.14-.124.286-.238.44-.343.202-.146.397-.285.623-.419.432-.271.879-.518 1.34-.738.114-.06.23-.11.348-.166l.202-.087c.23-.095.464-.185.702-.264.45-.163.909-.295 1.376-.395.11-.024.222-.044.333-.06.277-.05-.028 0 .134-.02.163-.019.397-.035.61-.035h.286c.095 0 .297.04.076 0 .174.032.34.08.515.123.174.043-.131-.083 0 0 .06.044.125.081.194.11.147.055-.186-.134 0 0s.08.13.036.024c.024.058.056.112.095.162.055.063-.028-.178 0 .027 0 .08.036.162.051.237-.051-.237 0 0 0 .103v.229c0 .055 0 .11-.027.166-.058.285-.141.563-.25.833-.086.214-.222.405-.396.557.11-.119.035-.024 0 0 .04 0 .17-.087 0 0-.032 0-.215.05.035 0h-.107c.147 0-.143-.044-.186-.06-.179-.059-.044-.02 0 0l-.159-.087c-.2-.105-.386-.238-.55-.394-.191-.174-.373-.356-.548-.55-.09-.098-.178-.2-.265-.303l-.123-.15c-.111-.134 0 .023-.044-.055-.688-.933-1.078-2.05-1.122-3.206-.115-1.38-.019-2.77.286-4.122.268-1.234.812-2.392 1.59-3.388.17-.2.357-.386.558-.557.087-.075 0 0-.02 0l.143-.098c.104-.071.213-.136.325-.194l.147-.075c.13-.063-.155.055 0 0 .154-.055.19-.067.293-.09.103-.024.167-.04.254-.056-.262.051.051 0 .135 0H137.055c.139 0-.19-.035-.056 0 .199.043.397.095.58.154l.098.04c.127.047-.166-.08-.043 0l.25.122c.171.096.337.203.495.32-.21-.154.17.154.242.225l.162.166c.052.055.27.331.1.102.092.127.178.259.257.395.036.06.063.122.099.182.13.233-.032-.166.036.083 0 .059.035.118.051.181.016.063.056.292.028.095-.028-.197 0 .024 0 .067-.004.032-.004.063 0 .095.048.138.032-.217 0-.075-.017.049-.03.099-.04.15 0-.028.12-.205 0-.032-.119.174.159-.181 0-.02-.158.162.048-.067 0 0-.047.068-.234.135-.071.052.162-.083-.095.031-.135.043-.04.012-.158.036-.234.056-.075.02.127 0 .123 0h-.166c-.07-.004-.14-.004-.21 0 .13 0 .206.05.035 0l-.194-.06c.06 0 .159.095 0 0-.055-.035-.11-.079-.166-.11.122.067.138.126 0 0l-.147-.15c-.028-.028-.048-.056-.071-.083-.024-.028.126.21.035.047-.091-.162-.154-.237-.222-.363-.067-.126-.071-.146-.107-.217.052.103.028.087-.028-.083-.112-.34-.2-.689-.261-1.042-.028-.166 0 .193 0-.091l-.024-.253c0-.21-.02-.418 0-.628.02-.209 0-.394.028-.564 0-.103.02-.206.028-.304.007-.099-.028.177 0 .031 0-.063.02-.126.031-.19.07-.401.172-.798.305-1.184.032-.094.072-.19.108-.284.035-.095-.072.13.051-.11.087-.182.174-.36.278-.53.051-.086.107-.17.162-.252.056-.083.214-.285.06-.095.123-.151.255-.295.396-.43l.214-.198.111-.09c-.024.02-.17.122-.028.023.143-.099.33-.205.5-.296l.134-.063c-.027 0-.198.075-.031 0 .095-.032.19-.067.29-.095.098-.028.174-.043.26-.067l.155-.028c.12-.027-.182 0 0 0 .225-.015.45-.015.674 0 .107 0 .21 0 .313.024.163 0-.146-.024 0 0l.238.04c.525.132 1.062-.17 1.217-.687.143-.525-.165-1.067-.69-1.217h.02zM292.531 48.63c-.708 2.034-.708 4.245 0 6.278.385 1.322 1.139 2.509 2.175 3.423.95.807 2.023 1.461 3.178 1.937.957.388 2.155.636 3.084.047 1.136-.72 1.199-2.4.832-3.554-.322-.926-1.224-1.528-2.21-1.473-2.256 0-4.4 1.775-5.676 3.488-.896 1.17-1.415 2.58-1.488 4.046-.07 1.834.726 3.488 1.85 4.895.382.377.998.377 1.379 0 .371-.381.371-.986 0-1.368-.368-.467-.675-.98-.914-1.523-.112-.276-.2-.562-.265-.853-.062-.218-.093-.443-.094-.67-.013-.27-.006-.54.02-.81 0-.22 0 0 .03-.202.028-.135.055-.27.09-.387.067-.252.149-.499.247-.74.058-.148-.055.12 0-.024.023-.054.05-.108.078-.166.058-.12.125-.244.19-.365.127-.224.265-.441.415-.65.119-.17.249-.33.39-.481.335-.375.7-.722 1.09-1.039.148-.116.038-.027 0 0l.136-.1c.102-.074.207-.148.309-.214.19-.128.39-.244.589-.352l.277-.144.223-.1.183-.07.293-.093.254-.062c.039 0 .347-.055.172-.035-.176.02.093 0 .128 0h.243c.074 0-.211-.07 0 0 .065.025.133.045.203.058 0 0-.203-.116-.032 0 .172.116-.168-.167 0 0s-.113-.178 0 0c.114.178 0 0 0-.02.028.202.094.407.102.524.008.144.008.29 0 .434v.174c0 .151.035-.159 0-.023l-.07.275c-.024.09 0-.128.023-.054-.018.048-.044.093-.078.132.312-.291-.172.127.027-.031.2-.16-.226.108 0 0 .227-.109-.086 0-.125.03-.039.032-.172.024 0 0 .172-.023 0 0-.054 0h-.293c-.098 0 .191.035.054 0l-.14-.027c-.212-.047-.42-.107-.625-.178-.062-.02-.343-.132-.27-.1l-.23-.105c-.222-.109-.44-.221-.655-.345-.426-.242-.837-.508-1.23-.799-.215-.155.097.078-.028 0l-.152-.124c-.097-.077-.191-.158-.285-.24-.154-.134-.302-.276-.441-.426l-.16-.186c.246.271-.07-.128-.117-.202-.235-.382-.437-.784-.601-1.201-.722-1.794-.762-3.787-.114-5.608.144-.516-.161-1.05-.68-1.192-.52-.142-1.058.16-1.201.676l-.036-.08z"/>
                <circle cx="99" cy="65" r="2" stroke="#9FA3BF"/>
                <circle cx="291.5" cy="99.5" r="1.5" stroke="#9FA3BF"/>
                <circle cx="268.5" cy="33.5" r="1.5" stroke="#9FA3BF"/>
                <circle cx="235.5" cy="2.5" r="2.5" stroke="#9FA3BF"/>
                <circle cx="177.5" cy="222.5" r="9.5" stroke="#9FA3BF"/>
                <circle cx="280" cy="188" r="4" stroke="#9FA3BF"/>
                <circle cx="70" cy="183" r="3" stroke="#9FA3BF"/>
            </g>
        </g>
    </g>
</svg>
