<svg xmlns="http://www.w3.org/2000/svg" width="27" height="72" viewBox="0 0 27 72">
    <g fill="none" fill-rule="evenodd">
        <g fill="#000" fill-rule="nonzero">
            <g>
                <path d="M62.764 17.495c-10.817.235-20.936 4.925-31.752 5.512-3.14.117-6.281-.235-8.724-1.642 4.42-.82 8.607-2.345 11.748-5.277 3.373-3.049 3.722-8.677 1.628-12.664C33.687-.33 28.685-.446 25.196.492c-8.258 1.993-13.84 11.96-9.188 18.997-5.118.351-10.236 0-15.237.234-1.047.117-1.047 1.642.116 1.642 5.118.352 11.282.82 17.33.469.35.235.698.586 1.047.82 12.329 8.679 30.357-2.227 43.616-2.579 1.512-.117 1.512-2.697-.116-2.58zm-45.71-2.814C15.775 9.873 19.962 5.769 23.8 3.775c3.838-1.994 9.305-1.994 10.584 3.049 1.512 5.863-3.489 9.381-8.258 10.906-2.21.703-4.303 1.172-6.513 1.407-1.279-1.173-2.093-2.58-2.559-4.456z" transform="translate(-177 -153) rotate(-90 201 23.5)"/>
                <path d="M70.404 17.408c-1.627-1.027-3.138-2.054-4.65-3.08-1.278-.914-2.557-1.941-4.068-2.283-1.162-.343-2.324 1.37-1.278 2.168 1.278.913 2.673 1.712 3.952 2.51.93.571 1.86 1.256 2.673 1.826-.93.457-1.86.8-2.79 1.256-.697.342-1.51.684-2.208 1.027-.232.114-.465.342-.581.57-.349.457-.116.229 0 .114-.465.343-.465 1.484.349 1.37.232.114.464.114.813.114.814-.228 1.744-.57 2.557-.913 1.744-.685 3.487-1.37 5.115-2.282.93-.685.93-1.94.116-2.397z" transform="translate(-177 -153) rotate(-90 201 23.5)"/>
            </g>
        </g>
    </g>
</svg>
