<svg id="SvgjsSvg1001" width="288" height="288" xmlns="http://www.w3.org/2000/svg" version="1.1" xmlns:xlink="http://www.w3.org/1999/xlink" xmlns:svgjs="http://svgjs.com/svgjs"><defs id="SvgjsDefs1002"></defs><g id="SvgjsG1008" transform="matrix(0.9167,0,0,0.9167,11.995200000000011,11.995200000000011)"><svg xmlns="http://www.w3.org/2000/svg" enable-background="new 0 0 512 512" viewBox="0 0 512 512" width="288" height="288"><circle cx="256" cy="256" r="256" fill="#e4e4e4" class="colorffca28 svgShape"></circle><path fill="#6d4c41" d="M357.824,394.176c-4.096,0-8.192-1.568-11.328-4.672c-48.384-48.384-132.672-48.384-181.024,0
		c-6.24,6.24-16.384,6.24-22.624,0s-6.24-16.384,0-22.624C173.088,336.672,213.248,320,256,320s82.912,16.672,113.12,46.88
		c6.24,6.24,6.24,16.384,0,22.624C366.016,392.64,361.92,394.176,357.824,394.176z" class="color6d4c41 svgShape"></path><circle cx="160" cy="192" r="32" fill="#6d4c41" class="color6d4c41 svgShape"></circle><circle cx="352" cy="192" r="32" fill="#6d4c41" class="color6d4c41 svgShape"></circle></svg></g></svg>