<svg id="SvgjsSvg1001" width="288" height="288" xmlns="http://www.w3.org/2000/svg" version="1.1" xmlns:xlink="http://www.w3.org/1999/xlink" xmlns:svgjs="http://svgjs.com/svgjs"><defs id="SvgjsDefs1002"></defs><g id="SvgjsG1008" transform="matrix(0.9167,0,0,0.9167,11.995200000000011,11.995200000000011)"><svg xmlns="http://www.w3.org/2000/svg" enable-background="new 0 0 512 512" viewBox="0 0 512 512" width="288" height="288"><circle cx="256" cy="256" r="256" fill="#e4e4e4" class="colorffca28 svgShape"></circle><path fill="#6d4c41" d="M399.68 208.32c-8.832 0-16-7.168-16-16 0-17.632-14.336-32-32-32s-32 14.368-32 32c0 8.832-7.168 16-16 16s-16-7.168-16-16c0-35.296 28.704-64 64-64s64 28.704 64 64C415.68 201.184 408.512 208.32 399.68 208.32zM207.68 208.32c-8.832 0-16-7.168-16-16 0-17.632-14.368-32-32-32s-32 14.368-32 32c0 8.832-7.168 16-16 16s-16-7.168-16-16c0-35.296 28.704-64 64-64s64 28.704 64 64C223.68 201.184 216.512 208.32 207.68 208.32z" class="color6d4c41 svgShape"></path><path fill="#fafafa" d="M437.696,294.688c-3.04-4-7.744-6.368-12.736-6.368H86.4c-5.024,0-9.728,2.336-12.736,6.336
	c-3.072,4.032-4.032,9.184-2.688,14.016C94.112,390.88,170.08,448.32,255.648,448.32s161.536-57.44,184.672-139.648
	C441.696,303.84,440.736,298.688,437.696,294.688z" class="colorfafafa svgShape"></path></svg></g></svg>